<svg width="1104" height="195" viewBox="0 0 1104 195" fill="none" xmlns="http://www.w3.org/2000/svg">
<path d="M57.704 26V9.2H60.248V26H57.704ZM63.5611 26V14.096H65.8171L66.0091 16.184C66.3771 15.448 66.9131 14.872 67.6171 14.456C68.3371 14.024 69.1611 13.808 70.0891 13.808C71.5291 13.808 72.6571 14.256 73.4731 15.152C74.3051 16.048 74.7211 17.384 74.7211 19.16V26H72.2011V19.424C72.2011 17.12 71.2571 15.968 69.3691 15.968C68.4251 15.968 67.6411 16.304 67.0171 16.976C66.4091 17.648 66.1051 18.608 66.1051 19.856V26H63.5611ZM77.7174 31.28V14.096H79.9974L80.2614 15.944C80.6454 15.384 81.1734 14.888 81.8454 14.456C82.5174 14.024 83.3814 13.808 84.4374 13.808C85.5894 13.808 86.6054 14.08 87.4854 14.624C88.3654 15.168 89.0534 15.912 89.5494 16.856C90.0614 17.8 90.3174 18.872 90.3174 20.072C90.3174 21.272 90.0614 22.344 89.5494 23.288C89.0534 24.216 88.3654 24.952 87.4854 25.496C86.6054 26.024 85.5814 26.288 84.4134 26.288C83.4854 26.288 82.6614 26.104 81.9414 25.736C81.2374 25.368 80.6774 24.848 80.2614 24.176V31.28H77.7174ZM83.9814 24.08C85.0694 24.08 85.9654 23.712 86.6694 22.976C87.3734 22.224 87.7254 21.248 87.7254 20.048C87.7254 19.264 87.5654 18.568 87.2454 17.96C86.9254 17.352 86.4854 16.88 85.9254 16.544C85.3654 16.192 84.7174 16.016 83.9814 16.016C82.8934 16.016 81.9974 16.392 81.2934 17.144C80.6054 17.896 80.2614 18.864 80.2614 20.048C80.2614 21.248 80.6054 22.224 81.2934 22.976C81.9974 23.712 82.8934 24.08 83.9814 24.08ZM97.4609 26.288C96.0209 26.288 94.8849 25.84 94.0529 24.944C93.2369 24.048 92.8289 22.712 92.8289 20.936V14.096H95.3729V20.672C95.3729 22.976 96.3169 24.128 98.2049 24.128C99.1489 24.128 99.9249 23.792 100.533 23.12C101.141 22.448 101.445 21.488 101.445 20.24V14.096H103.989V26H101.733L101.541 23.912C101.173 24.648 100.629 25.232 99.9089 25.664C99.2049 26.08 98.3889 26.288 97.4609 26.288ZM112.217 26C111.049 26 110.121 25.72 109.433 25.16C108.745 24.584 108.401 23.568 108.401 22.112V16.232H106.361V14.096H108.401L108.713 11.072H110.945V14.096H114.305V16.232H110.945V22.112C110.945 22.768 111.081 23.224 111.353 23.48C111.641 23.72 112.129 23.84 112.817 23.84H114.185V26H112.217Z" fill="black"/>
<path d="M17.2563 24.5766C16.1146 26.5841 13.2279 26.6027 12.0603 24.6103L4.61671 11.9082C3.44909 9.91568 4.87626 7.40639 7.18561 7.39145L21.9077 7.29617C24.2171 7.28122 25.6766 9.77183 24.5349 11.7793L17.2563 24.5766Z" fill="black"/>
<rect x="58.5" y="74.5" width="1045" height="120" rx="15.5" fill="#FCFCFC"/>
<path d="M89.776 124V107.2H91.792V124H89.776ZM105.546 124.288C104.554 124.288 103.73 124.12 103.074 123.784C102.418 123.448 101.93 123 101.61 122.44C101.29 121.88 101.13 121.272 101.13 120.616C101.13 119.4 101.594 118.464 102.522 117.808C103.45 117.152 104.714 116.824 106.314 116.824H109.53V116.68C109.53 115.64 109.258 114.856 108.714 114.328C108.17 113.784 107.442 113.512 106.53 113.512C105.746 113.512 105.066 113.712 104.49 114.112C103.93 114.496 103.578 115.064 103.434 115.816H101.37C101.45 114.952 101.738 114.224 102.234 113.632C102.746 113.04 103.378 112.592 104.13 112.288C104.882 111.968 105.682 111.808 106.53 111.808C108.194 111.808 109.442 112.256 110.274 113.152C111.122 114.032 111.546 115.208 111.546 116.68V124H109.746L109.626 121.864C109.29 122.536 108.794 123.112 108.138 123.592C107.498 124.056 106.634 124.288 105.546 124.288ZM105.858 122.584C106.626 122.584 107.282 122.384 107.826 121.984C108.386 121.584 108.81 121.064 109.098 120.424C109.386 119.784 109.53 119.112 109.53 118.408V118.384H106.482C105.298 118.384 104.458 118.592 103.962 119.008C103.482 119.408 103.242 119.912 103.242 120.52C103.242 121.144 103.466 121.648 103.914 122.032C104.378 122.4 105.026 122.584 105.858 122.584ZM114.57 124V112.096H116.394L116.538 113.824C116.922 113.184 117.434 112.688 118.074 112.336C118.714 111.984 119.434 111.808 120.234 111.808C121.178 111.808 121.986 112 122.658 112.384C123.346 112.768 123.874 113.352 124.242 114.136C124.658 113.416 125.226 112.848 125.946 112.432C126.682 112.016 127.474 111.808 128.322 111.808C129.746 111.808 130.882 112.24 131.73 113.104C132.578 113.952 133.002 115.264 133.002 117.04V124H131.01V117.256C131.01 116.024 130.762 115.096 130.266 114.472C129.77 113.848 129.058 113.536 128.13 113.536C127.17 113.536 126.37 113.912 125.73 114.664C125.106 115.4 124.794 116.456 124.794 117.832V124H122.778V117.256C122.778 116.024 122.53 115.096 122.034 114.472C121.538 113.848 120.826 113.536 119.898 113.536C118.954 113.536 118.162 113.912 117.522 114.664C116.898 115.4 116.586 116.456 116.586 117.832V124H114.57ZM142.39 124V112.096H144.214L144.334 114.232C144.718 113.48 145.27 112.888 145.99 112.456C146.71 112.024 147.526 111.808 148.438 111.808C149.846 111.808 150.966 112.24 151.798 113.104C152.646 113.952 153.07 115.264 153.07 117.04V124H151.054V117.256C151.054 114.776 150.03 113.536 147.982 113.536C146.958 113.536 146.102 113.912 145.414 114.664C144.742 115.4 144.406 116.456 144.406 117.832V124H142.39ZM161.549 124.288C160.429 124.288 159.421 124.032 158.525 123.52C157.629 123.008 156.917 122.288 156.389 121.36C155.877 120.416 155.621 119.312 155.621 118.048C155.621 116.784 155.885 115.688 156.413 114.76C156.941 113.816 157.653 113.088 158.549 112.576C159.461 112.064 160.477 111.808 161.597 111.808C162.717 111.808 163.725 112.064 164.621 112.576C165.517 113.088 166.221 113.816 166.733 114.76C167.261 115.688 167.525 116.784 167.525 118.048C167.525 119.312 167.261 120.416 166.733 121.36C166.205 122.288 165.485 123.008 164.573 123.52C163.677 124.032 162.669 124.288 161.549 124.288ZM161.549 122.56C162.237 122.56 162.877 122.392 163.469 122.056C164.061 121.72 164.541 121.216 164.909 120.544C165.277 119.872 165.461 119.04 165.461 118.048C165.461 117.056 165.277 116.224 164.909 115.552C164.557 114.88 164.085 114.376 163.493 114.04C162.901 113.704 162.269 113.536 161.597 113.536C160.909 113.536 160.269 113.704 159.677 114.04C159.085 114.376 158.605 114.88 158.237 115.552C157.869 116.224 157.685 117.056 157.685 118.048C157.685 119.04 157.869 119.872 158.237 120.544C158.605 121.216 159.077 121.72 159.653 122.056C160.245 122.392 160.877 122.56 161.549 122.56ZM174.563 124C173.475 124 172.619 123.736 171.995 123.208C171.371 122.68 171.059 121.728 171.059 120.352V113.8H168.995V112.096H171.059L171.323 109.24H173.075V112.096H176.579V113.8H173.075V120.352C173.075 121.104 173.227 121.616 173.531 121.888C173.835 122.144 174.371 122.272 175.139 122.272H176.387V124H174.563ZM190.964 124.288C189.828 124.288 188.804 124.032 187.892 123.52C186.996 122.992 186.284 122.264 185.756 121.336C185.244 120.392 184.988 119.296 184.988 118.048C184.988 116.8 185.244 115.712 185.756 114.784C186.284 113.84 186.996 113.112 187.892 112.6C188.804 112.072 189.828 111.808 190.964 111.808C192.372 111.808 193.556 112.176 194.516 112.912C195.492 113.648 196.108 114.632 196.364 115.864H194.3C194.14 115.128 193.748 114.56 193.124 114.16C192.5 113.744 191.772 113.536 190.94 113.536C190.268 113.536 189.636 113.704 189.044 114.04C188.452 114.376 187.972 114.88 187.604 115.552C187.236 116.224 187.052 117.056 187.052 118.048C187.052 119.04 187.236 119.872 187.604 120.544C187.972 121.216 188.452 121.728 189.044 122.08C189.636 122.416 190.268 122.584 190.94 122.584C191.772 122.584 192.5 122.384 193.124 121.984C193.748 121.568 194.14 120.984 194.3 120.232H196.364C196.124 121.432 195.516 122.408 194.54 123.16C193.564 123.912 192.372 124.288 190.964 124.288ZM204.603 124.288C203.483 124.288 202.475 124.032 201.579 123.52C200.683 123.008 199.971 122.288 199.443 121.36C198.931 120.416 198.675 119.312 198.675 118.048C198.675 116.784 198.939 115.688 199.467 114.76C199.995 113.816 200.707 113.088 201.603 112.576C202.515 112.064 203.531 111.808 204.651 111.808C205.771 111.808 206.779 112.064 207.675 112.576C208.571 113.088 209.275 113.816 209.787 114.76C210.315 115.688 210.579 116.784 210.579 118.048C210.579 119.312 210.315 120.416 209.787 121.36C209.259 122.288 208.539 123.008 207.627 123.52C206.731 124.032 205.723 124.288 204.603 124.288ZM204.603 122.56C205.291 122.56 205.931 122.392 206.523 122.056C207.115 121.72 207.595 121.216 207.963 120.544C208.331 119.872 208.515 119.04 208.515 118.048C208.515 117.056 208.331 116.224 207.963 115.552C207.611 114.88 207.139 114.376 206.547 114.04C205.955 113.704 205.323 113.536 204.651 113.536C203.963 113.536 203.323 113.704 202.731 114.04C202.139 114.376 201.659 114.88 201.291 115.552C200.923 116.224 200.739 117.056 200.739 118.048C200.739 119.04 200.923 119.872 201.291 120.544C201.659 121.216 202.131 121.72 202.707 122.056C203.299 122.392 203.931 122.56 204.603 122.56ZM213.383 124V112.096H215.207L215.351 113.824C215.735 113.184 216.247 112.688 216.887 112.336C217.527 111.984 218.247 111.808 219.047 111.808C219.991 111.808 220.799 112 221.471 112.384C222.159 112.768 222.687 113.352 223.055 114.136C223.471 113.416 224.039 112.848 224.759 112.432C225.495 112.016 226.287 111.808 227.135 111.808C228.559 111.808 229.695 112.24 230.543 113.104C231.391 113.952 231.815 115.264 231.815 117.04V124H229.823V117.256C229.823 116.024 229.575 115.096 229.079 114.472C228.583 113.848 227.871 113.536 226.943 113.536C225.983 113.536 225.183 113.912 224.543 114.664C223.919 115.4 223.607 116.456 223.607 117.832V124H221.591V117.256C221.591 116.024 221.343 115.096 220.847 114.472C220.351 113.848 219.639 113.536 218.711 113.536C217.767 113.536 216.975 113.912 216.335 114.664C215.711 115.4 215.399 116.456 215.399 117.832V124H213.383ZM235.499 124V113.8H233.699V112.096H235.499V110.032C235.499 108.88 235.787 108.04 236.363 107.512C236.939 106.984 237.779 106.72 238.883 106.72H240.083V108.448H239.195C238.587 108.448 238.155 108.576 237.899 108.832C237.643 109.072 237.515 109.488 237.515 110.08V112.096H240.443V113.8H237.515V124H235.499ZM247.799 124.288C246.679 124.288 245.671 124.032 244.775 123.52C243.879 123.008 243.167 122.288 242.639 121.36C242.127 120.416 241.871 119.312 241.871 118.048C241.871 116.784 242.135 115.688 242.663 114.76C243.191 113.816 243.903 113.088 244.799 112.576C245.711 112.064 246.727 111.808 247.847 111.808C248.967 111.808 249.975 112.064 250.871 112.576C251.767 113.088 252.471 113.816 252.983 114.76C253.511 115.688 253.775 116.784 253.775 118.048C253.775 119.312 253.511 120.416 252.983 121.36C252.455 122.288 251.735 123.008 250.823 123.52C249.927 124.032 248.919 124.288 247.799 124.288ZM247.799 122.56C248.487 122.56 249.127 122.392 249.719 122.056C250.311 121.72 250.791 121.216 251.159 120.544C251.527 119.872 251.711 119.04 251.711 118.048C251.711 117.056 251.527 116.224 251.159 115.552C250.807 114.88 250.335 114.376 249.743 114.04C249.151 113.704 248.519 113.536 247.847 113.536C247.159 113.536 246.519 113.704 245.927 114.04C245.335 114.376 244.855 114.88 244.487 115.552C244.119 116.224 243.935 117.056 243.935 118.048C243.935 119.04 244.119 119.872 244.487 120.544C244.855 121.216 245.327 121.72 245.903 122.056C246.495 122.392 247.127 122.56 247.799 122.56ZM256.578 124V112.096H258.402L258.57 114.376C258.938 113.592 259.498 112.968 260.25 112.504C261.002 112.04 261.93 111.808 263.034 111.808V113.92H262.482C261.778 113.92 261.13 114.048 260.538 114.304C259.946 114.544 259.474 114.96 259.122 115.552C258.77 116.144 258.594 116.96 258.594 118V124H256.578ZM270.001 124C268.913 124 268.057 123.736 267.433 123.208C266.809 122.68 266.497 121.728 266.497 120.352V113.8H264.433V112.096H266.497L266.761 109.24H268.513V112.096H272.017V113.8H268.513V120.352C268.513 121.104 268.665 121.616 268.969 121.888C269.273 122.144 269.809 122.272 270.577 122.272H271.825V124H270.001ZM278.538 124.288C277.546 124.288 276.722 124.12 276.066 123.784C275.41 123.448 274.922 123 274.602 122.44C274.282 121.88 274.122 121.272 274.122 120.616C274.122 119.4 274.586 118.464 275.514 117.808C276.442 117.152 277.706 116.824 279.306 116.824H282.522V116.68C282.522 115.64 282.25 114.856 281.706 114.328C281.162 113.784 280.434 113.512 279.522 113.512C278.738 113.512 278.058 113.712 277.482 114.112C276.922 114.496 276.57 115.064 276.426 115.816H274.362C274.442 114.952 274.73 114.224 275.226 113.632C275.738 113.04 276.37 112.592 277.122 112.288C277.874 111.968 278.674 111.808 279.522 111.808C281.186 111.808 282.434 112.256 283.266 113.152C284.114 114.032 284.538 115.208 284.538 116.68V124H282.738L282.618 121.864C282.282 122.536 281.786 123.112 281.13 123.592C280.49 124.056 279.626 124.288 278.538 124.288ZM278.85 122.584C279.618 122.584 280.274 122.384 280.818 121.984C281.378 121.584 281.802 121.064 282.09 120.424C282.378 119.784 282.522 119.112 282.522 118.408V118.384H279.474C278.29 118.384 277.45 118.592 276.954 119.008C276.474 119.408 276.234 119.912 276.234 120.52C276.234 121.144 276.458 121.648 276.906 122.032C277.37 122.4 278.018 122.584 278.85 122.584ZM293.922 124.288C292.946 124.288 292.074 124.088 291.306 123.688C290.554 123.288 289.978 122.728 289.578 122.008L289.386 124H287.562V106.72H289.578V114.064C289.962 113.488 290.506 112.968 291.21 112.504C291.93 112.04 292.842 111.808 293.946 111.808C295.13 111.808 296.162 112.08 297.042 112.624C297.922 113.168 298.602 113.912 299.082 114.856C299.578 115.8 299.826 116.872 299.826 118.072C299.826 119.272 299.578 120.344 299.082 121.288C298.602 122.216 297.914 122.952 297.018 123.496C296.138 124.024 295.106 124.288 293.922 124.288ZM293.706 122.536C294.506 122.536 295.21 122.352 295.818 121.984C296.426 121.6 296.906 121.072 297.258 120.4C297.61 119.728 297.786 118.944 297.786 118.048C297.786 117.152 297.61 116.368 297.258 115.696C296.906 115.024 296.426 114.504 295.818 114.136C295.21 113.752 294.506 113.56 293.706 113.56C292.906 113.56 292.202 113.752 291.594 114.136C290.986 114.504 290.506 115.024 290.154 115.696C289.802 116.368 289.626 117.152 289.626 118.048C289.626 118.944 289.802 119.728 290.154 120.4C290.506 121.072 290.986 121.6 291.594 121.984C292.202 122.352 292.906 122.536 293.706 122.536ZM302.633 124V106.72H304.649V124H302.633ZM313.305 124.288C312.169 124.288 311.161 124.032 310.281 123.52C309.401 122.992 308.705 122.264 308.193 121.336C307.697 120.408 307.449 119.312 307.449 118.048C307.449 116.8 307.697 115.712 308.193 114.784C308.689 113.84 309.377 113.112 310.257 112.6C311.153 112.072 312.185 111.808 313.353 111.808C314.505 111.808 315.497 112.072 316.329 112.6C317.177 113.112 317.825 113.792 318.273 114.64C318.721 115.488 318.945 116.4 318.945 117.376C318.945 117.552 318.937 117.728 318.921 117.904C318.921 118.08 318.921 118.28 318.921 118.504H309.441C309.489 119.416 309.697 120.176 310.065 120.784C310.449 121.376 310.921 121.824 311.481 122.128C312.057 122.432 312.665 122.584 313.305 122.584C314.137 122.584 314.833 122.392 315.393 122.008C315.953 121.624 316.361 121.104 316.617 120.448H318.609C318.289 121.552 317.673 122.472 316.761 123.208C315.865 123.928 314.713 124.288 313.305 124.288ZM313.305 113.512C312.345 113.512 311.489 113.808 310.737 114.4C310.001 114.976 309.577 115.824 309.465 116.944H316.953C316.905 115.872 316.537 115.032 315.849 114.424C315.161 113.816 314.313 113.512 313.305 113.512ZM330.369 124L326.889 112.096H328.905L331.425 121.432L334.209 112.096H336.489L339.297 121.432L341.793 112.096H343.833L340.353 124H338.289L335.361 114.184L332.433 124H330.369ZM347.286 109.456C346.886 109.456 346.55 109.328 346.278 109.072C346.022 108.8 345.894 108.464 345.894 108.064C345.894 107.68 346.022 107.36 346.278 107.104C346.55 106.848 346.886 106.72 347.286 106.72C347.67 106.72 347.998 106.848 348.27 107.104C348.542 107.36 348.678 107.68 348.678 108.064C348.678 108.464 348.542 108.8 348.27 109.072C347.998 109.328 347.67 109.456 347.286 109.456ZM346.278 124V112.096H348.294V124H346.278ZM356.508 124C355.42 124 354.564 123.736 353.94 123.208C353.316 122.68 353.004 121.728 353.004 120.352V113.8H350.94V112.096H353.004L353.268 109.24H355.02V112.096H358.524V113.8H355.02V120.352C355.02 121.104 355.172 121.616 355.476 121.888C355.78 122.144 356.316 122.272 357.084 122.272H358.332V124H356.508ZM361.086 124V106.72H363.102V114.136C363.502 113.4 364.07 112.832 364.806 112.432C365.542 112.016 366.342 111.808 367.206 111.808C368.582 111.808 369.686 112.24 370.518 113.104C371.35 113.952 371.766 115.264 371.766 117.04V124H369.774V117.256C369.774 114.776 368.774 113.536 366.774 113.536C365.734 113.536 364.862 113.912 364.158 114.664C363.454 115.4 363.102 116.456 363.102 117.832V124H361.086ZM381.172 124V112.096H382.996L383.14 113.824C383.524 113.184 384.036 112.688 384.676 112.336C385.316 111.984 386.036 111.808 386.836 111.808C387.78 111.808 388.588 112 389.26 112.384C389.948 112.768 390.476 113.352 390.844 114.136C391.26 113.416 391.828 112.848 392.548 112.432C393.284 112.016 394.076 111.808 394.924 111.808C396.348 111.808 397.484 112.24 398.332 113.104C399.18 113.952 399.604 115.264 399.604 117.04V124H397.612V117.256C397.612 116.024 397.364 115.096 396.868 114.472C396.372 113.848 395.66 113.536 394.732 113.536C393.772 113.536 392.972 113.912 392.332 114.664C391.708 115.4 391.396 116.456 391.396 117.832V124H389.38V117.256C389.38 116.024 389.132 115.096 388.636 114.472C388.14 113.848 387.428 113.536 386.5 113.536C385.556 113.536 384.764 113.912 384.124 114.664C383.5 115.4 383.188 116.456 383.188 117.832V124H381.172ZM406.6 124.288C405.608 124.288 404.784 124.12 404.128 123.784C403.472 123.448 402.984 123 402.664 122.44C402.344 121.88 402.184 121.272 402.184 120.616C402.184 119.4 402.648 118.464 403.576 117.808C404.504 117.152 405.768 116.824 407.368 116.824H410.584V116.68C410.584 115.64 410.312 114.856 409.768 114.328C409.224 113.784 408.496 113.512 407.584 113.512C406.8 113.512 406.12 113.712 405.544 114.112C404.984 114.496 404.632 115.064 404.488 115.816H402.424C402.504 114.952 402.792 114.224 403.288 113.632C403.8 113.04 404.432 112.592 405.184 112.288C405.936 111.968 406.736 111.808 407.584 111.808C409.248 111.808 410.496 112.256 411.328 113.152C412.176 114.032 412.6 115.208 412.6 116.68V124H410.8L410.68 121.864C410.344 122.536 409.848 123.112 409.192 123.592C408.552 124.056 407.688 124.288 406.6 124.288ZM406.912 122.584C407.68 122.584 408.336 122.384 408.88 121.984C409.44 121.584 409.864 121.064 410.152 120.424C410.44 119.784 410.584 119.112 410.584 118.408V118.384H407.536C406.352 118.384 405.512 118.592 405.016 119.008C404.536 119.408 404.296 119.912 404.296 120.52C404.296 121.144 404.52 121.648 404.968 122.032C405.432 122.4 406.08 122.584 406.912 122.584ZM415.625 124V106.72H417.641V117.112L422.513 112.096H424.985L419.705 117.472L425.657 124H423.089L417.641 117.832V124H415.625ZM432.203 124.288C431.067 124.288 430.059 124.032 429.179 123.52C428.299 122.992 427.603 122.264 427.091 121.336C426.595 120.408 426.347 119.312 426.347 118.048C426.347 116.8 426.595 115.712 427.091 114.784C427.587 113.84 428.275 113.112 429.155 112.6C430.051 112.072 431.083 111.808 432.251 111.808C433.403 111.808 434.395 112.072 435.227 112.6C436.075 113.112 436.723 113.792 437.171 114.64C437.619 115.488 437.843 116.4 437.843 117.376C437.843 117.552 437.835 117.728 437.819 117.904C437.819 118.08 437.819 118.28 437.819 118.504H428.339C428.387 119.416 428.595 120.176 428.963 120.784C429.347 121.376 429.819 121.824 430.379 122.128C430.955 122.432 431.563 122.584 432.203 122.584C433.035 122.584 433.731 122.392 434.291 122.008C434.851 121.624 435.259 121.104 435.515 120.448H437.507C437.187 121.552 436.571 122.472 435.659 123.208C434.763 123.928 433.611 124.288 432.203 124.288ZM432.203 113.512C431.243 113.512 430.387 113.808 429.635 114.4C428.899 114.976 428.475 115.824 428.363 116.944H435.851C435.803 115.872 435.435 115.032 434.747 114.424C434.059 113.816 433.211 113.512 432.203 113.512ZM444.859 124.288C443.451 124.288 442.331 123.864 441.499 123.016C440.667 122.152 440.251 120.832 440.251 119.056V112.096H442.267V118.84C442.267 121.32 443.283 122.56 445.315 122.56C446.355 122.56 447.211 122.192 447.883 121.456C448.571 120.704 448.915 119.64 448.915 118.264V112.096H450.931V124H449.107L448.963 121.864C448.595 122.616 448.043 123.208 447.307 123.64C446.587 124.072 445.771 124.288 444.859 124.288ZM454.25 129.28V112.096H456.074L456.266 114.064C456.65 113.488 457.194 112.968 457.898 112.504C458.618 112.04 459.53 111.808 460.634 111.808C461.818 111.808 462.85 112.08 463.73 112.624C464.61 113.168 465.29 113.912 465.77 114.856C466.266 115.8 466.514 116.872 466.514 118.072C466.514 119.272 466.266 120.344 465.77 121.288C465.29 122.216 464.602 122.952 463.706 123.496C462.826 124.024 461.794 124.288 460.61 124.288C459.634 124.288 458.762 124.088 457.994 123.688C457.242 123.288 456.666 122.728 456.266 122.008V129.28H454.25ZM460.394 122.536C461.194 122.536 461.898 122.352 462.506 121.984C463.114 121.6 463.594 121.072 463.946 120.4C464.298 119.728 464.474 118.944 464.474 118.048C464.474 117.152 464.298 116.368 463.946 115.696C463.594 115.024 463.114 114.504 462.506 114.136C461.898 113.752 461.194 113.56 460.394 113.56C459.594 113.56 458.89 113.752 458.282 114.136C457.674 114.504 457.194 115.024 456.842 115.696C456.49 116.368 456.314 117.152 456.314 118.048C456.314 118.944 456.49 119.728 456.842 120.4C457.194 121.072 457.674 121.6 458.282 121.984C458.89 122.352 459.594 122.536 460.394 122.536ZM467.712 126.856L469.104 121.552H471.192L469.104 126.856H467.712ZM486.297 124.288C485.321 124.288 484.449 124.088 483.681 123.688C482.929 123.288 482.353 122.728 481.953 122.008L481.761 124H479.937V106.72H481.953V114.064C482.337 113.488 482.881 112.968 483.585 112.504C484.305 112.04 485.217 111.808 486.321 111.808C487.505 111.808 488.537 112.08 489.417 112.624C490.297 113.168 490.977 113.912 491.457 114.856C491.953 115.8 492.201 116.872 492.201 118.072C492.201 119.272 491.953 120.344 491.457 121.288C490.977 122.216 490.289 122.952 489.393 123.496C488.513 124.024 487.481 124.288 486.297 124.288ZM486.081 122.536C486.881 122.536 487.585 122.352 488.193 121.984C488.801 121.6 489.281 121.072 489.633 120.4C489.985 119.728 490.161 118.944 490.161 118.048C490.161 117.152 489.985 116.368 489.633 115.696C489.281 115.024 488.801 114.504 488.193 114.136C487.585 113.752 486.881 113.56 486.081 113.56C485.281 113.56 484.577 113.752 483.969 114.136C483.361 114.504 482.881 115.024 482.529 115.696C482.177 116.368 482.001 117.152 482.001 118.048C482.001 118.944 482.177 119.728 482.529 120.4C482.881 121.072 483.361 121.6 483.969 121.984C484.577 122.352 485.281 122.536 486.081 122.536ZM499.352 124.288C497.944 124.288 496.824 123.864 495.992 123.016C495.16 122.152 494.744 120.832 494.744 119.056V112.096H496.76V118.84C496.76 121.32 497.776 122.56 499.808 122.56C500.848 122.56 501.704 122.192 502.376 121.456C503.064 120.704 503.408 119.64 503.408 118.264V112.096H505.424V124H503.6L503.456 121.864C503.088 122.616 502.536 123.208 501.8 123.64C501.08 124.072 500.264 124.288 499.352 124.288ZM513.446 124C512.358 124 511.502 123.736 510.878 123.208C510.254 122.68 509.942 121.728 509.942 120.352V113.8H507.878V112.096H509.942L510.206 109.24H511.958V112.096H515.462V113.8H511.958V120.352C511.958 121.104 512.11 121.616 512.414 121.888C512.718 122.144 513.254 122.272 514.022 122.272H515.27V124H513.446ZM524.495 124V107.2H526.511V124H524.495ZM538.704 124L535.224 112.096H537.24L539.76 121.432L542.544 112.096H544.824L547.632 121.432L550.128 112.096H552.168L548.688 124H546.624L543.696 114.184L540.768 124H538.704ZM557.936 124.288C556.944 124.288 556.12 124.12 555.464 123.784C554.808 123.448 554.32 123 554 122.44C553.68 121.88 553.52 121.272 553.52 120.616C553.52 119.4 553.984 118.464 554.912 117.808C555.84 117.152 557.104 116.824 558.704 116.824H561.92V116.68C561.92 115.64 561.648 114.856 561.104 114.328C560.56 113.784 559.832 113.512 558.92 113.512C558.136 113.512 557.456 113.712 556.88 114.112C556.32 114.496 555.968 115.064 555.824 115.816H553.76C553.84 114.952 554.128 114.224 554.624 113.632C555.136 113.04 555.768 112.592 556.52 112.288C557.272 111.968 558.072 111.808 558.92 111.808C560.584 111.808 561.832 112.256 562.664 113.152C563.512 114.032 563.936 115.208 563.936 116.68V124H562.136L562.016 121.864C561.68 122.536 561.184 123.112 560.528 123.592C559.888 124.056 559.024 124.288 557.936 124.288ZM558.248 122.584C559.016 122.584 559.672 122.384 560.216 121.984C560.776 121.584 561.2 121.064 561.488 120.424C561.776 119.784 561.92 119.112 561.92 118.408V118.384H558.872C557.688 118.384 556.848 118.592 556.352 119.008C555.872 119.408 555.632 119.912 555.632 120.52C555.632 121.144 555.856 121.648 556.304 122.032C556.768 122.4 557.416 122.584 558.248 122.584ZM566.961 124V112.096H568.785L568.905 114.232C569.289 113.48 569.841 112.888 570.561 112.456C571.281 112.024 572.097 111.808 573.009 111.808C574.417 111.808 575.537 112.24 576.369 113.104C577.217 113.952 577.641 115.264 577.641 117.04V124H575.625V117.256C575.625 114.776 574.601 113.536 572.553 113.536C571.529 113.536 570.673 113.912 569.985 114.664C569.313 115.4 568.977 116.456 568.977 117.832V124H566.961ZM585.399 124C584.311 124 583.455 123.736 582.831 123.208C582.207 122.68 581.895 121.728 581.895 120.352V113.8H579.831V112.096H581.895L582.159 109.24H583.911V112.096H587.415V113.8H583.911V120.352C583.911 121.104 584.063 121.616 584.367 121.888C584.671 122.144 585.207 122.272 585.975 122.272H587.223V124H585.399ZM601.032 124C599.944 124 599.088 123.736 598.464 123.208C597.84 122.68 597.528 121.728 597.528 120.352V113.8H595.464V112.096H597.528L597.792 109.24H599.544V112.096H603.048V113.8H599.544V120.352C599.544 121.104 599.696 121.616 600 121.888C600.304 122.144 600.84 122.272 601.608 122.272H602.856V124H601.032ZM610.705 124.288C609.585 124.288 608.577 124.032 607.681 123.52C606.785 123.008 606.073 122.288 605.545 121.36C605.033 120.416 604.777 119.312 604.777 118.048C604.777 116.784 605.041 115.688 605.569 114.76C606.097 113.816 606.809 113.088 607.705 112.576C608.617 112.064 609.633 111.808 610.753 111.808C611.873 111.808 612.881 112.064 613.777 112.576C614.673 113.088 615.377 113.816 615.889 114.76C616.417 115.688 616.681 116.784 616.681 118.048C616.681 119.312 616.417 120.416 615.889 121.36C615.361 122.288 614.641 123.008 613.729 123.52C612.833 124.032 611.825 124.288 610.705 124.288ZM610.705 122.56C611.393 122.56 612.033 122.392 612.625 122.056C613.217 121.72 613.697 121.216 614.065 120.544C614.433 119.872 614.617 119.04 614.617 118.048C614.617 117.056 614.433 116.224 614.065 115.552C613.713 114.88 613.241 114.376 612.649 114.04C612.057 113.704 611.425 113.536 610.753 113.536C610.065 113.536 609.425 113.704 608.833 114.04C608.241 114.376 607.761 114.88 607.393 115.552C607.025 116.224 606.841 117.056 606.841 118.048C606.841 119.04 607.025 119.872 607.393 120.544C607.761 121.216 608.233 121.72 608.809 122.056C609.401 122.392 610.033 122.56 610.705 122.56ZM631.188 124.288C630.052 124.288 629.044 124.032 628.164 123.52C627.284 122.992 626.588 122.264 626.076 121.336C625.58 120.408 625.332 119.312 625.332 118.048C625.332 116.8 625.58 115.712 626.076 114.784C626.572 113.84 627.26 113.112 628.14 112.6C629.036 112.072 630.068 111.808 631.236 111.808C632.388 111.808 633.38 112.072 634.212 112.6C635.06 113.112 635.708 113.792 636.156 114.64C636.604 115.488 636.828 116.4 636.828 117.376C636.828 117.552 636.82 117.728 636.804 117.904C636.804 118.08 636.804 118.28 636.804 118.504H627.324C627.372 119.416 627.58 120.176 627.948 120.784C628.332 121.376 628.804 121.824 629.364 122.128C629.94 122.432 630.548 122.584 631.188 122.584C632.02 122.584 632.716 122.392 633.276 122.008C633.836 121.624 634.244 121.104 634.5 120.448H636.492C636.172 121.552 635.556 122.472 634.644 123.208C633.748 123.928 632.596 124.288 631.188 124.288ZM631.188 113.512C630.228 113.512 629.372 113.808 628.62 114.4C627.884 114.976 627.46 115.824 627.348 116.944H634.836C634.788 115.872 634.42 115.032 633.732 114.424C633.044 113.816 632.196 113.512 631.188 113.512ZM637.737 124L641.865 118.048L637.737 112.096H639.921L643.257 117.016L646.617 112.096H648.777L644.649 118.048L648.777 124H646.617L643.257 119.08L639.921 124H637.737ZM650.89 129.28V112.096H652.714L652.906 114.064C653.29 113.488 653.834 112.968 654.538 112.504C655.258 112.04 656.17 111.808 657.274 111.808C658.458 111.808 659.49 112.08 660.37 112.624C661.25 113.168 661.93 113.912 662.41 114.856C662.906 115.8 663.154 116.872 663.154 118.072C663.154 119.272 662.906 120.344 662.41 121.288C661.93 122.216 661.242 122.952 660.346 123.496C659.466 124.024 658.434 124.288 657.25 124.288C656.274 124.288 655.402 124.088 654.634 123.688C653.882 123.288 653.306 122.728 652.906 122.008V129.28H650.89ZM657.034 122.536C657.834 122.536 658.538 122.352 659.146 121.984C659.754 121.6 660.234 121.072 660.586 120.4C660.938 119.728 661.114 118.944 661.114 118.048C661.114 117.152 660.938 116.368 660.586 115.696C660.234 115.024 659.754 114.504 659.146 114.136C658.538 113.752 657.834 113.56 657.034 113.56C656.234 113.56 655.53 113.752 654.922 114.136C654.314 114.504 653.834 115.024 653.482 115.696C653.13 116.368 652.954 117.152 652.954 118.048C652.954 118.944 653.13 119.728 653.482 120.4C653.834 121.072 654.314 121.6 654.922 121.984C655.53 122.352 656.234 122.536 657.034 122.536ZM665.961 124V106.72H667.977V124H665.961ZM676.705 124.288C675.585 124.288 674.577 124.032 673.681 123.52C672.785 123.008 672.073 122.288 671.545 121.36C671.033 120.416 670.777 119.312 670.777 118.048C670.777 116.784 671.041 115.688 671.569 114.76C672.097 113.816 672.809 113.088 673.705 112.576C674.617 112.064 675.633 111.808 676.753 111.808C677.873 111.808 678.881 112.064 679.777 112.576C680.673 113.088 681.377 113.816 681.889 114.76C682.417 115.688 682.681 116.784 682.681 118.048C682.681 119.312 682.417 120.416 681.889 121.36C681.361 122.288 680.641 123.008 679.729 123.52C678.833 124.032 677.825 124.288 676.705 124.288ZM676.705 122.56C677.393 122.56 678.033 122.392 678.625 122.056C679.217 121.72 679.697 121.216 680.065 120.544C680.433 119.872 680.617 119.04 680.617 118.048C680.617 117.056 680.433 116.224 680.065 115.552C679.713 114.88 679.241 114.376 678.649 114.04C678.057 113.704 677.425 113.536 676.753 113.536C676.065 113.536 675.425 113.704 674.833 114.04C674.241 114.376 673.761 114.88 673.393 115.552C673.025 116.224 672.841 117.056 672.841 118.048C672.841 119.04 673.025 119.872 673.393 120.544C673.761 121.216 674.233 121.72 674.809 122.056C675.401 122.392 676.033 122.56 676.705 122.56ZM685.484 124V112.096H687.308L687.476 114.376C687.844 113.592 688.404 112.968 689.156 112.504C689.908 112.04 690.836 111.808 691.94 111.808V113.92H691.388C690.684 113.92 690.036 114.048 689.444 114.304C688.852 114.544 688.38 114.96 688.028 115.552C687.676 116.144 687.5 116.96 687.5 118V124H685.484ZM699.11 124.288C697.974 124.288 696.966 124.032 696.086 123.52C695.206 122.992 694.51 122.264 693.998 121.336C693.502 120.408 693.254 119.312 693.254 118.048C693.254 116.8 693.502 115.712 693.998 114.784C694.494 113.84 695.182 113.112 696.062 112.6C696.958 112.072 697.99 111.808 699.158 111.808C700.31 111.808 701.302 112.072 702.134 112.6C702.982 113.112 703.63 113.792 704.078 114.64C704.526 115.488 704.75 116.4 704.75 117.376C704.75 117.552 704.742 117.728 704.726 117.904C704.726 118.08 704.726 118.28 704.726 118.504H695.246C695.294 119.416 695.502 120.176 695.87 120.784C696.254 121.376 696.726 121.824 697.286 122.128C697.862 122.432 698.47 122.584 699.11 122.584C699.942 122.584 700.638 122.392 701.198 122.008C701.758 121.624 702.166 121.104 702.422 120.448H704.414C704.094 121.552 703.478 122.472 702.566 123.208C701.67 123.928 700.518 124.288 699.11 124.288ZM699.11 113.512C698.15 113.512 697.294 113.808 696.542 114.4C695.806 114.976 695.382 115.824 695.27 116.944H702.758C702.71 115.872 702.342 115.032 701.654 114.424C700.966 113.816 700.118 113.512 699.11 113.512ZM717.733 124.288C716.741 124.288 715.917 124.12 715.261 123.784C714.605 123.448 714.117 123 713.797 122.44C713.477 121.88 713.317 121.272 713.317 120.616C713.317 119.4 713.781 118.464 714.709 117.808C715.637 117.152 716.901 116.824 718.501 116.824H721.717V116.68C721.717 115.64 721.445 114.856 720.901 114.328C720.357 113.784 719.629 113.512 718.717 113.512C717.933 113.512 717.253 113.712 716.677 114.112C716.117 114.496 715.765 115.064 715.621 115.816H713.557C713.637 114.952 713.925 114.224 714.421 113.632C714.933 113.04 715.565 112.592 716.317 112.288C717.069 111.968 717.869 111.808 718.717 111.808C720.381 111.808 721.629 112.256 722.461 113.152C723.309 114.032 723.733 115.208 723.733 116.68V124H721.933L721.813 121.864C721.477 122.536 720.981 123.112 720.325 123.592C719.685 124.056 718.821 124.288 717.733 124.288ZM718.045 122.584C718.813 122.584 719.469 122.384 720.013 121.984C720.573 121.584 720.997 121.064 721.285 120.424C721.573 119.784 721.717 119.112 721.717 118.408V118.384H718.669C717.485 118.384 716.645 118.592 716.149 119.008C715.669 119.408 715.429 119.912 715.429 120.52C715.429 121.144 715.653 121.648 716.101 122.032C716.565 122.4 717.213 122.584 718.045 122.584ZM732.158 124.288C730.974 124.288 729.934 124.016 729.038 123.472C728.158 122.928 727.47 122.184 726.974 121.24C726.494 120.296 726.254 119.224 726.254 118.024C726.254 116.824 726.502 115.76 726.998 114.832C727.494 113.888 728.182 113.152 729.062 112.624C729.942 112.08 730.982 111.808 732.182 111.808C733.158 111.808 734.022 112.008 734.774 112.408C735.526 112.808 736.11 113.368 736.526 114.088V106.72H738.542V124H736.718L736.526 122.032C736.142 122.608 735.59 123.128 734.87 123.592C734.15 124.056 733.246 124.288 732.158 124.288ZM732.374 122.536C733.174 122.536 733.878 122.352 734.486 121.984C735.11 121.6 735.59 121.072 735.926 120.4C736.278 119.728 736.454 118.944 736.454 118.048C736.454 117.152 736.278 116.368 735.926 115.696C735.59 115.024 735.11 114.504 734.486 114.136C733.878 113.752 733.174 113.56 732.374 113.56C731.59 113.56 730.886 113.752 730.262 114.136C729.654 114.504 729.174 115.024 728.822 115.696C728.486 116.368 728.318 117.152 728.318 118.048C728.318 118.944 728.486 119.728 728.822 120.4C729.174 121.072 729.654 121.6 730.262 121.984C730.886 122.352 731.59 122.536 732.374 122.536ZM745.26 124L740.748 112.096H742.86L746.436 122.056L750.036 112.096H752.1L747.588 124H745.26ZM759.086 124.288C757.95 124.288 756.942 124.032 756.062 123.52C755.182 122.992 754.486 122.264 753.974 121.336C753.478 120.408 753.23 119.312 753.23 118.048C753.23 116.8 753.478 115.712 753.974 114.784C754.47 113.84 755.158 113.112 756.038 112.6C756.934 112.072 757.966 111.808 759.134 111.808C760.286 111.808 761.278 112.072 762.11 112.6C762.958 113.112 763.606 113.792 764.054 114.64C764.502 115.488 764.726 116.4 764.726 117.376C764.726 117.552 764.718 117.728 764.702 117.904C764.702 118.08 764.702 118.28 764.702 118.504H755.222C755.27 119.416 755.478 120.176 755.846 120.784C756.23 121.376 756.702 121.824 757.262 122.128C757.838 122.432 758.446 122.584 759.086 122.584C759.918 122.584 760.614 122.392 761.174 122.008C761.734 121.624 762.142 121.104 762.398 120.448H764.39C764.07 121.552 763.454 122.472 762.542 123.208C761.646 123.928 760.494 124.288 759.086 124.288ZM759.086 113.512C758.126 113.512 757.27 113.808 756.518 114.4C755.782 114.976 755.358 115.824 755.246 116.944H762.734C762.686 115.872 762.318 115.032 761.63 114.424C760.942 113.816 760.094 113.512 759.086 113.512ZM767.398 124V112.096H769.222L769.342 114.232C769.726 113.48 770.278 112.888 770.998 112.456C771.718 112.024 772.534 111.808 773.446 111.808C774.854 111.808 775.974 112.24 776.806 113.104C777.654 113.952 778.078 115.264 778.078 117.04V124H776.062V117.256C776.062 114.776 775.038 113.536 772.99 113.536C771.966 113.536 771.11 113.912 770.422 114.664C769.75 115.4 769.414 116.456 769.414 117.832V124H767.398ZM785.837 124C784.749 124 783.893 123.736 783.269 123.208C782.645 122.68 782.333 121.728 782.333 120.352V113.8H780.269V112.096H782.333L782.597 109.24H784.349V112.096H787.853V113.8H784.349V120.352C784.349 121.104 784.501 121.616 784.805 121.888C785.109 122.144 785.645 122.272 786.413 122.272H787.661V124H785.837ZM794.758 124.288C793.35 124.288 792.23 123.864 791.398 123.016C790.566 122.152 790.15 120.832 790.15 119.056V112.096H792.166V118.84C792.166 121.32 793.182 122.56 795.214 122.56C796.254 122.56 797.11 122.192 797.782 121.456C798.47 120.704 798.814 119.64 798.814 118.264V112.096H800.83V124H799.006L798.862 121.864C798.494 122.616 797.942 123.208 797.206 123.64C796.486 124.072 795.67 124.288 794.758 124.288ZM804.148 124V112.096H805.972L806.14 114.376C806.508 113.592 807.068 112.968 807.82 112.504C808.572 112.04 809.5 111.808 810.604 111.808V113.92H810.052C809.348 113.92 808.7 114.048 808.108 114.304C807.516 114.544 807.044 114.96 806.692 115.552C806.34 116.144 806.164 116.96 806.164 118V124H804.148ZM817.846 124.288C816.726 124.288 815.718 124.032 814.822 123.52C813.926 123.008 813.214 122.288 812.686 121.36C812.174 120.416 811.918 119.312 811.918 118.048C811.918 116.784 812.182 115.688 812.71 114.76C813.238 113.816 813.95 113.088 814.846 112.576C815.758 112.064 816.774 111.808 817.894 111.808C819.014 111.808 820.022 112.064 820.918 112.576C821.814 113.088 822.518 113.816 823.03 114.76C823.558 115.688 823.822 116.784 823.822 118.048C823.822 119.312 823.558 120.416 823.03 121.36C822.502 122.288 821.782 123.008 820.87 123.52C819.974 124.032 818.966 124.288 817.846 124.288ZM817.846 122.56C818.534 122.56 819.174 122.392 819.766 122.056C820.358 121.72 820.838 121.216 821.206 120.544C821.574 119.872 821.758 119.04 821.758 118.048C821.758 117.056 821.574 116.224 821.206 115.552C820.854 114.88 820.382 114.376 819.79 114.04C819.198 113.704 818.566 113.536 817.894 113.536C817.206 113.536 816.566 113.704 815.974 114.04C815.382 114.376 814.902 114.88 814.534 115.552C814.166 116.224 813.982 117.056 813.982 118.048C813.982 119.04 814.166 119.872 814.534 120.544C814.902 121.216 815.374 121.72 815.95 122.056C816.542 122.392 817.174 122.56 817.846 122.56ZM830.969 124.288C829.561 124.288 828.441 123.864 827.609 123.016C826.777 122.152 826.361 120.832 826.361 119.056V112.096H828.377V118.84C828.377 121.32 829.393 122.56 831.425 122.56C832.465 122.56 833.321 122.192 833.993 121.456C834.681 120.704 835.025 119.64 835.025 118.264V112.096H837.041V124H835.217L835.073 121.864C834.705 122.616 834.153 123.208 833.417 123.64C832.697 124.072 831.881 124.288 830.969 124.288ZM844.919 124.288C843.495 124.288 842.311 123.928 841.367 123.208C840.423 122.488 839.871 121.512 839.711 120.28H841.775C841.903 120.904 842.231 121.448 842.759 121.912C843.303 122.36 844.031 122.584 844.943 122.584C845.791 122.584 846.415 122.408 846.815 122.056C847.215 121.688 847.415 121.256 847.415 120.76C847.415 120.04 847.151 119.56 846.623 119.32C846.111 119.08 845.383 118.864 844.439 118.672C843.799 118.544 843.159 118.36 842.519 118.12C841.879 117.88 841.343 117.544 840.911 117.112C840.479 116.664 840.263 116.08 840.263 115.36C840.263 114.32 840.647 113.472 841.415 112.816C842.199 112.144 843.255 111.808 844.583 111.808C845.847 111.808 846.879 112.128 847.679 112.768C848.495 113.392 848.967 114.288 849.095 115.456H847.103C847.023 114.848 846.759 114.376 846.311 114.04C845.879 113.688 845.295 113.512 844.559 113.512C843.839 113.512 843.279 113.664 842.879 113.968C842.495 114.272 842.303 114.672 842.303 115.168C842.303 115.648 842.551 116.024 843.047 116.296C843.559 116.568 844.247 116.8 845.111 116.992C845.847 117.152 846.543 117.352 847.199 117.592C847.871 117.816 848.415 118.16 848.831 118.624C849.263 119.072 849.479 119.728 849.479 120.592C849.495 121.664 849.087 122.552 848.255 123.256C847.439 123.944 846.327 124.288 844.919 124.288ZM864.063 124.288C862.927 124.288 861.919 124.032 861.039 123.52C860.159 122.992 859.463 122.264 858.951 121.336C858.455 120.408 858.207 119.312 858.207 118.048C858.207 116.8 858.455 115.712 858.951 114.784C859.447 113.84 860.135 113.112 861.015 112.6C861.911 112.072 862.943 111.808 864.111 111.808C865.263 111.808 866.255 112.072 867.087 112.6C867.935 113.112 868.583 113.792 869.031 114.64C869.479 115.488 869.703 116.4 869.703 117.376C869.703 117.552 869.695 117.728 869.679 117.904C869.679 118.08 869.679 118.28 869.679 118.504H860.199C860.247 119.416 860.455 120.176 860.823 120.784C861.207 121.376 861.679 121.824 862.239 122.128C862.815 122.432 863.423 122.584 864.063 122.584C864.895 122.584 865.591 122.392 866.151 122.008C866.711 121.624 867.119 121.104 867.375 120.448H869.367C869.047 121.552 868.431 122.472 867.519 123.208C866.623 123.928 865.471 124.288 864.063 124.288ZM864.063 113.512C863.103 113.512 862.247 113.808 861.495 114.4C860.759 114.976 860.335 115.824 860.223 116.944H867.711C867.663 115.872 867.295 115.032 866.607 114.424C865.919 113.816 865.071 113.512 864.063 113.512ZM873.202 129.28L876.154 122.848H875.458L870.73 112.096H872.914L876.85 121.36L881.026 112.096H883.114L875.314 129.28H873.202ZM889.469 124.288C888.333 124.288 887.325 124.032 886.445 123.52C885.565 122.992 884.869 122.264 884.357 121.336C883.861 120.408 883.613 119.312 883.613 118.048C883.613 116.8 883.861 115.712 884.357 114.784C884.853 113.84 885.541 113.112 886.421 112.6C887.317 112.072 888.349 111.808 889.517 111.808C890.669 111.808 891.661 112.072 892.493 112.6C893.341 113.112 893.989 113.792 894.437 114.64C894.885 115.488 895.109 116.4 895.109 117.376C895.109 117.552 895.101 117.728 895.085 117.904C895.085 118.08 895.085 118.28 895.085 118.504H885.605C885.653 119.416 885.861 120.176 886.229 120.784C886.613 121.376 887.085 121.824 887.645 122.128C888.221 122.432 888.829 122.584 889.469 122.584C890.301 122.584 890.997 122.392 891.557 122.008C892.117 121.624 892.525 121.104 892.781 120.448H894.773C894.453 121.552 893.837 122.472 892.925 123.208C892.029 123.928 890.877 124.288 889.469 124.288ZM889.469 113.512C888.509 113.512 887.653 113.808 886.901 114.4C886.165 114.976 885.741 115.824 885.629 116.944H893.117C893.069 115.872 892.701 115.032 892.013 114.424C891.325 113.816 890.477 113.512 889.469 113.512ZM902.341 124.288C900.917 124.288 899.733 123.928 898.789 123.208C897.845 122.488 897.293 121.512 897.133 120.28H899.197C899.325 120.904 899.653 121.448 900.181 121.912C900.725 122.36 901.453 122.584 902.365 122.584C903.213 122.584 903.837 122.408 904.237 122.056C904.637 121.688 904.837 121.256 904.837 120.76C904.837 120.04 904.573 119.56 904.045 119.32C903.533 119.08 902.805 118.864 901.861 118.672C901.221 118.544 900.581 118.36 899.941 118.12C899.301 117.88 898.765 117.544 898.333 117.112C897.901 116.664 897.685 116.08 897.685 115.36C897.685 114.32 898.069 113.472 898.837 112.816C899.621 112.144 900.677 111.808 902.005 111.808C903.269 111.808 904.301 112.128 905.101 112.768C905.917 113.392 906.389 114.288 906.517 115.456H904.525C904.445 114.848 904.181 114.376 903.733 114.04C903.301 113.688 902.717 113.512 901.981 113.512C901.261 113.512 900.701 113.664 900.301 113.968C899.917 114.272 899.725 114.672 899.725 115.168C899.725 115.648 899.973 116.024 900.469 116.296C900.981 116.568 901.669 116.8 902.533 116.992C903.269 117.152 903.965 117.352 904.621 117.592C905.293 117.816 905.837 118.16 906.253 118.624C906.685 119.072 906.901 119.728 906.901 120.592C906.917 121.664 906.509 122.552 905.677 123.256C904.861 123.944 903.749 124.288 902.341 124.288ZM909.781 124V106.72H911.797V114.136C912.197 113.4 912.765 112.832 913.501 112.432C914.237 112.016 915.037 111.808 915.901 111.808C917.277 111.808 918.381 112.24 919.213 113.104C920.045 113.952 920.461 115.264 920.461 117.04V124H918.469V117.256C918.469 114.776 917.469 113.536 915.469 113.536C914.429 113.536 913.557 113.912 912.853 114.664C912.149 115.4 911.797 116.456 911.797 117.832V124H909.781ZM927.475 124.288C926.483 124.288 925.659 124.12 925.003 123.784C924.347 123.448 923.859 123 923.539 122.44C923.219 121.88 923.059 121.272 923.059 120.616C923.059 119.4 923.523 118.464 924.451 117.808C925.379 117.152 926.643 116.824 928.243 116.824H931.459V116.68C931.459 115.64 931.187 114.856 930.643 114.328C930.099 113.784 929.371 113.512 928.459 113.512C927.675 113.512 926.995 113.712 926.419 114.112C925.859 114.496 925.507 115.064 925.363 115.816H923.299C923.379 114.952 923.667 114.224 924.163 113.632C924.675 113.04 925.307 112.592 926.059 112.288C926.811 111.968 927.611 111.808 928.459 111.808C930.123 111.808 931.371 112.256 932.203 113.152C933.051 114.032 933.475 115.208 933.475 116.68V124H931.675L931.555 121.864C931.219 122.536 930.723 123.112 930.067 123.592C929.427 124.056 928.563 124.288 927.475 124.288ZM927.787 122.584C928.555 122.584 929.211 122.384 929.755 121.984C930.315 121.584 930.739 121.064 931.027 120.424C931.315 119.784 931.459 119.112 931.459 118.408V118.384H928.411C927.227 118.384 926.387 118.592 925.891 119.008C925.411 119.408 925.171 119.912 925.171 120.52C925.171 121.144 925.395 121.648 925.843 122.032C926.307 122.4 926.955 122.584 927.787 122.584ZM941.9 124.288C940.716 124.288 939.676 124.016 938.78 123.472C937.9 122.928 937.212 122.184 936.716 121.24C936.236 120.296 935.996 119.224 935.996 118.024C935.996 116.824 936.244 115.76 936.74 114.832C937.236 113.888 937.924 113.152 938.804 112.624C939.684 112.08 940.724 111.808 941.924 111.808C942.9 111.808 943.764 112.008 944.516 112.408C945.268 112.808 945.852 113.368 946.268 114.088V106.72H948.284V124H946.46L946.268 122.032C945.884 122.608 945.332 123.128 944.612 123.592C943.892 124.056 942.988 124.288 941.9 124.288ZM942.116 122.536C942.916 122.536 943.62 122.352 944.228 121.984C944.852 121.6 945.332 121.072 945.668 120.4C946.02 119.728 946.196 118.944 946.196 118.048C946.196 117.152 946.02 116.368 945.668 115.696C945.332 115.024 944.852 114.504 944.228 114.136C943.62 113.752 942.916 113.56 942.116 113.56C941.332 113.56 940.628 113.752 940.004 114.136C939.396 114.504 938.916 115.024 938.564 115.696C938.228 116.368 938.06 117.152 938.06 118.048C938.06 118.944 938.228 119.728 938.564 120.4C938.916 121.072 939.396 121.6 940.004 121.984C940.628 122.352 941.332 122.536 942.116 122.536ZM956.994 124.288C955.874 124.288 954.866 124.032 953.97 123.52C953.074 123.008 952.362 122.288 951.834 121.36C951.322 120.416 951.066 119.312 951.066 118.048C951.066 116.784 951.33 115.688 951.858 114.76C952.386 113.816 953.098 113.088 953.994 112.576C954.906 112.064 955.922 111.808 957.042 111.808C958.162 111.808 959.17 112.064 960.066 112.576C960.962 113.088 961.666 113.816 962.178 114.76C962.706 115.688 962.97 116.784 962.97 118.048C962.97 119.312 962.706 120.416 962.178 121.36C961.65 122.288 960.93 123.008 960.018 123.52C959.122 124.032 958.114 124.288 956.994 124.288ZM956.994 122.56C957.682 122.56 958.322 122.392 958.914 122.056C959.506 121.72 959.986 121.216 960.354 120.544C960.722 119.872 960.906 119.04 960.906 118.048C960.906 117.056 960.722 116.224 960.354 115.552C960.002 114.88 959.53 114.376 958.938 114.04C958.346 113.704 957.714 113.536 957.042 113.536C956.354 113.536 955.714 113.704 955.122 114.04C954.53 114.376 954.05 114.88 953.682 115.552C953.314 116.224 953.13 117.056 953.13 118.048C953.13 119.04 953.314 119.872 953.682 120.544C954.05 121.216 954.522 121.72 955.098 122.056C955.69 122.392 956.322 122.56 956.994 122.56ZM967.728 124L964.248 112.096H966.264L968.784 121.432L971.568 112.096H973.848L976.656 121.432L979.152 112.096H981.192L977.712 124H975.648L972.72 114.184L969.792 124H967.728ZM987.982 124.288C986.558 124.288 985.374 123.928 984.43 123.208C983.486 122.488 982.934 121.512 982.774 120.28H984.838C984.966 120.904 985.294 121.448 985.822 121.912C986.366 122.36 987.094 122.584 988.006 122.584C988.854 122.584 989.478 122.408 989.878 122.056C990.278 121.688 990.478 121.256 990.478 120.76C990.478 120.04 990.214 119.56 989.686 119.32C989.174 119.08 988.446 118.864 987.502 118.672C986.862 118.544 986.222 118.36 985.582 118.12C984.942 117.88 984.406 117.544 983.974 117.112C983.542 116.664 983.326 116.08 983.326 115.36C983.326 114.32 983.71 113.472 984.478 112.816C985.262 112.144 986.318 111.808 987.646 111.808C988.91 111.808 989.942 112.128 990.742 112.768C991.558 113.392 992.03 114.288 992.158 115.456H990.166C990.086 114.848 989.822 114.376 989.374 114.04C988.942 113.688 988.358 113.512 987.622 113.512C986.902 113.512 986.342 113.664 985.942 113.968C985.558 114.272 985.366 114.672 985.366 115.168C985.366 115.648 985.614 116.024 986.11 116.296C986.622 116.568 987.31 116.8 988.174 116.992C988.91 117.152 989.606 117.352 990.262 117.592C990.934 117.816 991.478 118.16 991.894 118.624C992.326 119.072 992.542 119.728 992.542 120.592C992.558 121.664 992.15 122.552 991.318 123.256C990.502 123.944 989.39 124.288 987.982 124.288ZM1005.73 124.288C1004.74 124.288 1003.92 124.12 1003.26 123.784C1002.61 123.448 1002.12 123 1001.8 122.44C1001.48 121.88 1001.32 121.272 1001.32 120.616C1001.32 119.4 1001.78 118.464 1002.71 117.808C1003.64 117.152 1004.9 116.824 1006.5 116.824H1009.72V116.68C1009.72 115.64 1009.45 114.856 1008.9 114.328C1008.36 113.784 1007.63 113.512 1006.72 113.512C1005.93 113.512 1005.25 113.712 1004.68 114.112C1004.12 114.496 1003.77 115.064 1003.62 115.816H1001.56C1001.64 114.952 1001.93 114.224 1002.42 113.632C1002.93 113.04 1003.57 112.592 1004.32 112.288C1005.07 111.968 1005.87 111.808 1006.72 111.808C1008.38 111.808 1009.63 112.256 1010.46 113.152C1011.31 114.032 1011.73 115.208 1011.73 116.68V124H1009.93L1009.81 121.864C1009.48 122.536 1008.98 123.112 1008.33 123.592C1007.69 124.056 1006.82 124.288 1005.73 124.288ZM1006.05 122.584C1006.81 122.584 1007.47 122.384 1008.01 121.984C1008.57 121.584 1009 121.064 1009.29 120.424C1009.57 119.784 1009.72 119.112 1009.72 118.408V118.384H1006.67C1005.49 118.384 1004.65 118.592 1004.15 119.008C1003.67 119.408 1003.43 119.912 1003.43 120.52C1003.43 121.144 1003.65 121.648 1004.1 122.032C1004.57 122.4 1005.21 122.584 1006.05 122.584ZM1014.76 124V112.096H1016.58L1016.7 114.232C1017.09 113.48 1017.64 112.888 1018.36 112.456C1019.08 112.024 1019.89 111.808 1020.81 111.808C1022.21 111.808 1023.33 112.24 1024.17 113.104C1025.01 113.952 1025.44 115.264 1025.44 117.04V124H1023.42V117.256C1023.42 114.776 1022.4 113.536 1020.35 113.536C1019.33 113.536 1018.47 113.912 1017.78 114.664C1017.11 115.4 1016.77 116.456 1016.77 117.832V124H1014.76ZM1033.89 124.288C1032.71 124.288 1031.67 124.016 1030.77 123.472C1029.89 122.928 1029.2 122.184 1028.71 121.24C1028.23 120.296 1027.99 119.224 1027.99 118.024C1027.99 116.824 1028.24 115.76 1028.73 114.832C1029.23 113.888 1029.92 113.152 1030.8 112.624C1031.68 112.08 1032.72 111.808 1033.92 111.808C1034.89 111.808 1035.76 112.008 1036.51 112.408C1037.26 112.808 1037.84 113.368 1038.26 114.088V106.72H1040.28V124H1038.45L1038.26 122.032C1037.88 122.608 1037.32 123.128 1036.6 123.592C1035.88 124.056 1034.98 124.288 1033.89 124.288ZM1034.11 122.536C1034.91 122.536 1035.61 122.352 1036.22 121.984C1036.84 121.6 1037.32 121.072 1037.66 120.4C1038.01 119.728 1038.19 118.944 1038.19 118.048C1038.19 117.152 1038.01 116.368 1037.66 115.696C1037.32 115.024 1036.84 114.504 1036.22 114.136C1035.61 113.752 1034.91 113.56 1034.11 113.56C1033.32 113.56 1032.62 113.752 1032 114.136C1031.39 114.504 1030.91 115.024 1030.56 115.696C1030.22 116.368 1030.05 117.152 1030.05 118.048C1030.05 118.944 1030.22 119.728 1030.56 120.4C1030.91 121.072 1031.39 121.6 1032 121.984C1032.62 122.352 1033.32 122.536 1034.11 122.536ZM1053.87 124.288C1052.88 124.288 1052.06 124.12 1051.4 123.784C1050.75 123.448 1050.26 123 1049.94 122.44C1049.62 121.88 1049.46 121.272 1049.46 120.616C1049.46 119.4 1049.92 118.464 1050.85 117.808C1051.78 117.152 1053.04 116.824 1054.64 116.824H1057.86V116.68C1057.86 115.64 1057.59 114.856 1057.04 114.328C1056.5 113.784 1055.77 113.512 1054.86 113.512C1054.07 113.512 1053.39 113.712 1052.82 114.112C1052.26 114.496 1051.91 115.064 1051.76 115.816H1049.7C1049.78 114.952 1050.07 114.224 1050.56 113.632C1051.07 113.04 1051.71 112.592 1052.46 112.288C1053.21 111.968 1054.01 111.808 1054.86 111.808C1056.52 111.808 1057.77 112.256 1058.6 113.152C1059.45 114.032 1059.87 115.208 1059.87 116.68V124H1058.07L1057.95 121.864C1057.62 122.536 1057.12 123.112 1056.47 123.592C1055.83 124.056 1054.96 124.288 1053.87 124.288ZM1054.19 122.584C1054.95 122.584 1055.61 122.384 1056.15 121.984C1056.71 121.584 1057.14 121.064 1057.43 120.424C1057.71 119.784 1057.86 119.112 1057.86 118.408V118.384H1054.81C1053.63 118.384 1052.79 118.592 1052.29 119.008C1051.81 119.408 1051.57 119.912 1051.57 120.52C1051.57 121.144 1051.79 121.648 1052.24 122.032C1052.71 122.4 1053.35 122.584 1054.19 122.584ZM96.016 155.288C95.04 155.288 94.168 155.088 93.4 154.688C92.648 154.288 92.072 153.728 91.672 153.008L91.48 155H89.656V137.72H91.672V145.064C92.056 144.488 92.6 143.968 93.304 143.504C94.024 143.04 94.936 142.808 96.04 142.808C97.224 142.808 98.256 143.08 99.136 143.624C100.016 144.168 100.696 144.912 101.176 145.856C101.672 146.8 101.92 147.872 101.92 149.072C101.92 150.272 101.672 151.344 101.176 152.288C100.696 153.216 100.008 153.952 99.112 154.496C98.232 155.024 97.2 155.288 96.016 155.288ZM95.8 153.536C96.6 153.536 97.304 153.352 97.912 152.984C98.52 152.6 99 152.072 99.352 151.4C99.704 150.728 99.88 149.944 99.88 149.048C99.88 148.152 99.704 147.368 99.352 146.696C99 146.024 98.52 145.504 97.912 145.136C97.304 144.752 96.6 144.56 95.8 144.56C95 144.56 94.296 144.752 93.688 145.136C93.08 145.504 92.6 146.024 92.248 146.696C91.896 147.368 91.72 148.152 91.72 149.048C91.72 149.944 91.896 150.728 92.248 151.4C92.6 152.072 93.08 152.6 93.688 152.984C94.296 153.352 95 153.536 95.8 153.536ZM110.15 155.288C109.03 155.288 108.022 155.032 107.126 154.52C106.23 154.008 105.518 153.288 104.99 152.36C104.478 151.416 104.222 150.312 104.222 149.048C104.222 147.784 104.486 146.688 105.014 145.76C105.542 144.816 106.254 144.088 107.15 143.576C108.062 143.064 109.078 142.808 110.198 142.808C111.318 142.808 112.326 143.064 113.222 143.576C114.118 144.088 114.822 144.816 115.334 145.76C115.862 146.688 116.126 147.784 116.126 149.048C116.126 150.312 115.862 151.416 115.334 152.36C114.806 153.288 114.086 154.008 113.174 154.52C112.278 155.032 111.27 155.288 110.15 155.288ZM110.15 153.56C110.838 153.56 111.478 153.392 112.07 153.056C112.662 152.72 113.142 152.216 113.51 151.544C113.878 150.872 114.062 150.04 114.062 149.048C114.062 148.056 113.878 147.224 113.51 146.552C113.158 145.88 112.686 145.376 112.094 145.04C111.502 144.704 110.87 144.536 110.198 144.536C109.51 144.536 108.87 144.704 108.278 145.04C107.686 145.376 107.206 145.88 106.838 146.552C106.47 147.224 106.286 148.056 106.286 149.048C106.286 150.04 106.47 150.872 106.838 151.544C107.206 152.216 107.678 152.72 108.254 153.056C108.846 153.392 109.478 153.56 110.15 153.56ZM118.929 155V137.72H120.945V155H118.929ZM129.65 155.288C128.466 155.288 127.426 155.016 126.53 154.472C125.65 153.928 124.962 153.184 124.466 152.24C123.986 151.296 123.746 150.224 123.746 149.024C123.746 147.824 123.994 146.76 124.49 145.832C124.986 144.888 125.674 144.152 126.554 143.624C127.434 143.08 128.474 142.808 129.674 142.808C130.65 142.808 131.514 143.008 132.266 143.408C133.018 143.808 133.602 144.368 134.018 145.088V137.72H136.034V155H134.21L134.018 153.032C133.634 153.608 133.082 154.128 132.362 154.592C131.642 155.056 130.738 155.288 129.65 155.288ZM129.866 153.536C130.666 153.536 131.37 153.352 131.978 152.984C132.602 152.6 133.082 152.072 133.418 151.4C133.77 150.728 133.946 149.944 133.946 149.048C133.946 148.152 133.77 147.368 133.418 146.696C133.082 146.024 132.602 145.504 131.978 145.136C131.37 144.752 130.666 144.56 129.866 144.56C129.082 144.56 128.378 144.752 127.754 145.136C127.146 145.504 126.666 146.024 126.314 146.696C125.978 147.368 125.81 148.152 125.81 149.048C125.81 149.944 125.978 150.728 126.314 151.4C126.666 152.072 127.146 152.6 127.754 152.984C128.378 153.352 129.082 153.536 129.866 153.536ZM145.672 155V137.72H147.688V155H145.672ZM152.216 140.456C151.816 140.456 151.48 140.328 151.208 140.072C150.952 139.8 150.824 139.464 150.824 139.064C150.824 138.68 150.952 138.36 151.208 138.104C151.48 137.848 151.816 137.72 152.216 137.72C152.6 137.72 152.928 137.848 153.2 138.104C153.472 138.36 153.608 138.68 153.608 139.064C153.608 139.464 153.472 139.8 153.2 140.072C152.928 140.328 152.6 140.456 152.216 140.456ZM151.208 155V143.096H153.224V155H151.208ZM156.734 160.28V143.096H158.558L158.75 145.064C159.134 144.488 159.678 143.968 160.382 143.504C161.102 143.04 162.014 142.808 163.118 142.808C164.302 142.808 165.334 143.08 166.214 143.624C167.094 144.168 167.774 144.912 168.254 145.856C168.75 146.8 168.998 147.872 168.998 149.072C168.998 150.272 168.75 151.344 168.254 152.288C167.774 153.216 167.086 153.952 166.19 154.496C165.31 155.024 164.278 155.288 163.094 155.288C162.118 155.288 161.246 155.088 160.478 154.688C159.726 154.288 159.15 153.728 158.75 153.008V160.28H156.734ZM162.878 153.536C163.678 153.536 164.382 153.352 164.99 152.984C165.598 152.6 166.078 152.072 166.43 151.4C166.782 150.728 166.958 149.944 166.958 149.048C166.958 148.152 166.782 147.368 166.43 146.696C166.078 146.024 165.598 145.504 164.99 145.136C164.382 144.752 163.678 144.56 162.878 144.56C162.078 144.56 161.374 144.752 160.766 145.136C160.158 145.504 159.678 146.024 159.326 146.696C158.974 147.368 158.798 148.152 158.798 149.048C158.798 149.944 158.974 150.728 159.326 151.4C159.678 152.072 160.158 152.6 160.766 152.984C161.374 153.352 162.078 153.536 162.878 153.536ZM172.5 155.12C172.1 155.12 171.764 154.992 171.492 154.736C171.236 154.464 171.108 154.136 171.108 153.752C171.108 153.368 171.236 153.048 171.492 152.792C171.764 152.52 172.1 152.384 172.5 152.384C172.884 152.384 173.204 152.52 173.46 152.792C173.732 153.048 173.868 153.368 173.868 153.752C173.868 154.136 173.732 154.464 173.46 154.736C173.204 154.992 172.884 155.12 172.5 155.12ZM182.964 155V138.2H184.98V155H182.964ZM198.733 155.288C197.741 155.288 196.917 155.12 196.261 154.784C195.605 154.448 195.117 154 194.797 153.44C194.477 152.88 194.317 152.272 194.317 151.616C194.317 150.4 194.781 149.464 195.709 148.808C196.637 148.152 197.901 147.824 199.501 147.824H202.717V147.68C202.717 146.64 202.445 145.856 201.901 145.328C201.357 144.784 200.629 144.512 199.717 144.512C198.933 144.512 198.253 144.712 197.677 145.112C197.117 145.496 196.765 146.064 196.621 146.816H194.557C194.637 145.952 194.925 145.224 195.421 144.632C195.933 144.04 196.565 143.592 197.317 143.288C198.069 142.968 198.869 142.808 199.717 142.808C201.381 142.808 202.629 143.256 203.461 144.152C204.309 145.032 204.733 146.208 204.733 147.68V155H202.933L202.813 152.864C202.477 153.536 201.981 154.112 201.325 154.592C200.685 155.056 199.821 155.288 198.733 155.288ZM199.045 153.584C199.813 153.584 200.469 153.384 201.013 152.984C201.573 152.584 201.997 152.064 202.285 151.424C202.573 150.784 202.717 150.112 202.717 149.408V149.384H199.669C198.485 149.384 197.645 149.592 197.149 150.008C196.669 150.408 196.429 150.912 196.429 151.52C196.429 152.144 196.653 152.648 197.101 153.032C197.565 153.4 198.213 153.584 199.045 153.584ZM207.758 155V143.096H209.582L209.726 144.824C210.11 144.184 210.622 143.688 211.262 143.336C211.902 142.984 212.622 142.808 213.422 142.808C214.366 142.808 215.174 143 215.846 143.384C216.534 143.768 217.062 144.352 217.43 145.136C217.846 144.416 218.414 143.848 219.134 143.432C219.87 143.016 220.662 142.808 221.51 142.808C222.934 142.808 224.07 143.24 224.918 144.104C225.766 144.952 226.19 146.264 226.19 148.04V155H224.198V148.256C224.198 147.024 223.95 146.096 223.454 145.472C222.958 144.848 222.246 144.536 221.318 144.536C220.358 144.536 219.558 144.912 218.918 145.664C218.294 146.4 217.982 147.456 217.982 148.832V155H215.966V148.256C215.966 147.024 215.718 146.096 215.222 145.472C214.726 144.848 214.014 144.536 213.086 144.536C212.142 144.536 211.35 144.912 210.71 145.664C210.086 146.4 209.774 147.456 209.774 148.832V155H207.758ZM239.538 155.288C238.546 155.288 237.722 155.12 237.066 154.784C236.41 154.448 235.922 154 235.602 153.44C235.282 152.88 235.122 152.272 235.122 151.616C235.122 150.4 235.586 149.464 236.514 148.808C237.442 148.152 238.706 147.824 240.306 147.824H243.522V147.68C243.522 146.64 243.25 145.856 242.706 145.328C242.162 144.784 241.434 144.512 240.522 144.512C239.738 144.512 239.058 144.712 238.482 145.112C237.922 145.496 237.57 146.064 237.426 146.816H235.362C235.442 145.952 235.73 145.224 236.226 144.632C236.738 144.04 237.37 143.592 238.122 143.288C238.874 142.968 239.674 142.808 240.522 142.808C242.186 142.808 243.434 143.256 244.266 144.152C245.114 145.032 245.538 146.208 245.538 147.68V155H243.738L243.618 152.864C243.282 153.536 242.786 154.112 242.13 154.592C241.49 155.056 240.626 155.288 239.538 155.288ZM239.85 153.584C240.618 153.584 241.274 153.384 241.818 152.984C242.378 152.584 242.802 152.064 243.09 151.424C243.378 150.784 243.522 150.112 243.522 149.408V149.384H240.474C239.29 149.384 238.45 149.592 237.954 150.008C237.474 150.408 237.234 150.912 237.234 151.52C237.234 152.144 237.458 152.648 237.906 153.032C238.37 153.4 239.018 153.584 239.85 153.584ZM248.562 155V137.72H250.578V155H248.562ZM258.443 155.288C257.019 155.288 255.835 154.928 254.891 154.208C253.947 153.488 253.395 152.512 253.235 151.28H255.299C255.427 151.904 255.755 152.448 256.283 152.912C256.827 153.36 257.555 153.584 258.467 153.584C259.315 153.584 259.939 153.408 260.339 153.056C260.739 152.688 260.939 152.256 260.939 151.76C260.939 151.04 260.675 150.56 260.147 150.32C259.635 150.08 258.907 149.864 257.963 149.672C257.323 149.544 256.683 149.36 256.043 149.12C255.403 148.88 254.867 148.544 254.435 148.112C254.003 147.664 253.787 147.08 253.787 146.36C253.787 145.32 254.171 144.472 254.939 143.816C255.723 143.144 256.779 142.808 258.107 142.808C259.371 142.808 260.403 143.128 261.203 143.768C262.019 144.392 262.491 145.288 262.619 146.456H260.627C260.547 145.848 260.283 145.376 259.835 145.04C259.403 144.688 258.819 144.512 258.083 144.512C257.363 144.512 256.803 144.664 256.403 144.968C256.019 145.272 255.827 145.672 255.827 146.168C255.827 146.648 256.075 147.024 256.571 147.296C257.083 147.568 257.771 147.8 258.635 147.992C259.371 148.152 260.067 148.352 260.723 148.592C261.395 148.816 261.939 149.16 262.355 149.624C262.787 150.072 263.003 150.728 263.003 151.592C263.019 152.664 262.611 153.552 261.779 154.256C260.963 154.944 259.851 155.288 258.443 155.288ZM271.307 155.288C270.187 155.288 269.179 155.032 268.283 154.52C267.387 154.008 266.675 153.288 266.147 152.36C265.635 151.416 265.379 150.312 265.379 149.048C265.379 147.784 265.643 146.688 266.171 145.76C266.699 144.816 267.411 144.088 268.307 143.576C269.219 143.064 270.235 142.808 271.355 142.808C272.475 142.808 273.483 143.064 274.379 143.576C275.275 144.088 275.979 144.816 276.491 145.76C277.019 146.688 277.283 147.784 277.283 149.048C277.283 150.312 277.019 151.416 276.491 152.36C275.963 153.288 275.243 154.008 274.331 154.52C273.435 155.032 272.427 155.288 271.307 155.288ZM271.307 153.56C271.995 153.56 272.635 153.392 273.227 153.056C273.819 152.72 274.299 152.216 274.667 151.544C275.035 150.872 275.219 150.04 275.219 149.048C275.219 148.056 275.035 147.224 274.667 146.552C274.315 145.88 273.843 145.376 273.251 145.04C272.659 144.704 272.027 144.536 271.355 144.536C270.667 144.536 270.027 144.704 269.435 145.04C268.843 145.376 268.363 145.88 267.995 146.552C267.627 147.224 267.443 148.056 267.443 149.048C267.443 150.04 267.627 150.872 267.995 151.544C268.363 152.216 268.835 152.72 269.411 153.056C270.003 153.392 270.635 153.56 271.307 153.56ZM287.661 140.456C287.261 140.456 286.925 140.328 286.653 140.072C286.397 139.8 286.269 139.464 286.269 139.064C286.269 138.68 286.397 138.36 286.653 138.104C286.925 137.848 287.261 137.72 287.661 137.72C288.045 137.72 288.373 137.848 288.645 138.104C288.917 138.36 289.053 138.68 289.053 139.064C289.053 139.464 288.917 139.8 288.645 140.072C288.373 140.328 288.045 140.456 287.661 140.456ZM286.653 155V143.096H288.669V155H286.653ZM292.179 155V143.096H294.003L294.123 145.232C294.507 144.48 295.059 143.888 295.779 143.456C296.499 143.024 297.315 142.808 298.227 142.808C299.635 142.808 300.755 143.24 301.587 144.104C302.435 144.952 302.859 146.264 302.859 148.04V155H300.843V148.256C300.843 145.776 299.819 144.536 297.771 144.536C296.747 144.536 295.891 144.912 295.203 145.664C294.531 146.4 294.195 147.456 294.195 148.832V155H292.179ZM310.618 155C309.53 155 308.674 154.736 308.05 154.208C307.426 153.68 307.114 152.728 307.114 151.352V144.8H305.05V143.096H307.114L307.378 140.24H309.13V143.096H312.634V144.8H309.13V151.352C309.13 152.104 309.282 152.616 309.586 152.888C309.89 153.144 310.426 153.272 311.194 153.272H312.442V155H310.618ZM320.219 155.288C319.083 155.288 318.075 155.032 317.195 154.52C316.315 153.992 315.619 153.264 315.107 152.336C314.611 151.408 314.363 150.312 314.363 149.048C314.363 147.8 314.611 146.712 315.107 145.784C315.603 144.84 316.291 144.112 317.171 143.6C318.067 143.072 319.099 142.808 320.267 142.808C321.419 142.808 322.411 143.072 323.243 143.6C324.091 144.112 324.739 144.792 325.187 145.64C325.635 146.488 325.859 147.4 325.859 148.376C325.859 148.552 325.851 148.728 325.835 148.904C325.835 149.08 325.835 149.28 325.835 149.504H316.355C316.403 150.416 316.611 151.176 316.979 151.784C317.363 152.376 317.835 152.824 318.395 153.128C318.971 153.432 319.579 153.584 320.219 153.584C321.051 153.584 321.747 153.392 322.307 153.008C322.867 152.624 323.275 152.104 323.531 151.448H325.523C325.203 152.552 324.587 153.472 323.675 154.208C322.779 154.928 321.627 155.288 320.219 155.288ZM320.219 144.512C319.259 144.512 318.403 144.808 317.651 145.4C316.915 145.976 316.491 146.824 316.379 147.944H323.867C323.819 146.872 323.451 146.032 322.763 145.424C322.075 144.816 321.227 144.512 320.219 144.512ZM328.531 155V143.096H330.355L330.523 145.376C330.891 144.592 331.451 143.968 332.203 143.504C332.955 143.04 333.883 142.808 334.987 142.808V144.92H334.435C333.731 144.92 333.083 145.048 332.491 145.304C331.899 145.544 331.427 145.96 331.075 146.552C330.723 147.144 330.547 147.96 330.547 149V155H328.531ZM342.156 155.288C341.02 155.288 340.012 155.032 339.132 154.52C338.252 153.992 337.556 153.264 337.044 152.336C336.548 151.408 336.3 150.312 336.3 149.048C336.3 147.8 336.548 146.712 337.044 145.784C337.54 144.84 338.228 144.112 339.108 143.6C340.004 143.072 341.036 142.808 342.204 142.808C343.356 142.808 344.348 143.072 345.18 143.6C346.028 144.112 346.676 144.792 347.124 145.64C347.572 146.488 347.796 147.4 347.796 148.376C347.796 148.552 347.788 148.728 347.772 148.904C347.772 149.08 347.772 149.28 347.772 149.504H338.292C338.34 150.416 338.548 151.176 338.916 151.784C339.3 152.376 339.772 152.824 340.332 153.128C340.908 153.432 341.516 153.584 342.156 153.584C342.988 153.584 343.684 153.392 344.244 153.008C344.804 152.624 345.212 152.104 345.468 151.448H347.46C347.14 152.552 346.524 153.472 345.612 154.208C344.716 154.928 343.564 155.288 342.156 155.288ZM342.156 144.512C341.196 144.512 340.34 144.808 339.588 145.4C338.852 145.976 338.428 146.824 338.316 147.944H345.804C345.756 146.872 345.388 146.032 344.7 145.424C344.012 144.816 343.164 144.512 342.156 144.512ZM355.029 155.288C353.605 155.288 352.421 154.928 351.477 154.208C350.533 153.488 349.981 152.512 349.821 151.28H351.885C352.013 151.904 352.341 152.448 352.869 152.912C353.413 153.36 354.141 153.584 355.053 153.584C355.901 153.584 356.525 153.408 356.925 153.056C357.325 152.688 357.525 152.256 357.525 151.76C357.525 151.04 357.261 150.56 356.733 150.32C356.221 150.08 355.493 149.864 354.549 149.672C353.909 149.544 353.269 149.36 352.629 149.12C351.989 148.88 351.453 148.544 351.021 148.112C350.589 147.664 350.373 147.08 350.373 146.36C350.373 145.32 350.757 144.472 351.525 143.816C352.309 143.144 353.365 142.808 354.693 142.808C355.957 142.808 356.989 143.128 357.789 143.768C358.605 144.392 359.077 145.288 359.205 146.456H357.213C357.133 145.848 356.869 145.376 356.421 145.04C355.989 144.688 355.405 144.512 354.669 144.512C353.949 144.512 353.389 144.664 352.989 144.968C352.605 145.272 352.413 145.672 352.413 146.168C352.413 146.648 352.661 147.024 353.157 147.296C353.669 147.568 354.357 147.8 355.221 147.992C355.957 148.152 356.653 148.352 357.309 148.592C357.981 148.816 358.525 149.16 358.941 149.624C359.373 150.072 359.589 150.728 359.589 151.592C359.605 152.664 359.197 153.552 358.365 154.256C357.549 154.944 356.437 155.288 355.029 155.288ZM366.633 155C365.545 155 364.689 154.736 364.065 154.208C363.441 153.68 363.129 152.728 363.129 151.352V144.8H361.065V143.096H363.129L363.393 140.24H365.145V143.096H368.649V144.8H365.145V151.352C365.145 152.104 365.297 152.616 365.601 152.888C365.905 153.144 366.441 153.272 367.209 153.272H368.457V155H366.633ZM376.235 155.288C375.099 155.288 374.091 155.032 373.211 154.52C372.331 153.992 371.635 153.264 371.123 152.336C370.627 151.408 370.379 150.312 370.379 149.048C370.379 147.8 370.627 146.712 371.123 145.784C371.619 144.84 372.307 144.112 373.187 143.6C374.083 143.072 375.115 142.808 376.283 142.808C377.435 142.808 378.427 143.072 379.259 143.6C380.107 144.112 380.755 144.792 381.203 145.64C381.651 146.488 381.875 147.4 381.875 148.376C381.875 148.552 381.867 148.728 381.851 148.904C381.851 149.08 381.851 149.28 381.851 149.504H372.371C372.419 150.416 372.627 151.176 372.995 151.784C373.379 152.376 373.851 152.824 374.411 153.128C374.987 153.432 375.595 153.584 376.235 153.584C377.067 153.584 377.763 153.392 378.323 153.008C378.883 152.624 379.291 152.104 379.547 151.448H381.539C381.219 152.552 380.603 153.472 379.691 154.208C378.795 154.928 377.643 155.288 376.235 155.288ZM376.235 144.512C375.275 144.512 374.419 144.808 373.667 145.4C372.931 145.976 372.507 146.824 372.395 147.944H379.883C379.835 146.872 379.467 146.032 378.779 145.424C378.091 144.816 377.243 144.512 376.235 144.512ZM389.947 155.288C388.763 155.288 387.723 155.016 386.827 154.472C385.947 153.928 385.259 153.184 384.763 152.24C384.283 151.296 384.043 150.224 384.043 149.024C384.043 147.824 384.291 146.76 384.787 145.832C385.283 144.888 385.971 144.152 386.851 143.624C387.731 143.08 388.771 142.808 389.971 142.808C390.947 142.808 391.811 143.008 392.563 143.408C393.315 143.808 393.899 144.368 394.315 145.088V137.72H396.331V155H394.507L394.315 153.032C393.931 153.608 393.379 154.128 392.659 154.592C391.939 155.056 391.035 155.288 389.947 155.288ZM390.163 153.536C390.963 153.536 391.667 153.352 392.275 152.984C392.899 152.6 393.379 152.072 393.715 151.4C394.067 150.728 394.243 149.944 394.243 149.048C394.243 148.152 394.067 147.368 393.715 146.696C393.379 146.024 392.899 145.504 392.275 145.136C391.667 144.752 390.963 144.56 390.163 144.56C389.379 144.56 388.675 144.752 388.051 145.136C387.443 145.504 386.963 146.024 386.611 146.696C386.275 147.368 386.107 148.152 386.107 149.048C386.107 149.944 386.275 150.728 386.611 151.4C386.963 152.072 387.443 152.6 388.051 152.984C388.675 153.352 389.379 153.536 390.163 153.536ZM407.193 140.456C406.793 140.456 406.457 140.328 406.185 140.072C405.929 139.8 405.801 139.464 405.801 139.064C405.801 138.68 405.929 138.36 406.185 138.104C406.457 137.848 406.793 137.72 407.193 137.72C407.577 137.72 407.905 137.848 408.177 138.104C408.449 138.36 408.585 138.68 408.585 139.064C408.585 139.464 408.449 139.8 408.177 140.072C407.905 140.328 407.577 140.456 407.193 140.456ZM406.185 155V143.096H408.201V155H406.185ZM411.711 155V143.096H413.535L413.655 145.232C414.039 144.48 414.591 143.888 415.311 143.456C416.031 143.024 416.847 142.808 417.759 142.808C419.167 142.808 420.287 143.24 421.119 144.104C421.967 144.952 422.391 146.264 422.391 148.04V155H420.375V148.256C420.375 145.776 419.351 144.536 417.303 144.536C416.279 144.536 415.423 144.912 414.735 145.664C414.063 146.4 413.727 147.456 413.727 148.832V155H411.711ZM437.269 155.288C436.133 155.288 435.109 155.032 434.197 154.52C433.301 153.992 432.589 153.264 432.061 152.336C431.549 151.392 431.293 150.296 431.293 149.048C431.293 147.8 431.549 146.712 432.061 145.784C432.589 144.84 433.301 144.112 434.197 143.6C435.109 143.072 436.133 142.808 437.269 142.808C438.677 142.808 439.861 143.176 440.821 143.912C441.797 144.648 442.413 145.632 442.669 146.864H440.605C440.445 146.128 440.053 145.56 439.429 145.16C438.805 144.744 438.077 144.536 437.245 144.536C436.573 144.536 435.941 144.704 435.349 145.04C434.757 145.376 434.277 145.88 433.909 146.552C433.541 147.224 433.357 148.056 433.357 149.048C433.357 150.04 433.541 150.872 433.909 151.544C434.277 152.216 434.757 152.728 435.349 153.08C435.941 153.416 436.573 153.584 437.245 153.584C438.077 153.584 438.805 153.384 439.429 152.984C440.053 152.568 440.445 151.984 440.605 151.232H442.669C442.429 152.432 441.821 153.408 440.845 154.16C439.869 154.912 438.677 155.288 437.269 155.288ZM450.908 155.288C449.788 155.288 448.78 155.032 447.884 154.52C446.988 154.008 446.276 153.288 445.748 152.36C445.236 151.416 444.98 150.312 444.98 149.048C444.98 147.784 445.244 146.688 445.772 145.76C446.3 144.816 447.012 144.088 447.908 143.576C448.82 143.064 449.836 142.808 450.956 142.808C452.076 142.808 453.084 143.064 453.98 143.576C454.876 144.088 455.58 144.816 456.092 145.76C456.62 146.688 456.884 147.784 456.884 149.048C456.884 150.312 456.62 151.416 456.092 152.36C455.564 153.288 454.844 154.008 453.932 154.52C453.036 155.032 452.028 155.288 450.908 155.288ZM450.908 153.56C451.596 153.56 452.236 153.392 452.828 153.056C453.42 152.72 453.9 152.216 454.268 151.544C454.636 150.872 454.82 150.04 454.82 149.048C454.82 148.056 454.636 147.224 454.268 146.552C453.916 145.88 453.444 145.376 452.852 145.04C452.26 144.704 451.628 144.536 450.956 144.536C450.268 144.536 449.628 144.704 449.036 145.04C448.444 145.376 447.964 145.88 447.596 146.552C447.228 147.224 447.044 148.056 447.044 149.048C447.044 150.04 447.228 150.872 447.596 151.544C447.964 152.216 448.436 152.72 449.012 153.056C449.604 153.392 450.236 153.56 450.908 153.56ZM459.687 155V143.096H461.511L461.631 145.232C462.015 144.48 462.567 143.888 463.287 143.456C464.007 143.024 464.823 142.808 465.735 142.808C467.143 142.808 468.263 143.24 469.095 144.104C469.943 144.952 470.367 146.264 470.367 148.04V155H468.351V148.256C468.351 145.776 467.327 144.536 465.279 144.536C464.255 144.536 463.399 144.912 462.711 145.664C462.039 146.4 461.703 147.456 461.703 148.832V155H459.687ZM478.126 155C477.038 155 476.182 154.736 475.558 154.208C474.934 153.68 474.622 152.728 474.622 151.352V144.8H472.558V143.096H474.622L474.886 140.24H476.638V143.096H480.142V144.8H476.638V151.352C476.638 152.104 476.79 152.616 477.094 152.888C477.398 153.144 477.934 153.272 478.702 153.272H479.95V155H478.126ZM487.799 155.288C486.679 155.288 485.671 155.032 484.775 154.52C483.879 154.008 483.167 153.288 482.639 152.36C482.127 151.416 481.871 150.312 481.871 149.048C481.871 147.784 482.135 146.688 482.663 145.76C483.191 144.816 483.903 144.088 484.799 143.576C485.711 143.064 486.727 142.808 487.847 142.808C488.967 142.808 489.975 143.064 490.871 143.576C491.767 144.088 492.471 144.816 492.983 145.76C493.511 146.688 493.775 147.784 493.775 149.048C493.775 150.312 493.511 151.416 492.983 152.36C492.455 153.288 491.735 154.008 490.823 154.52C489.927 155.032 488.919 155.288 487.799 155.288ZM487.799 153.56C488.487 153.56 489.127 153.392 489.719 153.056C490.311 152.72 490.791 152.216 491.159 151.544C491.527 150.872 491.711 150.04 491.711 149.048C491.711 148.056 491.527 147.224 491.159 146.552C490.807 145.88 490.335 145.376 489.743 145.04C489.151 144.704 488.519 144.536 487.847 144.536C487.159 144.536 486.519 144.704 485.927 145.04C485.335 145.376 484.855 145.88 484.487 146.552C484.119 147.224 483.935 148.056 483.935 149.048C483.935 150.04 484.119 150.872 484.487 151.544C484.855 152.216 485.327 152.72 485.903 153.056C486.495 153.392 487.127 153.56 487.799 153.56ZM500.922 155.288C499.514 155.288 498.394 154.864 497.562 154.016C496.73 153.152 496.314 151.832 496.314 150.056V143.096H498.33V149.84C498.33 152.32 499.346 153.56 501.378 153.56C502.418 153.56 503.274 153.192 503.946 152.456C504.634 151.704 504.978 150.64 504.978 149.264V143.096H506.994V155H505.17L505.026 152.864C504.658 153.616 504.106 154.208 503.37 154.64C502.65 155.072 501.834 155.288 500.922 155.288ZM510.312 155V143.096H512.136L512.304 145.376C512.672 144.592 513.232 143.968 513.984 143.504C514.736 143.04 515.664 142.808 516.768 142.808V144.92H516.216C515.512 144.92 514.864 145.048 514.272 145.304C513.68 145.544 513.208 145.96 512.856 146.552C512.504 147.144 512.328 147.96 512.328 149V155H510.312ZM525.383 155V143.096H527.207L527.351 144.824C527.735 144.184 528.247 143.688 528.887 143.336C529.527 142.984 530.247 142.808 531.047 142.808C531.991 142.808 532.799 143 533.471 143.384C534.159 143.768 534.687 144.352 535.055 145.136C535.471 144.416 536.039 143.848 536.759 143.432C537.495 143.016 538.287 142.808 539.135 142.808C540.559 142.808 541.695 143.24 542.543 144.104C543.391 144.952 543.815 146.264 543.815 148.04V155H541.823V148.256C541.823 147.024 541.575 146.096 541.079 145.472C540.583 144.848 539.871 144.536 538.943 144.536C537.983 144.536 537.183 144.912 536.543 145.664C535.919 146.4 535.607 147.456 535.607 148.832V155H533.591V148.256C533.591 147.024 533.343 146.096 532.847 145.472C532.351 144.848 531.639 144.536 530.711 144.536C529.767 144.536 528.975 144.912 528.335 145.664C527.711 146.4 527.399 147.456 527.399 148.832V155H525.383ZM550.811 155.288C549.819 155.288 548.995 155.12 548.339 154.784C547.683 154.448 547.195 154 546.875 153.44C546.555 152.88 546.395 152.272 546.395 151.616C546.395 150.4 546.859 149.464 547.787 148.808C548.715 148.152 549.979 147.824 551.579 147.824H554.795V147.68C554.795 146.64 554.523 145.856 553.979 145.328C553.435 144.784 552.707 144.512 551.795 144.512C551.011 144.512 550.331 144.712 549.755 145.112C549.195 145.496 548.843 146.064 548.699 146.816H546.635C546.715 145.952 547.003 145.224 547.499 144.632C548.011 144.04 548.643 143.592 549.395 143.288C550.147 142.968 550.947 142.808 551.795 142.808C553.459 142.808 554.707 143.256 555.539 144.152C556.387 145.032 556.811 146.208 556.811 147.68V155H555.011L554.891 152.864C554.555 153.536 554.059 154.112 553.403 154.592C552.763 155.056 551.899 155.288 550.811 155.288ZM551.123 153.584C551.891 153.584 552.547 153.384 553.091 152.984C553.651 152.584 554.075 152.064 554.363 151.424C554.651 150.784 554.795 150.112 554.795 149.408V149.384H551.747C550.563 149.384 549.723 149.592 549.227 150.008C548.747 150.408 548.507 150.912 548.507 151.52C548.507 152.144 548.731 152.648 549.179 153.032C549.643 153.4 550.291 153.584 551.123 153.584ZM559.836 155V137.72H561.852V148.112L566.724 143.096H569.196L563.916 148.472L569.868 155H567.3L561.852 148.832V155H559.836ZM576.414 155.288C575.278 155.288 574.27 155.032 573.39 154.52C572.51 153.992 571.814 153.264 571.302 152.336C570.806 151.408 570.558 150.312 570.558 149.048C570.558 147.8 570.806 146.712 571.302 145.784C571.798 144.84 572.486 144.112 573.366 143.6C574.262 143.072 575.294 142.808 576.462 142.808C577.614 142.808 578.606 143.072 579.438 143.6C580.286 144.112 580.934 144.792 581.382 145.64C581.83 146.488 582.054 147.4 582.054 148.376C582.054 148.552 582.046 148.728 582.03 148.904C582.03 149.08 582.03 149.28 582.03 149.504H572.55C572.598 150.416 572.806 151.176 573.174 151.784C573.558 152.376 574.03 152.824 574.59 153.128C575.166 153.432 575.774 153.584 576.414 153.584C577.246 153.584 577.942 153.392 578.502 153.008C579.062 152.624 579.47 152.104 579.726 151.448H581.718C581.398 152.552 580.782 153.472 579.87 154.208C578.974 154.928 577.822 155.288 576.414 155.288ZM576.414 144.512C575.454 144.512 574.598 144.808 573.846 145.4C573.11 145.976 572.686 146.824 572.574 147.944H580.062C580.014 146.872 579.646 146.032 578.958 145.424C578.27 144.816 577.422 144.512 576.414 144.512ZM589.07 155.288C587.662 155.288 586.542 154.864 585.71 154.016C584.878 153.152 584.462 151.832 584.462 150.056V143.096H586.478V149.84C586.478 152.32 587.494 153.56 589.526 153.56C590.566 153.56 591.422 153.192 592.094 152.456C592.782 151.704 593.126 150.64 593.126 149.264V143.096H595.142V155H593.318L593.174 152.864C592.806 153.616 592.254 154.208 591.518 154.64C590.798 155.072 589.982 155.288 589.07 155.288ZM598.461 160.28V143.096H600.285L600.477 145.064C600.861 144.488 601.405 143.968 602.109 143.504C602.829 143.04 603.741 142.808 604.845 142.808C606.029 142.808 607.061 143.08 607.941 143.624C608.821 144.168 609.501 144.912 609.981 145.856C610.477 146.8 610.725 147.872 610.725 149.072C610.725 150.272 610.477 151.344 609.981 152.288C609.501 153.216 608.813 153.952 607.917 154.496C607.037 155.024 606.005 155.288 604.821 155.288C603.845 155.288 602.973 155.088 602.205 154.688C601.453 154.288 600.877 153.728 600.477 153.008V160.28H598.461ZM604.605 153.536C605.405 153.536 606.109 153.352 606.717 152.984C607.325 152.6 607.805 152.072 608.157 151.4C608.509 150.728 608.685 149.944 608.685 149.048C608.685 148.152 608.509 147.368 608.157 146.696C607.805 146.024 607.325 145.504 606.717 145.136C606.109 144.752 605.405 144.56 604.605 144.56C603.805 144.56 603.101 144.752 602.493 145.136C601.885 145.504 601.405 146.024 601.053 146.696C600.701 147.368 600.525 148.152 600.525 149.048C600.525 149.944 600.701 150.728 601.053 151.4C601.405 152.072 601.885 152.6 602.493 152.984C603.101 153.352 603.805 153.536 604.605 153.536ZM614.227 155.12C613.827 155.12 613.491 154.992 613.219 154.736C612.963 154.464 612.835 154.136 612.835 153.752C612.835 153.368 612.963 153.048 613.219 152.792C613.491 152.52 613.827 152.384 614.227 152.384C614.611 152.384 614.931 152.52 615.187 152.792C615.459 153.048 615.595 153.368 615.595 153.752C615.595 154.136 615.459 154.464 615.187 154.736C614.931 154.992 614.611 155.12 614.227 155.12Z" fill="black"/>
<line x1="624.5" y1="134" x2="624.5" y2="158" stroke="black"/>
<rect x="58.5" y="74.5" width="1045" height="120" rx="15.5" stroke="black"/>
</svg>
