<svg width="153" height="47" viewBox="0 0 153 47" fill="none" xmlns="http://www.w3.org/2000/svg">
<path d="M44.456 36.432C43.064 36.432 41.828 36.156 40.748 35.604C39.692 35.052 38.852 34.272 38.228 33.264L37.832 36H34.412V10.08H38.228V20.916C38.804 20.076 39.596 19.332 40.604 18.684C41.612 18.036 42.908 17.712 44.492 17.712C46.22 17.712 47.744 18.12 49.064 18.936C50.384 19.752 51.416 20.868 52.16 22.284C52.928 23.7 53.312 25.308 53.312 27.108C53.312 28.908 52.928 30.516 52.16 31.932C51.416 33.324 50.384 34.428 49.064 35.244C47.744 36.036 46.208 36.432 44.456 36.432ZM43.808 33.12C45.44 33.12 46.784 32.568 47.84 31.464C48.896 30.336 49.424 28.872 49.424 27.072C49.424 25.896 49.184 24.852 48.704 23.94C48.224 23.028 47.564 22.32 46.724 21.816C45.884 21.288 44.912 21.024 43.808 21.024C42.176 21.024 40.832 21.588 39.776 22.716C38.744 23.844 38.228 25.296 38.228 27.072C38.228 28.872 38.744 30.336 39.776 31.464C40.832 32.568 42.176 33.12 43.808 33.12ZM65.7913 36.432C64.0393 36.432 62.4793 36.048 61.1113 35.28C59.7673 34.488 58.7113 33.396 57.9433 32.004C57.1753 30.612 56.7913 28.992 56.7913 27.144C56.7913 25.272 57.1633 23.628 57.9073 22.212C58.6753 20.796 59.7313 19.692 61.0753 18.9C62.4433 18.108 64.0273 17.712 65.8273 17.712C67.5793 17.712 69.1033 18.108 70.3993 18.9C71.6953 19.668 72.7033 20.7 73.4233 21.996C74.1433 23.292 74.5033 24.72 74.5033 26.28C74.5033 26.52 74.4913 26.784 74.4673 27.072C74.4673 27.336 74.4553 27.636 74.4313 27.972H60.5353C60.6553 29.7 61.2193 31.02 62.2273 31.932C63.2593 32.82 64.4473 33.264 65.7913 33.264C66.8713 33.264 67.7713 33.024 68.4913 32.544C69.2353 32.04 69.7873 31.368 70.1473 30.528H73.9633C73.4833 32.208 72.5233 33.612 71.0833 34.74C69.6673 35.868 67.9033 36.432 65.7913 36.432ZM65.7913 20.844C64.5193 20.844 63.3913 21.228 62.4073 21.996C61.4233 22.74 60.8233 23.868 60.6073 25.38H70.6873C70.6153 23.988 70.1233 22.884 69.2113 22.068C68.2993 21.252 67.1593 20.844 65.7913 20.844ZM84.5108 36.432C82.9988 36.432 81.7508 36.18 80.7668 35.676C79.7828 35.172 79.0508 34.512 78.5708 33.696C78.0908 32.856 77.8508 31.944 77.8508 30.96C77.8508 29.232 78.5228 27.864 79.8668 26.856C81.2108 25.848 83.1308 25.344 85.6268 25.344H90.3068V25.02C90.3068 23.628 89.9228 22.584 89.1548 21.888C88.4108 21.192 87.4388 20.844 86.2388 20.844C85.1828 20.844 84.2588 21.108 83.4668 21.636C82.6988 22.14 82.2308 22.896 82.0628 23.904H78.2468C78.3668 22.608 78.7988 21.504 79.5428 20.592C80.3108 19.656 81.2708 18.948 82.4228 18.468C83.5988 17.964 84.8828 17.712 86.2748 17.712C88.7708 17.712 90.7028 18.372 92.0708 19.692C93.4388 20.988 94.1228 22.764 94.1228 25.02V36H90.8108L90.4868 32.94C89.9828 33.924 89.2508 34.752 88.2908 35.424C87.3308 36.096 86.0708 36.432 84.5108 36.432ZM85.2668 33.336C86.2988 33.336 87.1628 33.096 87.8588 32.616C88.5788 32.112 89.1308 31.452 89.5148 30.636C89.9228 29.82 90.1748 28.92 90.2708 27.936H86.0228C84.5108 27.936 83.4308 28.2 82.7828 28.728C82.1588 29.256 81.8468 29.916 81.8468 30.708C81.8468 31.524 82.1468 32.172 82.7468 32.652C83.3708 33.108 84.2108 33.336 85.2668 33.336ZM105.16 36.432C103 36.432 101.296 35.76 100.048 34.416C98.8242 33.072 98.2122 31.068 98.2122 28.404V18.144H102.028V28.008C102.028 31.464 103.444 33.192 106.276 33.192C107.692 33.192 108.856 32.688 109.768 31.68C110.68 30.672 111.136 29.232 111.136 27.36V18.144H114.952V36H111.568L111.28 32.868C110.728 33.972 109.912 34.848 108.832 35.496C107.776 36.12 106.552 36.432 105.16 36.432ZM127.295 36C125.543 36 124.151 35.58 123.119 34.74C122.087 33.876 121.571 32.352 121.571 30.168V21.348H118.511V18.144H121.571L122.039 13.608H125.387V18.144H130.427V21.348H125.387V30.168C125.387 31.152 125.591 31.836 125.999 32.22C126.431 32.58 127.163 32.76 128.195 32.76H130.247V36H127.295ZM136.449 43.92L140.733 34.524H139.689L132.633 18.144H136.773L142.245 31.356L147.969 18.144H152.001L140.481 43.92H136.449Z" fill="black"/>
<path d="M4.824 15.372C3.984 15.372 3.288 15.12 2.736 14.616C2.208 14.112 1.944 13.476 1.944 12.708C1.944 11.94 2.208 11.316 2.736 10.836C3.288 10.332 3.984 10.08 4.824 10.08C5.664 10.08 6.348 10.332 6.876 10.836C7.428 11.316 7.704 11.94 7.704 12.708C7.704 13.476 7.428 14.112 6.876 14.616C6.348 15.12 5.664 15.372 4.824 15.372ZM2.52 36V18.144H7.128V36H2.52ZM20.1457 36.432C18.4657 36.432 16.9657 36.024 15.6457 35.208C14.3257 34.392 13.2817 33.276 12.5137 31.86C11.7457 30.444 11.3617 28.836 11.3617 27.036C11.3617 25.236 11.7457 23.64 12.5137 22.248C13.2817 20.832 14.3257 19.728 15.6457 18.936C16.9657 18.12 18.4657 17.712 20.1457 17.712C21.4897 17.712 22.6657 17.964 23.6737 18.468C24.6817 18.972 25.4977 19.68 26.1217 20.592V10.08H30.7297V36H26.6257L26.1217 33.444C25.5457 34.236 24.7777 34.932 23.8177 35.532C22.8817 36.132 21.6577 36.432 20.1457 36.432ZM21.1177 32.4C22.6057 32.4 23.8177 31.908 24.7537 30.924C25.7137 29.916 26.1937 28.632 26.1937 27.072C26.1937 25.512 25.7137 24.24 24.7537 23.256C23.8177 22.248 22.6057 21.744 21.1177 21.744C19.6537 21.744 18.4417 22.236 17.4817 23.22C16.5217 24.204 16.0417 25.476 16.0417 27.036C16.0417 28.596 16.5217 29.88 17.4817 30.888C18.4417 31.896 19.6537 32.4 21.1177 32.4Z" fill="#FBCB00"/>
<line x1="11" y1="45" x2="53" y2="45" stroke="black" stroke-width="4"/>
</svg>
