<svg width="364" height="364" viewBox="0 0 364 364" fill="none" xmlns="http://www.w3.org/2000/svg">
<path d="M91.77 283.64C91.77 283.64 101.395 283.787 108.5 280.595" stroke="#221F1F" stroke-width="2.5" stroke-miterlimit="10"/>
<path d="M181.3 61.075C180.435 60.4466 179.494 59.9292 178.5 59.535C177.446 59.1112 176.308 58.934 175.175 59.017C174.023 59.134 172.92 59.541 171.969 60.2C171.1 60.8038 170.306 61.5088 169.603 62.3C169.498 62.398 171.003 63.7 171.059 63.616C171.652 62.9368 172.321 62.3284 173.054 61.803C173.733 61.3378 174.517 61.0491 175.336 60.963C176.171 60.9116 177.008 61.0455 177.786 61.355C178.618 61.6992 179.407 62.1385 180.138 62.664C180.61 62.2015 181.002 61.6647 181.3 61.075Z" fill="#232020"/>
<path d="M128.8 99.638L133.189 97.538C134.652 96.838 136.108 96.138 137.543 95.438C138.978 94.738 140.343 93.828 141.813 93.261C143.324 92.6389 144.886 92.1494 146.482 91.798L146.587 91.98C145.523 93.2664 144.241 94.3563 142.8 95.2C141.354 95.9692 139.831 96.5862 138.257 97.041C136.727 97.5916 135.182 98.098 133.623 98.56C132.062 99.008 130.508 99.463 128.933 99.855L128.8 99.638Z" fill="#221F1F"/>
<path d="M219.555 31.92C219.373 32.004 215.53 30.023 212.828 30.618C208.397 31.591 206.038 34.678 204.337 38.318C202.86 41.44 201.474 44.618 199.906 47.691C198.779 49.924 197.659 53.711 198.506 56.413C199.451 59.451 202.209 59.493 204.722 59.766C210.896 60.466 216.874 63.483 223.566 61.495C225.19 61.012 235.795 60.158 235.949 57.995C236.677 47.411 232.68 25.746 219.555 31.92ZM224 50.624C223.615 50.946 223.384 51.933 223.167 52.395C220.976 58.849 214.438 61.404 210.301 55.692C207.564 51.912 207.501 47.558 207.501 43.092C207.501 43.092 214.396 43.533 218.232 38.605C218.232 38.605 221.403 45.451 224.364 44.653C224.799 44.5493 225.253 44.5483 225.689 44.6501C226.125 44.7519 226.531 44.9538 226.875 45.2397C227.219 45.5256 227.492 45.8877 227.673 46.2974C227.853 46.707 227.935 47.153 227.913 47.6C227.906 50.19 225.4 49.455 224 50.624Z" fill="#221F1F"/>
<path d="M223.685 50.246C223.59 50.4661 223.556 50.7081 223.587 50.946C223.587 51.142 223.587 51.317 223.629 51.492C223.674 51.8475 223.674 52.2074 223.629 52.563C223.588 52.9089 223.517 53.2507 223.419 53.585C223.313 53.9364 223.172 54.2764 222.999 54.6C222.468 55.7521 221.704 56.782 220.756 57.6252C219.808 58.4683 218.696 59.1066 217.49 59.5C216.202 59.873 214.829 59.8339 213.563 59.388C212.342 58.9212 211.249 58.1729 210.371 57.204C208.953 55.6016 207.942 53.6806 207.424 51.604C206.954 49.5941 206.719 47.5362 206.724 45.472V44.296V42.231C207.214 42.231 207.711 42.28 208.187 42.28H208.656H209.013C209.489 42.245 209.958 42.182 210.413 42.105C211.345 41.9259 212.257 41.6563 213.136 41.3C214.01 40.9702 214.838 40.5304 215.6 39.991L216.16 39.571L216.664 39.102L216.797 38.983H216.832C216.862 38.9568 216.89 38.9287 216.916 38.899L217.035 38.766L217.511 38.227L218.449 37.1L219.1 38.5C219.31 38.92 219.611 39.466 219.681 39.592C219.933 40.026 220.192 40.453 220.465 40.866C220.981 41.6779 221.594 42.4232 222.292 43.085C222.595 43.3722 222.943 43.6086 223.321 43.785C223.473 43.8483 223.633 43.8884 223.797 43.904C223.872 43.911 223.947 43.911 224.021 43.904L224.35 43.841C224.988 43.7365 225.642 43.7894 226.254 43.995C226.884 44.1988 227.444 44.5746 227.871 45.08C228.274 45.5607 228.546 46.1368 228.662 46.753C228.799 47.352 228.799 47.974 228.662 48.573C228.581 48.9293 228.424 49.2638 228.2 49.553C227.975 49.8371 227.697 50.0749 227.381 50.253C226.885 50.4976 226.364 50.6877 225.827 50.82C225.533 50.911 225.253 51.03 225.036 51.093C224.825 51.1779 224.589 51.1779 224.378 51.093C224.231 51.002 224.154 50.813 224.315 50.498C224.399 50.379 224.483 50.176 224.63 50.12C225.29 49.8726 225.925 49.5632 226.527 49.196C226.74 49.0486 226.912 48.8484 227.024 48.615C227.113 48.3918 227.163 48.155 227.171 47.915C227.2 47.6225 227.184 47.3274 227.122 47.04C227.073 46.7411 226.963 46.4554 226.8 46.2C226.64 45.9847 226.439 45.8034 226.208 45.6664C225.977 45.5295 225.722 45.4396 225.456 45.402C225.19 45.356 224.918 45.356 224.651 45.402H224.56L224.378 45.444C224.254 45.4715 224.127 45.4879 224 45.493C223.742 45.51 223.483 45.4911 223.23 45.437C222.363 45.2105 221.571 44.7589 220.934 44.128C220.032 43.2521 219.259 42.2528 218.638 41.16L218.33 40.614L218.183 40.341C218.144 40.2755 218.109 40.2077 218.078 40.138C218.082 40.0984 218.082 40.0585 218.078 40.019C218.078 40.019 218.036 40.019 218.001 40.019L217.791 40.201L217.371 40.572C216.554 41.2536 215.653 41.8276 214.69 42.28C213.753 42.7564 212.767 43.1319 211.75 43.4C211.111 43.5516 210.464 43.6662 209.811 43.743C209.461 43.785 209.111 43.82 208.712 43.841H208.264C208.26 43.8946 208.26 43.9484 208.264 44.002V44.8C208.264 45.416 208.264 46.067 208.327 46.739C208.387 48.1718 208.588 49.5951 208.929 50.988C209.304 52.4552 209.937 53.8442 210.798 55.09C211.595 56.3068 212.742 57.2536 214.088 57.806C215.315 58.2228 216.654 58.1654 217.84 57.645C218.868 57.1952 219.778 56.515 220.5 55.657L220.948 55.111L221.298 54.579C221.496 54.2895 221.672 53.9853 221.823 53.669C221.991 53.3625 222.136 53.0443 222.257 52.717C222.327 52.556 222.397 52.402 222.481 52.241C222.565 52.08 222.593 52.031 222.628 51.961L222.754 51.702C222.852 51.513 222.95 51.31 223.076 51.072C223.223 50.7591 223.43 50.4783 223.685 50.246Z" fill="#221F1F"/>
<path d="M219.548 31.906C219.51 31.8384 219.487 31.7633 219.481 31.6859C219.475 31.6085 219.486 31.5307 219.513 31.458C219.513 31.458 219.569 31.458 219.59 31.458H219.506C219.436 31.462 219.366 31.462 219.296 31.458C219.156 31.458 219.009 31.458 218.855 31.458C218.561 31.458 218.267 31.458 217.966 31.402L216.195 31.234C215.071 31.0525 213.923 31.0763 212.807 31.304C210.909 31.7896 209.199 32.8332 207.9 34.3C206.587 35.8111 205.537 37.5312 204.792 39.389L202.153 45.066L200.83 47.901C200.388 48.7849 200.022 49.7053 199.738 50.652C199.211 52.2282 199.041 53.902 199.241 55.552C199.338 56.278 199.642 56.9607 200.116 57.519C200.632 58.0371 201.289 58.3904 202.006 58.534C202.841 58.7199 203.687 58.8463 204.54 58.912C205.45 59.017 206.367 59.164 207.263 59.332C209.055 59.682 210.763 60.13 212.527 60.515C214.454 60.9738 216.421 61.2435 218.4 61.32C218.89 61.32 219.38 61.32 219.87 61.32C220.36 61.32 220.843 61.257 221.319 61.159C221.791 61.0889 222.259 60.9908 222.719 60.865C223.235 60.721 223.759 60.6041 224.287 60.515C226.345 60.179 228.354 59.92 230.335 59.528C231.313 59.3483 232.281 59.1146 233.233 58.828C233.677 58.6931 234.108 58.5198 234.521 58.31C234.684 58.2288 234.837 58.1277 234.976 58.009C235.088 57.897 235.074 57.911 235.081 57.869C235.201 55.8609 235.177 53.8468 235.011 51.842C234.86 49.8198 234.582 47.8092 234.178 45.822C233.478 42.322 232.407 38.822 230.517 35.938C229.663 34.5676 228.498 33.4187 227.115 32.585C226.438 32.2168 225.705 31.9637 224.945 31.836C224.177 31.7324 223.397 31.7513 222.635 31.892C222.11 31.962 221.585 32.186 221.088 32.284C219.779 32.697 219.24 32.459 220.122 31.738C220.325 31.5369 220.562 31.3733 220.822 31.255C222.061 30.7697 223.371 30.4884 224.7 30.422C226.128 30.3855 227.529 30.8101 228.697 31.633C229.83 32.4647 230.817 33.4796 231.616 34.636C232.401 35.7564 233.076 36.9495 233.632 38.199C234.721 40.6683 235.534 43.2507 236.054 45.899C236.471 48.0082 236.743 50.1435 236.866 52.29C236.966 54.189 236.94 56.0925 236.789 57.988C236.74 58.3677 236.574 58.7227 236.313 59.003C236.107 59.214 235.871 59.3932 235.613 59.535C235.201 59.7673 234.77 59.964 234.325 60.123C232.66 60.6595 230.953 61.0553 229.222 61.306C228.032 61.516 226.674 61.705 225.211 61.929C224.847 61.985 224.476 62.041 224.119 62.111C223.923 62.111 223.832 62.174 223.608 62.23L222.999 62.384C222.585 62.4965 222.164 62.583 221.739 62.643C221.304 62.722 220.864 62.7758 220.423 62.804C218.552 62.9437 216.67 62.8473 214.823 62.517C212.919 62.202 210.994 61.719 209.041 61.278C208.068 61.061 207.088 60.844 206.101 60.69C205.114 60.536 204.134 60.431 203.063 60.312C201.916 60.2193 200.801 59.8828 199.794 59.325C198.756 58.6476 198.017 57.5979 197.729 56.392C197.454 55.2942 197.385 54.1549 197.526 53.032C197.654 51.9637 197.889 50.9108 198.226 49.889C198.548 48.8963 198.946 47.9297 199.416 46.998C199.836 46.109 200.256 45.227 200.662 44.359C201.481 42.623 202.265 40.95 203.014 39.368C203.68 37.8087 204.483 36.3118 205.415 34.895C206.25 33.6504 207.3 32.5648 208.516 31.689C209.481 30.9989 210.552 30.4715 211.687 30.128C211.925 30.044 212.156 30.002 212.387 29.946C212.791 29.8312 213.207 29.7654 213.626 29.75C213.794 29.7401 213.962 29.7401 214.13 29.75C214.489 29.757 214.847 29.7898 215.201 29.848C215.919 29.9675 216.622 30.1598 217.301 30.422C217.665 30.562 218.043 30.716 218.456 30.898L219.086 31.185L219.408 31.332L219.562 31.395H219.632H219.576V31.444C219.536 31.5138 219.513 31.5917 219.508 31.6718C219.503 31.7518 219.517 31.832 219.548 31.906Z" fill="#221F1F"/>
<path d="M234.5 67.158C232.806 70.084 229.404 72.373 225.729 73.542C219.499 75.5629 212.763 75.3797 206.651 73.0231C200.54 70.6664 195.425 66.2798 192.164 60.599C191.44 59.3991 190.806 58.1473 190.267 56.854C190.001 56.203 189.805 55.524 189.567 54.859C189.462 54.53 189.343 54.159 189.245 53.858L189 52.829L188.776 51.8C188.692 51.4598 188.636 51.1133 188.608 50.764L188.398 48.664C188.356 47.964 188.398 47.264 188.398 46.564C188.403 45.8611 188.456 45.1594 188.559 44.464C188.721 43.072 188.985 41.6939 189.35 40.341L190.001 38.346C190.211 37.646 190.54 37.058 190.799 36.407C191.935 33.861 193.414 31.4823 195.195 29.337C195.552 28.854 195.972 28.427 196.371 27.986C196.77 27.545 197.169 27.09 197.61 26.684C198.467 25.8539 199.367 25.0688 200.305 24.332C202.182 22.845 204.217 21.5702 206.374 20.531C207.457 20.0188 208.57 19.5723 209.706 19.194C210.267 18.9818 210.84 18.8019 211.421 18.655L213.171 18.235C215.532 17.7467 217.949 17.5889 220.353 17.766C225.195 18.1255 229.83 19.8811 233.695 22.82L234.395 23.345C234.633 23.527 234.85 23.737 235.095 23.933L236.439 25.123C236.885 25.5218 237.303 25.9498 237.692 26.404L238.903 27.72C239.316 28.154 239.645 28.665 240.016 29.12C240.387 29.575 240.758 30.065 241.073 30.576L242.004 32.123C242.151 32.382 242.319 32.627 242.459 32.9L242.844 33.712C244.116 36.2539 244.98 38.9798 245.406 41.79C245.49 42.49 245.651 43.19 245.672 43.89L245.784 45.99C245.787 47.4089 245.691 48.8263 245.497 50.232C245.315 51.5774 245.048 52.91 244.699 54.222C244.503 54.873 244.272 55.51 244.062 56.161C243.943 56.476 243.859 56.812 243.719 57.12L243.299 58.051L242.9 59.01C242.769 59.3243 242.614 59.6284 242.438 59.92L241.43 61.698C241.08 62.286 240.653 62.818 240.268 63.378L239.673 64.211C239.463 64.477 239.232 64.729 239.008 64.988C238.447 65.7103 237.818 66.3782 237.132 66.983C235.326 68.481 234.633 68.383 235.592 66.983C235.789 66.6297 236.024 66.2988 236.292 65.996C236.474 65.828 236.663 65.66 236.831 65.478L237.3 64.911L238.175 63.798C238.461 63.4321 238.716 63.0435 238.938 62.636L239.638 61.46C239.871 61.0648 240.079 60.6557 240.261 60.235L240.87 58.975C241.269 58.114 241.57 57.19 242.039 56.252C243.456 52.6655 244.059 48.8089 243.803 44.961C243.558 41.1321 242.498 37.3997 240.695 34.013C239.207 31.3362 237.342 28.8869 235.158 26.74C232.407 23.9519 229.034 21.8553 225.316 20.622C224.404 20.3114 223.467 20.0772 222.516 19.922C221.843 19.7746 221.16 19.681 220.472 19.642C219.666 19.5773 218.857 19.5633 218.05 19.6C213.723 19.7094 209.488 20.8774 205.716 23.002C200.867 25.6552 196.814 29.5557 193.977 34.3C192.451 36.8655 191.376 39.6734 190.799 42.602C190.212 45.5677 190.195 48.6181 190.75 51.59L190.988 52.696C191.052 53.0653 191.148 53.4283 191.275 53.781C191.513 54.481 191.751 55.181 191.975 55.881L192.92 57.911L193.151 58.415L193.438 58.891L194.012 59.843L194.579 60.795C194.775 61.11 195.02 61.39 195.23 61.684L196.546 63.434L198.009 65.1L198.373 65.492C198.499 65.618 198.639 65.73 198.765 65.849L199.556 66.549C201.567 68.3335 203.85 69.7867 206.318 70.854L207.186 71.246L208.075 71.554C208.67 71.743 209.237 71.974 209.818 72.135C210.942 72.4366 212.082 72.6703 213.234 72.835C216.86 73.3825 220.56 73.1679 224.098 72.205C224.42 72.121 224.742 72.058 225.029 71.96L225.848 71.666L227.178 71.19C227.878 70.889 228.347 70.651 228.487 70.602L229.817 70.014L231.217 69.272C232.355 68.6369 233.451 67.9308 234.5 67.158Z" fill="#221F1F"/>
<path d="M152.131 152.894C152.831 152.348 153.531 151.837 154.161 151.256L155.141 150.402L156.072 149.506C156.716 148.918 157.255 148.253 157.843 147.623C158.116 147.294 158.375 146.958 158.641 146.622L159.04 146.118L159.39 145.586C159.614 145.229 159.873 144.886 160.09 144.515L160.685 143.402C160.881 143.031 161.007 142.632 161.175 142.247C161.262 142.061 161.337 141.869 161.399 141.673L161.553 141.12C161.825 139.433 161.919 137.723 161.833 136.017C161.756 133.462 161.476 130.893 161.196 128.317C160.188 119.266 158.62 110.25 156.996 101.248L155.883 95.256C155.701 94.248 155.512 93.254 155.351 92.239L155.239 91.469C155.198 91.2026 155.177 90.9335 155.176 90.664C155.145 90.1394 155.145 89.6135 155.176 89.089C155.337 86.422 155.995 83.888 155.827 81.445C155.78 80.2547 155.449 79.093 154.861 78.057C154.299 77.0426 153.429 76.2335 152.376 75.747C151.732 75.481 151.424 75.369 151.466 75.187C151.508 75.005 151.907 74.83 152.67 74.879C153.735 75.0155 154.722 75.509 155.47 76.279C156.606 77.3494 157.347 78.773 157.57 80.318C158.004 83.279 157.269 85.988 157.024 88.487C156.955 89.1029 156.92 89.7222 156.919 90.342C156.919 90.636 156.919 90.951 156.961 91.217C157.003 91.483 157.038 91.833 157.087 92.148C157.29 93.422 157.521 94.7309 157.787 96.0259C158.718 101.234 159.642 106.463 160.447 111.741C161.406 118.041 162.547 124.6 163.17 131.131C163.324 132.93 163.45 134.736 163.485 136.556C163.583 138.425 163.416 140.299 162.988 142.121C162.372 143.884 161.504 145.548 160.412 147.063C159.321 148.538 158.1 149.913 156.765 151.172C153.463 154.179 149.808 156.774 145.88 158.9C140.001 162.146 133.825 164.821 127.435 166.887C122.575 168.563 117.596 169.871 112.539 170.8L110.866 171.066L109.179 171.276C107.676 171.455 106.16 171.492 104.65 171.388C104.245 171.349 103.842 171.281 103.446 171.185C103.172 171.099 102.909 170.981 102.662 170.835C102.464 170.735 102.277 170.615 102.102 170.478C101.759 170.065 103.439 170.086 106.435 169.876C111.014 169.467 115.547 168.649 119.98 167.433C124.57 166.226 129.082 164.739 133.49 162.981C140.049 160.328 146.482 157.129 152.096 152.887L152.131 152.894Z" fill="#221F1F"/>
<path d="M167.664 63.224L152.117 73.934C150.682 74.921 154.112 74.564 154.777 74.109L170.324 63.399C171.759 62.405 168.329 62.769 167.664 63.224Z" fill="#221F1F"/>
<path d="M126.798 102.2L126.133 102.459L125.888 102.536L125.629 102.501C125.457 102.487 125.286 102.459 125.118 102.417C124.874 102.349 124.639 102.252 124.418 102.13C124.215 102.025 124.019 101.908 123.83 101.78C123.133 101.28 122.529 100.661 122.045 99.953C121.512 99.2204 121.179 98.3615 121.079 97.461C121.051 97.2075 121.051 96.9516 121.079 96.698L121.163 96.306C121.212 96.159 121.282 96.005 121.345 95.851C121.401 95.508 121.758 95.354 121.982 95.186L122.437 94.871L125.069 93.009L134.47 86.618C135.87 85.673 137.221 84.672 138.565 83.685C140.25 82.3565 142.002 81.1159 143.815 79.968C144.97 79.268 144.515 81.585 142.534 83.034C138.985 85.596 135.387 88.081 131.656 90.454C129.43 91.854 127.232 93.527 125.013 95.067L123.2 96.32L122.85 96.558C122.78 96.558 122.78 96.67 122.745 96.726C122.691 96.9775 122.691 97.2376 122.745 97.489C123.06 98.7545 123.859 99.8456 124.971 100.527C125.125 100.627 125.289 100.709 125.461 100.772C125.601 100.814 125.685 100.856 125.79 100.814L126.98 100.352L129.535 99.358C132.104 98.343 134.701 97.349 137.235 96.299C139.209 95.48 141.106 94.584 143.031 93.723C143.458 93.534 143.864 93.331 144.298 93.149C145.894 92.449 146.454 92.372 146.965 92.645C147.086 92.6951 147.201 92.7584 147.308 92.834C147.595 93.093 147.042 93.625 145.908 94.199C142.527 95.893 138.859 97.433 135.156 98.931L126.819 102.2H126.798Z" fill="#221F1F"/>
<path d="M169.113 84.168L165.907 85.498C165.522 85.666 165.158 85.876 164.766 86.03C163.366 86.597 162.001 87.136 160.629 87.71C160.02 87.962 159.432 88.263 158.851 88.564C158.137 89.0152 157.367 89.3728 156.562 89.628C156.044 89.747 155.946 87.997 156.814 87.57C158.353 86.7944 159.949 86.1368 161.588 85.603C162.578 85.2332 163.548 84.8103 164.493 84.336C165.564 83.874 166.635 83.426 167.706 82.936C168.364 82.649 169.029 82.376 169.68 82.082C170.674 81.641 171.682 81.221 172.641 80.738C173.39 80.367 174.083 79.905 174.797 79.485C174.951 79.394 175.098 79.289 175.266 79.205C175.868 78.883 176.113 78.897 176.435 79.205C176.505 79.282 176.589 79.352 176.652 79.436C176.862 79.723 176.729 80.136 176.323 80.409C175.065 81.2999 173.724 82.0665 172.319 82.698C171.269 83.195 170.219 83.657 169.134 84.133L169.113 84.168Z" fill="#221F1F"/>
<path d="M183.302 76.3C181.902 78.449 179.214 79.324 176.729 79.443L177.653 80.0591C178.007 77.6108 177.87 75.1166 177.252 72.7216C176.633 70.3266 175.544 68.0785 174.048 66.1081C173.08 64.9002 171.991 63.7933 170.8 62.8041C170.289 62.3631 170.1 62.65 170.1 62.391C170.149 61.761 171.542 60.781 171.948 60.515C175.385 58.324 177.317 59.7661 179.83 62.3561C183.61 66.2551 184.471 71.3231 183.232 76.503C183.008 77.441 185.073 77.2031 185.283 76.3281C186.935 69.4191 184.583 62.8251 178.591 58.9121C175.189 56.6931 169.722 58.912 168.014 62.489C167.945 62.6051 167.924 62.744 167.957 62.8752C167.99 63.0064 168.073 63.1193 168.189 63.189C170.866 65.0932 172.971 67.693 174.276 70.7072C175.581 73.7214 176.038 77.0352 175.595 80.29C175.532 80.801 176.141 80.927 176.519 80.913C179.9 80.752 183.302 79.422 185.22 76.545C185.829 75.6 183.764 75.6 183.302 76.3Z" fill="#221F1F"/>
<path d="M148.176 77C147.861 77.119 148.428 76.937 148.526 76.916C148.843 76.8473 149.167 76.8168 149.492 76.825C150.035 76.8441 150.559 77.0268 150.996 77.349C151.433 77.6713 151.763 78.1182 151.942 78.631C152.138 79.114 153.342 78.757 153.153 78.302C152.215 76.048 149.793 75.621 147.665 76.391C146.874 76.678 147.581 77.217 148.176 77Z" fill="#221F1F"/>
<path d="M147.119 77.938H147.224C147.042 78.001 147.343 77.903 147.399 77.889C147.639 77.8281 147.886 77.7998 148.134 77.805C148.541 77.835 148.922 78.0173 149.201 78.3157C149.48 78.6141 149.637 79.0066 149.639 79.415C149.681 79.744 151.039 79.457 150.955 79.058C150.661 76.874 148.267 76.958 146.636 77.581C146.482 77.644 146.118 77.798 146.258 78.015C146.398 78.232 146.958 78.015 147.119 77.973V77.938Z" fill="#221F1F"/>
<path d="M145.278 79.009C145.424 78.8955 145.599 78.8252 145.782 78.806C146.538 78.736 147.014 79.506 147.259 80.066C147.427 80.465 148.722 80.066 148.582 79.716C148.432 79.2423 148.128 78.8323 147.719 78.5508C147.309 78.2694 146.817 78.1325 146.321 78.162C145.674 78.193 145.044 78.3829 144.487 78.715C143.738 79.184 144.907 79.24 145.278 79.009Z" fill="#221F1F"/>
<path d="M126.469 144.732C132.132 139.958 139.258 136.682 146.202 134.316C148.085 133.679 146.363 132.776 145.096 133.21C137.732 135.716 130.2 139.251 124.201 144.305C122.969 145.341 125.783 145.313 126.469 144.732Z" fill="#221F1F"/>
<path d="M143.885 120.778C143.822 119.266 143.787 117.761 143.766 116.263C143.766 115.71 143.71 115.164 143.71 114.618C143.71 112.686 143.78 110.754 143.829 108.829C143.829 107.968 143.829 107.114 143.829 106.26C143.752 105.168 143.78 104.071 143.913 102.984C144.032 102.284 145.446 103.215 145.432 104.454C145.432 106.666 145.355 108.871 145.18 111.104C145.082 112.441 145.18 113.827 145.18 115.192C145.18 116.69 145.236 118.188 145.299 119.693C145.341 120.61 145.376 121.534 145.453 122.458C145.551 123.858 145.67 125.258 145.894 126.616C146.079 127.661 146.327 128.694 146.636 129.71C146.699 129.934 146.776 130.151 146.832 130.375C147.077 131.201 147.049 131.488 146.713 131.775C146.641 131.846 146.564 131.912 146.482 131.971C146.209 132.146 145.873 131.866 145.614 131.271C144.898 129.367 144.428 127.379 144.214 125.356C144.032 123.844 143.913 122.318 143.822 120.799L143.885 120.778Z" fill="#221F1F"/>
<path d="M147.826 140C148.708 139.3 149.583 138.523 149.744 137.816C149.842 137.263 149.968 136.717 150.066 136.157L150.234 134.407C150.388 132.048 150.402 129.647 150.318 127.239C150.276 125.489 150.122 123.739 150.031 121.982C149.646 115.787 149.072 109.592 148.372 103.411C148.209 102.039 148.043 100.667 147.875 99.2951C147.791 98.5951 147.7 97.895 147.616 97.237C147.532 96.579 147.455 95.837 147.399 95.137C147.251 93.4569 146.862 91.8067 146.244 90.237C145.62 88.7084 144.644 87.3486 143.395 86.268C142.597 85.638 142.891 85.316 143.927 85.526C144.227 85.6085 144.52 85.7162 144.802 85.848C145.162 86.045 145.5 86.2797 145.81 86.548C146.608 87.1809 147.254 87.9846 147.7 88.9C148.497 90.6711 148.987 92.5648 149.149 94.5C149.205 94.962 149.233 95.431 149.261 95.9C149.289 96.369 149.338 96.726 149.394 97.181L149.695 99.855C150.101 103.439 150.472 107.037 150.752 110.663C151.088 114.996 151.599 119.49 151.837 123.963C151.984 126.406 152.04 128.863 152.04 131.327L151.977 133.175C151.977 133.791 151.935 134.407 151.865 135.03C151.795 135.653 151.781 136.269 151.648 136.899L151.466 137.837C151.419 138.177 151.327 138.508 151.193 138.824C150.806 139.575 150.27 140.239 149.618 140.777C149.025 141.279 148.403 141.746 147.756 142.177C146.486 143.015 145.173 143.786 143.822 144.487C139.762 146.587 135.534 148.393 131.341 150.087C128.079 151.396 124.887 152.705 121.604 153.881C120.904 154.14 120.204 154.406 119.441 154.644C116.711 155.533 115.773 155.645 115.066 155.344C114.904 155.299 114.749 155.233 114.604 155.148C114.254 154.875 115.304 154.336 117.257 153.65C123.053 151.55 129.157 149.268 135.135 146.692C137.354 145.733 139.559 144.732 141.715 143.647C143.855 142.615 145.9 141.397 147.826 140.007V140Z" fill="#221F1F"/>
<path d="M73.6681 266.07C72.9121 268.541 72.1001 270.97 71.1131 273.413C70.6171 274.638 70.0587 275.836 69.4401 277.004C69.1111 277.592 68.7401 278.173 68.3761 278.747L68.2361 278.957L68.1941 279.013L68.1101 279.118C68.0401 279.202 68.0331 279.195 67.9911 279.244C68.0537 279.294 68.1249 279.332 68.2011 279.356C68.7331 279.573 69.3141 279.797 69.8811 279.986C71.0221 280.385 72.1911 280.686 73.3811 281.015C75.7481 281.599 78.156 282.001 80.5841 282.219C85.4657 282.641 90.3815 282.424 95.2071 281.575C97.9091 281.148 100.597 280.658 103.264 280.084C104.594 279.79 105.917 279.489 107.219 279.132C108.521 278.775 109.795 278.362 111.118 277.956C115.692 276.592 120.078 274.661 124.173 272.209C126.18 270.977 128.057 269.544 129.773 267.932C130.179 267.512 130.613 267.113 131.005 266.672L131.474 266.154C131.495 266.139 131.511 266.119 131.521 266.095C131.53 266.072 131.534 266.046 131.53 266.021V265.811L131.166 262.206C130.158 252.588 128.912 242.977 127.785 233.352C126.777 224.819 125.783 216.223 125.055 207.711C124.614 202.237 124.187 196.749 124.061 191.24C124.012 189.84 123.977 188.489 123.991 187.11V182.973C124.103 180.222 124.18 177.464 124.481 174.727C124.796 171.304 125.244 171.829 125.496 174.727C125.559 175.427 125.608 176.33 125.643 177.331C125.678 178.332 125.776 179.431 125.818 180.698C125.867 183.169 126.028 186.06 126.035 189.189C126.28 200.319 127.239 211.435 128.436 222.558C129.633 233.681 131.04 244.825 132.251 256.053C132.433 257.733 132.608 259.42 132.79 261.114C132.972 262.934 133.156 264.759 133.343 266.588C133.15 266.877 132.93 267.147 132.685 267.393L132.244 267.89C131.95 268.226 131.621 268.527 131.313 268.842C131.005 269.157 130.676 269.458 130.347 269.759C130.018 270.06 129.696 270.354 129.346 270.627C127.988 271.763 126.549 272.8 125.041 273.728C122.035 275.566 118.858 277.111 115.556 278.341C113.911 278.957 112.238 279.524 110.593 280.028C108.929 280.58 107.237 281.047 105.525 281.428C102.242 282.184 98.9451 282.786 95.6411 283.311C92.3091 283.888 88.9356 284.192 85.5541 284.221C82.166 284.242 78.7837 283.94 75.4531 283.318C73.7987 282.999 72.1629 282.59 70.5531 282.093C69.7411 281.841 68.9361 281.568 68.1381 281.267L67.5431 281.029C67.2351 280.903 66.9271 280.777 66.6401 280.644L65.7791 280.238L65.3591 280.021C65.2331 279.951 65.0371 279.881 65.0161 279.804L65.8001 279.034L66.5001 278.243C66.6051 278.117 66.7451 277.963 66.8151 277.865L66.9971 277.592L67.3611 277.046C67.8091 276.29 68.2221 275.499 68.6071 274.687C70.4443 270.434 71.9446 266.043 73.0941 261.555C74.3121 257.061 75.3761 252.518 76.3631 247.968C79.3171 234.15 81.6831 220.136 83.7621 206.262C85.3651 195.468 86.6951 184.849 87.9621 174.146C88.2351 171.787 88.5081 169.477 88.7811 167.097C89.8311 158.284 90.2581 155.491 90.9721 153.65C91.1118 153.238 91.273 152.834 91.4551 152.439C91.9311 151.634 91.8541 155.239 91.1961 161.749C89.2221 180.95 86.5621 201.138 83.2371 221.319C81.9981 228.816 80.6541 236.313 79.1351 243.782C77.6161 251.251 75.9361 258.713 73.7521 266.07H73.6681Z" fill="#221F1F"/>
<path d="M91.147 283.752L91.259 299.803C91.259 299.992 92.722 299.978 92.708 299.803L92.603 283.745C92.1276 283.604 91.621 283.606 91.147 283.752Z" fill="#232020"/>
<path d="M102.683 300.37L103.145 281.932C103.145 281.715 101.696 281.68 101.696 281.897L101.234 300.356C101.234 300.419 101.423 300.454 101.675 300.482L101.962 300.202C102 300.212 102.036 300.23 102.066 300.255C102.097 300.281 102.121 300.313 102.137 300.349C102.15 300.368 102.156 300.39 102.156 300.412C102.156 300.435 102.15 300.456 102.137 300.475L101.962 300.307V300.643L101.794 300.475C101.781 300.495 101.775 300.518 101.775 300.542C101.775 300.565 101.781 300.588 101.794 300.608C101.812 300.644 101.838 300.676 101.869 300.701C101.901 300.726 101.937 300.745 101.976 300.755L102.263 300.482C102.487 300.475 102.683 300.433 102.683 300.37Z" fill="#232020"/>
<path d="M119 344.197C118.461 344.498 115.885 346.22 110.264 344.841C104.835 343.486 99.8161 340.832 95.641 337.106V343.483H92.141L91.938 298.62C94.9295 300.036 98.3001 300.441 101.542 299.775C103.516 300.558 105.547 301.188 107.618 301.658L105 337.176C108.773 338.975 113.309 340.508 116.263 341.747C116.263 341.747 120.092 343.602 119 344.197Z" fill="#221F1F"/>
<path d="M118.769 343.749C117.764 344.935 116.339 345.687 114.793 345.849C113.152 346.048 111.489 345.929 109.893 345.499C107.181 344.832 104.56 343.837 102.088 342.538C100.847 341.898 99.646 341.185 98.49 340.403C97.916 340.011 97.349 339.598 96.789 339.171L96.565 339.003C96.565 340.804 96.565 342.603 96.565 344.4H91.273L91.224 337.582C91.224 328.342 91.2076 319.1 91.175 309.855L91.126 297.332C91.714 297.577 92.316 297.85 92.911 298.088L93.359 298.263L93.576 298.34L93.688 298.382C93.842 298.438 93.996 298.494 94.143 298.536C94.7533 298.735 95.3751 298.896 96.005 299.019C97.2524 299.258 98.5274 299.319 99.792 299.201C100.107 299.201 100.415 299.124 100.73 299.075L101.255 298.97C101.56 298.906 101.878 298.945 102.158 299.082C102.774 299.32 103.404 299.544 104.034 299.782C104.664 300.02 105.294 300.202 105.924 300.384C106.239 300.482 106.554 300.566 106.862 300.643C106.953 300.643 107.359 300.748 107.632 300.804L108.563 300.979L107.002 321.93L105.952 335.979L105.903 336.623V336.665L105.994 336.707L107.247 337.253C108.269 337.687 109.303 338.102 110.348 338.499L113.498 339.689L115.08 340.284L115.878 340.599L116.277 340.753L116.473 340.837C116.559 340.867 116.643 340.902 116.725 340.942C117.462 341.276 118.165 341.679 118.825 342.146C119.236 342.44 119.576 342.823 119.819 343.266C119.899 343.415 119.946 343.581 119.956 343.75C119.965 343.919 119.938 344.088 119.875 344.246C119.839 344.347 119.779 344.438 119.699 344.51C119.62 344.582 119.524 344.633 119.42 344.659C119.21 344.659 119.231 344.575 119.336 344.379C119.38 344.306 119.407 344.225 119.417 344.14C119.427 344.056 119.418 343.97 119.392 343.889C119.312 343.731 119.191 343.598 119.042 343.504C118.762 343.315 118.405 343.21 118.125 343.014C117.438 342.562 116.7 342.193 115.927 341.915C115.157 341.663 114.401 341.446 113.631 341.215C111.998 340.786 110.39 340.265 108.815 339.654C108.024 339.332 107.233 339.003 106.442 338.66L105.14 338.1C104.818 337.963 104.505 337.807 104.202 337.631L104.286 336.49L104.615 331.387L105.245 321.195C105.427 318.486 105.637 315.763 105.861 313.054L106.771 302.659C106.771 302.603 106.771 302.533 106.771 302.33L106.547 302.274C106.19 302.183 105.784 302.078 105.336 301.938C104.44 301.672 103.369 301.315 102.095 300.846L101.612 300.664L101.5 300.622C101.5 300.622 101.5 300.622 101.451 300.622L100.975 300.72C100.779 300.755 100.576 300.776 100.373 300.804C99.5004 300.916 98.6195 300.949 97.741 300.902C96.7444 300.846 95.7553 300.696 94.787 300.454C94.276 300.328 93.758 300.167 93.233 299.992L92.883 299.866L92.736 299.803C92.792 310.884 92.89 331.548 92.939 342.727H94.85C94.85 338.478 94.85 336.756 94.85 335.307C95.508 335.93 96.173 336.567 96.782 337.113C97.09 337.358 97.384 337.61 97.678 337.813L98.182 338.198C98.826 338.688 99.47 339.129 100.093 339.535C101.22 340.27 102.388 340.939 103.593 341.537C105.322 342.383 107.118 343.086 108.962 343.637C110.329 344.069 111.736 344.36 113.162 344.505C113.995 344.589 114.833 344.605 115.668 344.554C116.749 344.519 117.808 344.244 118.769 343.749Z" fill="#221F1F"/>
<path d="M108.395 302.26L110.047 280.196C110.047 279.944 108.612 279.832 108.598 280.084L106.946 302.155C106.925 302.358 108.381 302.463 108.395 302.26Z" fill="#232020"/>
<path d="M132.048 146.755C130.151 153.692 131.152 160.475 133.049 167.321C133.189 167.811 134.813 167.377 134.673 166.88C132.797 160.111 131.782 153.398 133.665 146.524C133.798 146.027 132.181 146.258 132.048 146.755Z" fill="#221F1F"/>
<path d="M132.132 138.033C129.017 140.693 129.101 146.174 129.451 149.793C129.507 150.353 131.131 149.996 131.075 149.359C130.76 146.125 130.606 140.756 133.441 138.334C134.141 137.718 132.559 137.676 132.132 138.033Z" fill="#221F1F"/>
<path d="M122.619 114.002C124.159 115.472 126.56 115.192 128.296 114.282C128.59 114.128 128.87 113.834 128.499 113.582C128.128 113.33 127.4 113.631 127.099 113.799C126.665 113.975 126.188 114.015 125.732 113.912C125.275 113.809 124.861 113.57 124.544 113.225C124.096 112.791 122.199 113.547 122.647 113.974L122.619 114.002Z" fill="#221F1F"/>
<path d="M122.381 96.5371C121.288 94.5462 119.95 92.7001 118.398 91.0421C117.964 90.5591 116.515 91.1541 116.998 91.7001C118.55 93.3581 119.888 95.2042 120.981 97.1951C121.275 97.7551 122.731 97.1951 122.381 96.5371Z" fill="#221F1F"/>
<path d="M118.65 136.654C118.3 136.302 118.033 135.876 117.868 135.407C117.703 134.938 117.645 134.439 117.698 133.945C117.709 132.371 117.928 130.806 118.349 129.29C118.487 128.865 118.68 128.46 118.923 128.086C119.05 127.884 119.195 127.694 119.357 127.519C119.504 127.372 119.644 127.218 119.791 127.085C120.368 126.548 120.981 126.049 121.625 125.594C122.651 124.946 123.591 124.172 124.425 123.291C124.603 123.068 124.767 122.835 124.915 122.591L125.384 121.793C125.678 121.253 125.94 120.697 126.168 120.127C126.965 118.163 127.383 116.066 127.4 113.946C127.412 112.883 127.339 111.82 127.183 110.768C127.106 110.236 127.008 109.711 126.896 109.193L126.7 108.43C126.616 108.091 126.573 107.743 126.574 107.394C126.568 106.564 126.812 105.752 127.274 105.063C127.502 104.732 127.772 104.433 128.079 104.174C128.208 104.062 128.302 103.917 128.352 103.754C128.401 103.467 128.352 103.313 128.002 103.054C127.613 102.766 127.163 102.572 126.686 102.487C126.526 102.478 126.367 102.457 126.21 102.424C126.125 102.396 126.048 102.348 125.985 102.285C125.922 102.222 125.874 102.145 125.846 102.06C125.811 101.962 125.807 101.856 125.834 101.756C125.862 101.655 125.92 101.566 126 101.5C126.084 101.416 126.189 101.297 126.294 101.297C126.798 101.297 127.274 101.297 127.792 101.339C128.37 101.381 128.914 101.63 129.325 102.039C129.579 102.294 129.769 102.604 129.881 102.946C129.993 103.287 130.023 103.651 129.969 104.006C129.912 104.354 129.78 104.686 129.584 104.979C129.415 105.213 129.223 105.429 129.01 105.623C128.775 105.883 128.596 106.189 128.487 106.521C128.377 106.854 128.338 107.206 128.373 107.555C128.386 107.69 128.41 107.823 128.443 107.954L128.576 108.5C128.674 108.885 128.737 109.277 128.8 109.662C128.94 110.664 129.017 111.674 129.031 112.686C129.093 114.434 128.938 116.184 128.569 117.894C128.257 119.278 127.788 120.621 127.169 121.898C127.001 122.234 126.84 122.598 126.644 122.913C126.461 123.265 126.258 123.607 126.035 123.935C125.562 124.606 124.997 125.207 124.355 125.72C123.123 126.735 121.87 127.47 120.939 128.352C120.722 128.543 120.523 128.754 120.344 128.982C120.192 129.2 120.065 129.435 119.966 129.682C119.77 130.184 119.627 130.705 119.539 131.236C119.35 132.272 119.28 133.189 119.217 133.854C119.154 134.519 119.119 134.939 119.112 135.009C118.991 135.566 118.836 136.115 118.65 136.654Z" fill="#221F1F"/>
<path d="M91.1399 177.009C90.2509 179.809 92.9739 183.078 95.8859 182.693C98.7979 182.308 100.555 178.395 98.8959 175.973C97.2369 173.551 92.9179 173.817 91.5879 176.435" fill="#221F1F"/>
<path d="M117.95 217.833C117.131 220.43 119.651 223.468 122.353 223.111C125.055 222.754 126.693 219.121 125.153 216.867C123.613 214.613 119.602 214.872 118.37 217.301" fill="#221F1F"/>
<path d="M122.871 248.157C122.755 248.646 122.754 249.155 122.869 249.644C122.984 250.133 123.212 250.588 123.534 250.974C123.857 251.359 124.264 251.664 124.725 251.864C125.186 252.064 125.687 252.154 126.189 252.126C126.68 252.023 127.14 251.805 127.531 251.49C127.921 251.174 128.232 250.771 128.437 250.313C128.642 249.855 128.735 249.355 128.709 248.853C128.684 248.352 128.539 247.864 128.289 247.429C127.127 245.742 124.089 245.924 123.186 247.758" fill="#221F1F"/>
<path d="M82.747 249.9C81.942 252.441 84.413 255.409 87.052 255.059C89.691 254.709 91.294 251.16 89.782 248.962C88.27 246.764 84.357 247.009 83.153 249.382" fill="#221F1F"/>
<path d="M100.8 238.252C100.023 240.716 102.41 243.586 105 243.25C107.59 242.914 109.102 239.47 107.639 237.342C106.176 235.214 102.389 235.452 101.227 237.755" fill="#221F1F"/>
<path d="M120.54 273.749C121.296 272.517 121.24 270.865 119.525 270.571C118.734 270.443 117.924 270.53 117.179 270.823C116.434 271.116 115.781 271.605 115.29 272.237C114.408 273.518 115.325 275.037 116.648 275.52C117.399 275.641 118.169 275.537 118.861 275.222C119.554 274.907 120.137 274.395 120.54 273.749Z" fill="#221F1F"/>
<path d="M114.184 192.038C113.386 194.572 115.836 197.526 118.468 197.176C121.1 196.826 122.668 193.291 121.191 191.1C119.714 188.909 115.787 189.154 114.59 191.527" fill="#221F1F"/>
<path d="M113.4 164.976C112.595 167.503 115.052 169.729 117.684 169.379C120.316 169.029 121.884 166.222 120.407 164.038C118.93 161.854 115.003 162.092 113.806 164.458" fill="#221F1F"/>
<path d="M87.6681 207.06C86.8631 209.587 89.3201 212.541 91.9521 212.191C94.5841 211.841 96.1521 208.313 94.6681 206.122C93.1841 203.931 89.2711 204.176 88.0671 206.542" fill="#221F1F"/>
<path d="M72.4918 276.304C73.2478 277.704 75.1029 278.369 76.0619 277.088C76.2719 276.757 76.4004 276.38 76.4371 275.99C76.4737 275.599 76.4173 275.205 76.2726 274.841C76.1278 274.476 75.8988 274.151 75.6042 273.892C75.3097 273.633 74.958 273.447 74.5779 273.35C74.2231 273.285 73.8573 273.314 73.5176 273.436C73.178 273.558 72.8766 273.767 72.6441 274.043C72.4116 274.319 72.2563 274.651 72.1939 275.007C72.1315 275.362 72.1643 275.727 72.2888 276.066" fill="#221F1F"/>
<path d="M169.659 83.006L166.53 84.329C166.152 84.49 165.795 84.7 165.41 84.854C164.073 85.414 162.715 85.946 161.392 86.52C160.806 86.7846 160.233 87.079 159.677 87.402C158.994 87.8596 158.258 88.2333 157.486 88.515C156.982 88.648 156.786 86.926 157.64 86.464C159.129 85.6511 160.686 84.9718 162.295 84.434C163.268 84.119 164.185 83.594 165.13 83.181L168.266 81.823C168.903 81.543 169.547 81.263 170.177 80.969C171.136 80.521 172.109 80.087 173.026 79.569C173.726 79.17 174.384 78.694 175.049 78.232C175.196 78.134 175.329 78.022 175.476 77.924C176.036 77.574 176.274 77.567 176.624 77.882C176.708 77.947 176.785 78.0196 176.855 78.099C177.086 78.358 176.995 78.743 176.617 79.072C175.448 80.0535 174.162 80.8859 172.788 81.55C171.766 82.075 170.688 82.551 169.68 83.034L169.659 83.006Z" fill="#221F1F"/>
<path d="M107.016 118.804C104.86 120.204 96.5861 119.077 97.0481 112.392C97.5101 105.707 105.196 109.851 105.196 109.851C110.18 107.016 115.164 102.578 117.18 97.069C120.169 88.928 113.617 79.786 106.043 77.945C73.2411 69.965 73.3181 109.865 72.4081 116.032C71.6661 121.051 52.6821 135.03 67.3821 150.948C73.4231 157.493 82.8241 161.623 91.4971 159.593C127.68 151.13 108.038 118.153 107.016 118.804Z" fill="#221F1F"/>
<path d="M106.736 118.377C106.337 118.735 105.856 118.989 105.336 119.119C105.043 119.196 104.746 119.257 104.447 119.301C104.146 119.301 103.831 119.364 103.516 119.357C102.187 119.364 100.875 119.05 99.6941 118.44C98.393 117.77 97.3731 116.658 96.8171 115.304C96.7541 115.129 96.6701 114.954 96.6141 114.779L96.5021 114.233L96.3971 113.687C96.3971 113.505 96.3971 113.316 96.3971 113.134C96.3501 112.393 96.4186 111.649 96.6001 110.929C96.8168 109.996 97.3513 109.167 98.1121 108.584C98.8948 108.053 99.8267 107.785 100.772 107.821C101.627 107.838 102.476 107.977 103.292 108.234C103.691 108.353 104.083 108.486 104.468 108.64C104.657 108.71 104.846 108.794 105.035 108.878L105.217 108.962C110.53 105.868 117.075 99.8131 117.075 92.8621C116.963 89.3518 115.586 86.0004 113.197 83.4261C112.032 82.1237 110.663 81.0196 109.144 80.1571C107.607 79.3124 105.931 78.7505 104.195 78.4981C100.55 77.699 96.7822 77.6395 93.1141 78.3231L91.7771 78.6801C91.5601 78.7361 91.3361 78.7851 91.1191 78.8621L90.4751 79.1071C90.0481 79.2821 89.6141 79.4291 89.2011 79.6181L87.9761 80.2481C86.3675 81.1398 84.8982 82.2624 83.6151 83.5801C82.3122 84.9074 81.1725 86.3855 80.2201 87.9831C79.2335 89.5882 78.3903 91.277 77.7001 93.0301C76.9937 94.7841 76.4021 96.5822 75.9291 98.4131C75.4321 100.247 75.0331 102.109 74.7111 104.013C74.1371 107.24 73.8081 110.502 73.5281 113.813C73.4441 114.653 73.4021 115.444 73.2411 116.375C72.9941 117.276 72.599 118.13 72.0721 118.902C71.1411 120.344 70.1331 121.66 69.1741 122.997C67.2028 125.578 65.5395 128.381 64.2181 131.348C62.92 134.248 62.4569 137.453 62.8811 140.602C63.1307 142.153 63.6022 143.659 64.2811 145.075C64.9925 146.501 65.8587 147.843 66.8641 149.079C67.8836 150.334 69.0026 151.504 70.2101 152.579C71.4252 153.632 72.7219 154.587 74.0881 155.435C76.8145 157.136 79.8302 158.323 82.9851 158.935C84.5503 159.237 86.1455 159.354 87.7381 159.285C89.3323 159.215 90.9131 158.962 92.4491 158.529C96.1733 157.637 99.7367 156.173 103.012 154.189C104.611 153.186 106.079 151.986 107.38 150.619C108.658 149.25 109.72 147.695 110.53 146.006C112.024 142.72 112.63 139.099 112.287 135.506C111.965 131.866 111.052 128.304 109.585 124.957C109.102 123.83 108.5 122.689 107.968 121.674C107.625 121.023 107.338 120.484 107.107 120.064C107.002 119.868 106.918 119.714 106.869 119.602C106.82 119.49 106.757 119.602 107.016 119.154C107.016 119.077 107.016 119.007 107.058 119.014C107.061 119.006 107.063 118.998 107.063 118.99C107.063 118.981 107.061 118.973 107.058 118.965C107.067 118.976 107.071 118.99 107.071 119.004C107.071 119.017 107.067 119.031 107.058 119.042C107.046 119.11 107.024 119.176 106.995 119.238C107.364 119.374 107.684 119.618 107.912 119.938C108.321 120.349 108.682 120.805 108.99 121.296C110.346 123.684 111.492 126.185 112.413 128.772C113.406 131.464 113.938 134.304 113.988 137.172C114.036 140.114 113.506 143.037 112.427 145.775C111.299 148.513 109.586 150.972 107.408 152.978C105.232 154.91 102.766 156.488 100.1 157.654C97.4621 158.85 94.7146 159.788 91.8961 160.454C89.5845 161.018 87.1947 161.191 84.8261 160.965C82.4742 160.738 80.1666 160.177 77.9731 159.299C72.3954 157.067 67.6092 153.224 64.2251 148.26C63.9801 147.868 63.6791 147.399 63.3501 146.86L62.8741 145.936L62.6151 145.425L62.3841 144.865C61.5931 143.04 61.1446 141.085 61.0611 139.097C61.0051 137.882 61.0755 136.665 61.2711 135.464C61.4982 134.148 61.8426 132.855 62.3001 131.6C63.3938 128.828 64.8256 126.202 66.5631 123.781C67.4521 122.486 68.4181 121.191 69.3631 119.868C69.8391 119.21 70.3081 118.538 70.7631 117.852C71.1908 117.243 71.493 116.556 71.6521 115.829C71.8481 114.191 71.9601 112.406 72.1491 110.628C72.3381 108.85 72.5411 107.037 72.8491 105.203C73.3921 101.446 74.285 97.748 75.5161 94.1571C75.8171 93.2331 76.2161 92.3371 76.5591 91.4341C76.9021 90.5311 77.3501 89.6421 77.8401 88.7811C78.7475 87.0185 79.8461 85.3612 81.1161 83.8391C83.6537 80.7232 87.041 78.4106 90.8671 77.1821C94.5986 76.1104 98.52 75.8714 102.354 76.4821C103.279 76.5954 104.198 76.7589 105.105 76.9721C105.56 77.0771 106.008 77.1331 106.463 77.2731C106.918 77.4131 107.38 77.5391 107.828 77.7001C109.554 78.3559 111.154 79.303 112.56 80.5001C115.23 82.7279 117.178 85.6974 118.16 89.0331C118.594 90.585 118.767 92.1984 118.671 93.8071C118.549 95.3064 118.188 96.7764 117.6 98.1611C116.564 100.516 115.121 102.67 113.337 104.524C111.982 105.962 110.491 107.265 108.885 108.416C108.22 108.906 107.597 109.319 107.037 109.669C106.764 109.844 106.505 110.005 106.253 110.145L105.217 110.754L104.741 110.509C104.594 110.425 104.391 110.334 104.342 110.313L103.852 110.103C103.523 109.97 103.208 109.858 102.893 109.76C102.316 109.571 101.72 109.447 101.115 109.389C100.683 109.311 100.238 109.334 99.8156 109.456C99.3933 109.577 99.0044 109.794 98.6791 110.089C98.2376 110.609 97.9642 111.251 97.8951 111.93C97.8486 112.224 97.8322 112.522 97.8461 112.819C97.8461 113.092 97.8461 113.344 97.8461 113.568C97.908 114.36 98.1759 115.123 98.6231 115.78C99.3669 116.884 100.451 117.715 101.71 118.146C102.46 118.448 103.25 118.639 104.055 118.713C104.963 118.839 105.888 118.723 106.736 118.377Z" fill="#221F1F"/>
<path d="M121.408 101.08C121.457 101.402 121.947 102.032 121.646 102.186C121.002 102.515 120.414 100.954 120.757 100.625C121.1 100.296 121.345 100.618 121.408 101.08Z" fill="#221F1F"/>
<path d="M121.492 101.08C121.479 101.219 121.491 101.358 121.527 101.493C121.527 101.542 121.583 101.549 121.583 101.577C121.553 101.621 121.527 101.668 121.506 101.717C121.497 101.749 121.497 101.783 121.506 101.815C121.511 101.792 121.511 101.768 121.506 101.745L121.625 101.969C121.588 101.962 121.55 101.962 121.513 101.969C121.457 101.969 121.247 101.969 121.317 101.969C121.387 101.969 121.275 101.815 121.205 101.724C121.135 101.633 120.946 101.486 121.009 101.164C121.009 101.052 121.373 101.052 121.709 101.01C122.045 100.968 122.339 100.863 122.367 100.919C122.453 101.08 122.517 101.252 122.556 101.43C122.598 101.618 122.61 101.812 122.591 102.004C122.577 102.092 122.553 102.179 122.521 102.263C122.478 102.369 122.417 102.466 122.339 102.55C122.266 102.634 122.175 102.701 122.073 102.746C122.013 102.771 121.949 102.788 121.884 102.795C121.619 102.84 121.347 102.809 121.1 102.704C120.927 102.621 120.776 102.499 120.659 102.347C120.486 102.095 120.369 101.808 120.316 101.507C120.286 101.327 120.275 101.144 120.281 100.961C120.284 100.776 120.335 100.595 120.428 100.436C120.463 100.381 120.505 100.332 120.554 100.289L120.652 100.212C120.734 100.15 120.827 100.103 120.925 100.072C121.03 100.044 121.14 100.039 121.247 100.056C121.354 100.072 121.457 100.111 121.548 100.17C121.683 100.253 121.799 100.363 121.891 100.492C121.926 100.537 121.959 100.584 121.989 100.632C122.066 100.814 121.989 100.891 121.639 100.982L121.408 101.031C121.217 101.074 121.018 101.074 120.827 101.031C120.777 101.013 120.723 101.013 120.673 101.031C120.743 100.995 120.811 100.956 120.876 100.912C120.935 100.872 120.989 100.825 121.037 100.772C121.107 100.688 121.037 100.66 121.086 100.772C121.146 100.937 121.242 101.088 121.366 101.213L121.415 101.262L120.96 100.779C120.974 100.784 120.988 100.784 121.002 100.779C121.002 100.779 121.086 100.828 121.142 100.842C121.282 100.877 121.425 100.895 121.569 100.898C121.555 100.936 121.555 100.978 121.569 101.017L121.492 101.08Z" fill="#221F1F"/>
<path d="M120.316 99.967C120.172 99.9669 120.033 100.019 119.924 100.114C119.894 100.155 119.861 100.195 119.826 100.233C119.679 100.389 119.565 100.572 119.49 100.772C119.461 100.865 119.442 100.962 119.434 101.059C119.434 101.176 119.42 101.302 119.392 101.437C119.392 101.479 119.392 101.479 119.322 101.437C119.261 101.394 119.208 101.339 119.168 101.276C119.027 101.015 118.98 100.714 119.035 100.422C119.084 100.247 119.077 100.051 119.14 99.869C119.221 99.6667 119.332 99.4779 119.469 99.309C119.552 99.1983 119.654 99.1034 119.77 99.029C119.942 98.9257 120.132 98.8568 120.33 98.826C120.463 98.7718 120.607 98.7479 120.75 98.756C120.783 98.7494 120.816 98.7494 120.848 98.756C120.923 98.7879 120.988 98.8385 121.037 98.903C121.037 98.903 121.037 98.966 120.946 99.071C120.778 99.372 120.68 99.666 120.589 99.771C120.498 99.876 120.449 99.897 120.316 99.904V99.967Z" fill="#221F1F"/>
<path d="M301.588 86.513C302.757 89.621 302.365 93.59 301.021 97.097C299.912 100.061 298.294 102.809 296.24 105.217C294.161 107.624 291.664 109.635 288.869 111.153C283.248 114.205 276.782 115.334 270.459 114.366C264.993 113.551 259.928 111.019 255.997 107.135C252.106 103.258 249.409 98.3453 248.227 92.981C247.176 88.3954 247.248 83.6238 248.437 79.072C249.628 74.4909 252.048 70.3226 255.437 67.018C258.841 63.7656 263.008 61.4211 267.554 60.2C272.096 58.9803 276.862 58.8507 281.463 59.822C286.928 60.9544 291.93 63.6943 295.827 67.69C297.666 69.6193 299.215 71.805 300.426 74.179C301.625 76.5653 302.458 79.1186 302.897 81.753C303.069 82.6302 303.172 83.5196 303.205 84.413C303.287 85.1145 303.163 85.8246 302.848 86.457C302.652 86.66 302.428 86.373 302.211 85.568C302.076 85.1933 301.978 84.8065 301.917 84.413C301.755 82.5757 301.318 80.7731 300.622 79.065C299.923 77.3406 299.112 75.6639 298.193 74.046C296.385 70.7561 293.817 67.9458 290.703 65.849C287.591 63.7641 284.076 62.357 280.385 61.719C273.644 60.4744 266.679 61.718 260.785 65.219C257.959 66.9586 255.529 69.2727 253.654 72.0112C251.779 74.7497 250.5 77.8516 249.9 81.116C248.877 86.4136 249.412 91.8943 251.44 96.894C253.627 102.384 257.663 106.937 262.85 109.767C265.428 111.147 268.229 112.062 271.124 112.469C276.55 113.218 282.076 112.354 287.014 109.984C289.119 108.952 291.072 107.636 292.817 106.071C295.468 103.679 297.569 100.742 298.977 97.461C299.585 96.0604 300.081 94.6139 300.461 93.135C301.067 90.9731 301.445 88.7537 301.588 86.513Z" fill="#221F1F"/>
<path d="M274.33 75.264C272.472 74.503 270.451 74.2284 268.457 74.466C266.532 74.753 264.523 75.579 263.522 77.077C263.159 77.6227 262.94 78.2511 262.885 78.904C262.83 79.5787 262.889 80.2578 263.06 80.913C263.219 81.4708 263.49 81.9901 263.858 82.439C264.254 82.8892 264.728 83.2639 265.258 83.545C265.529 83.6958 265.813 83.8245 266.105 83.93C266.238 83.986 266.455 84.049 266.462 84.056H266.819C267.483 84.0283 268.145 83.9582 268.8 83.846C270.11 83.6326 271.381 83.2195 272.566 82.621C273.151 82.3227 273.707 81.9687 274.225 81.564L274.435 81.403C274.529 81.3288 274.63 81.2632 274.736 81.207C274.953 81.0851 275.19 81.0022 275.436 80.962C275.908 80.8643 276.4 80.9233 276.836 81.13C277.223 81.3067 277.552 81.5879 277.788 81.942L278.292 82.733C278.616 83.2221 278.971 83.6898 279.356 84.133C279.717 84.5737 280.134 84.9666 280.595 85.302C280.971 85.6015 281.437 85.7666 281.918 85.771L282.45 85.68C282.683 85.6566 282.917 85.6566 283.15 85.68C283.634 85.7 284.109 85.8142 284.55 86.016C285 86.2238 285.399 86.5296 285.716 86.9111C286.034 87.2926 286.262 87.7401 286.384 88.221C286.503 88.6774 286.543 89.151 286.503 89.621C286.464 90.117 286.308 90.5968 286.048 91.021C285.523 91.8213 284.716 92.3939 283.787 92.624C283.255 92.771 282.982 92.673 282.968 92.505C282.954 92.337 283.178 92.085 283.479 91.763C283.844 91.4062 284.161 91.0039 284.424 90.566C284.659 90.0941 284.742 89.561 284.662 89.04C284.654 88.7981 284.593 88.561 284.483 88.3455C284.373 88.1301 284.216 87.9417 284.025 87.794C283.618 87.508 283.116 87.3924 282.625 87.472L282.268 87.528C282.112 87.5491 281.954 87.5491 281.799 87.528C281.488 87.5257 281.179 87.4786 280.882 87.388C280.377 87.2204 279.904 86.9696 279.482 86.646C278.764 86.0776 278.128 85.4134 277.592 84.672C277.333 84.322 277.095 83.972 276.892 83.608L276.563 83.069L276.479 82.929L276.437 82.859C276.418 82.827 276.397 82.7966 276.374 82.768C276.273 82.653 276.133 82.5789 275.981 82.5596C275.829 82.5403 275.675 82.577 275.548 82.663C275.473 82.7103 275.4 82.7617 275.331 82.817L275.065 83.02C274.89 83.153 274.701 83.272 274.512 83.391C274.143 83.6323 273.76 83.8498 273.364 84.042C272.585 84.4308 271.769 84.7403 270.928 84.966C269.929 85.2333 268.911 85.4206 267.883 85.526L267.106 85.582H266.714C266.519 85.6066 266.321 85.5899 266.133 85.533L265.895 85.456L265.699 85.393L265.321 85.246C265.062 85.1436 264.81 85.0268 264.565 84.896C263.537 84.3759 262.678 83.5749 262.087 82.586C261.522 81.5915 261.243 80.4601 261.282 79.317C261.277 78.0526 261.691 76.8221 262.458 75.817C263.22 74.8657 264.209 74.1218 265.335 73.654C266.403 73.1778 267.539 72.873 268.702 72.751C269.851 72.6442 271.009 72.6889 272.146 72.884C273.542 73.11 274.894 73.5565 276.15 74.207C276.782 74.543 277.379 74.9391 277.935 75.39C278.019 75.453 278.04 75.481 278.075 75.509L278.187 75.614L278.292 75.712C278.334 75.7187 278.376 75.7187 278.418 75.712L279.195 75.502C280.194 75.1966 281.214 74.9627 282.247 74.802C283.326 74.6483 284.424 74.691 285.488 74.928C286.608 75.173 287.603 75.8143 288.288 76.734C288.616 77.1883 288.872 77.6914 289.044 78.225C289.198 78.729 289.359 79.219 289.464 79.73C289.849 81.2982 290.023 82.9107 289.982 84.525C289.96 86.1895 289.545 87.8252 288.771 89.299C288.561 89.614 288.372 89.936 288.148 90.237C287.908 90.5343 287.651 90.8171 287.378 91.084L286.608 91.693C286.349 91.854 286.104 91.973 285.908 92.092C285.414 92.3324 284.884 92.4931 284.34 92.568C284.219 92.5756 284.097 92.5756 283.976 92.568C283.783 92.546 283.595 92.489 283.423 92.4C283.278 92.3445 283.141 92.2691 283.017 92.176C282.87 92.029 283.017 91.826 283.444 91.616C283.871 91.406 284.473 91.147 285.18 90.72C286.234 90.0871 287.064 89.1397 287.553 88.011C288.059 86.8195 288.326 85.5397 288.337 84.245C288.362 82.8881 288.216 81.5335 287.903 80.213C287.833 79.877 287.735 79.513 287.637 79.219C287.561 78.9171 287.461 78.6221 287.336 78.337C287.117 77.8454 286.774 77.4186 286.342 77.098C285.609 76.6289 284.755 76.3855 283.885 76.398C282.893 76.3863 281.905 76.5183 280.952 76.79L279.384 77.217L278.103 77.553L277.907 77.602C277.837 77.602 277.809 77.532 277.753 77.511L277.48 77.259L276.934 76.769C276.176 76.1506 275.325 75.6546 274.414 75.299L274.33 75.264Z" fill="#221F1F"/>
<path d="M266.7 85.673C266.658 85.6768 266.616 85.6768 266.574 85.673C266.571 85.6891 266.571 85.7058 266.574 85.722V86.954C266.574 87.654 266.574 88.354 266.63 89.054C266.689 90.4288 266.9 91.7928 267.26 93.121C267.567 94.1513 268.002 95.139 268.555 96.061C268.795 96.4655 269.062 96.8537 269.353 97.223C269.5 97.398 269.633 97.601 269.794 97.762L270.284 98.245C270.939 98.8645 271.73 99.3223 272.594 99.582C273.483 99.7958 274.411 99.7903 275.297 99.5659C276.184 99.3415 277.003 98.905 277.683 98.294C278.33 97.7551 278.896 97.1256 279.363 96.425C279.566 96.047 279.818 95.725 279.986 95.312L280.245 94.731C280.341 94.5062 280.448 94.2865 280.567 94.073C280.772 93.7305 280.994 93.3988 281.232 93.079L281.589 92.624L281.771 92.393L281.862 92.281C281.862 92.218 281.995 92.211 282.009 92.127C282.682 91.6482 283.419 91.2687 284.2 91C284.472 90.9043 284.713 90.7377 284.899 90.5174C285.085 90.2971 285.209 90.0311 285.257 89.747C285.348 89.173 285.74 89.159 286.062 89.845C286.163 90.1047 286.204 90.3841 286.181 90.6618C286.158 90.9396 286.072 91.2085 285.929 91.448C285.728 91.7809 285.458 92.0672 285.138 92.288C284.847 92.4872 284.535 92.6538 284.207 92.785C283.819 92.9266 283.452 93.1197 283.115 93.359L282.723 93.821C282.569 94.01 282.422 94.199 282.289 94.388C282.156 94.5634 282.032 94.7456 281.918 94.934C281.869 95.025 281.827 95.102 281.799 95.165L281.617 95.543C281.154 96.562 280.54 97.5058 279.797 98.343C279.033 99.209 278.111 99.9216 277.081 100.443C276.025 100.985 274.842 101.227 273.658 101.143C272.057 101.035 270.543 100.38 269.367 99.288C268.226 98.2557 267.308 97.0001 266.672 95.599C265.99 94.1023 265.545 92.508 265.356 90.874C265.174 89.2801 265.099 87.6759 265.132 86.072V84.301C265.72 84.301 266.364 84.217 266.756 84.168C267.148 84.119 267.498 84.077 267.862 84.021C268.604 83.909 269.332 83.755 270.046 83.573C271.431 83.2553 272.755 82.7139 273.966 81.97C274.26 81.767 274.463 81.571 274.911 81.305C275.328 81.0945 275.802 81.0257 276.262 81.109C276.72 81.1975 277.137 81.4306 277.452 81.774C277.686 82.0845 277.903 82.4069 278.103 82.74C278.676 83.6468 279.385 84.4612 280.203 85.155C280.569 85.461 281 85.6789 281.463 85.792C281.563 85.8059 281.664 85.8059 281.764 85.792C281.863 85.7968 281.963 85.785 282.058 85.757L282.506 85.673C282.674 85.6625 282.842 85.6625 283.01 85.673C283.611 85.6629 284.204 85.8075 284.732 86.093C285.097 86.2799 285.417 86.5448 285.669 86.869C285.92 87.1932 286.098 87.5687 286.188 87.969C286.235 88.174 286.235 88.3869 286.188 88.592C286.162 88.743 286.094 88.8836 285.992 88.998C285.92 89.1038 285.833 89.1982 285.733 89.278C285.39 89.467 285.292 88.641 284.676 87.878C284.431 87.602 284.121 87.3929 283.773 87.2704C283.425 87.1479 283.052 87.1161 282.688 87.178L282.387 87.234C282.209 87.2811 282.025 87.3069 281.841 87.311C281.475 87.3235 281.11 87.269 280.763 87.15C280.16 86.9327 279.604 86.6025 279.125 86.177C278.268 85.4241 277.521 84.5546 276.906 83.594C276.752 83.363 276.605 83.125 276.458 82.894C276.402 82.7931 276.323 82.7069 276.227 82.642C276.139 82.5882 276.039 82.5546 275.937 82.5437C275.834 82.5328 275.73 82.5449 275.632 82.579C275.558 82.6141 275.488 82.6563 275.422 82.705L274.883 83.111C274.523 83.372 274.144 83.606 273.749 83.811C272.996 84.1977 272.208 84.514 271.397 84.756C270.609 85.0011 269.807 85.1998 268.996 85.351C268.59 85.435 268.191 85.498 267.785 85.561L267.176 85.645L266.728 85.701L266.7 85.673Z" fill="#221F1F"/>
<path d="M268.401 76.6921C272.44 78.1411 269.668 78.9181 268.59 78.5191C268.093 78.3301 267.414 78.2321 267.225 77.6511C266.602 75.7191 273.273 75.8871 272.916 79.1141C272.65 81.5431 268.548 82.2081 267.267 80.6331C266.832 79.9695 266.554 79.2153 266.455 78.4281C266.266 77.0281 266.371 76.9721 267.708 76.2091C270.858 74.4031 274.288 77.4061 277.613 77.7001C280.413 77.9521 283.01 76.3841 285.425 78.3441C286.405 79.1351 289.107 77.7211 287.791 76.6501C285.488 74.7881 283.283 75.1521 280.476 75.4671C276.542 75.9151 273.217 73.0661 269.276 73.3671C266.896 73.5561 263.767 74.7671 263.375 77.4341C263.053 79.6601 264.201 82.5301 266.322 83.4891C270.522 85.4001 279.79 79.5761 274.267 75.4531C273.09 74.679 271.734 74.2209 270.329 74.1228C268.924 74.0247 267.518 74.29 266.245 74.8931C264.516 75.7891 263.116 77.6931 264.74 79.3591C266.238 80.8781 269.731 81.3121 271.607 80.3741C274.491 78.9321 272.503 75.5301 270.207 74.7041C268.989 74.2701 266.637 76.0271 268.429 76.6641L268.401 76.6921Z" fill="#221F1F"/>
<path d="M273.616 76.664C273.979 77.2771 274.49 77.7901 275.101 78.1568C275.712 78.5234 276.404 78.7321 277.116 78.764C279.069 78.876 280.798 77.721 282.716 77.714C283.799 77.7215 284.846 78.0961 285.688 78.7763C286.53 79.4566 287.116 80.4024 287.35 81.459C287.847 83.377 287.35 85.561 285.159 86.044C283.92 86.31 284.214 87.367 285.446 87.101C289.058 86.31 290.612 82.796 288.813 79.52C288.324 78.6254 287.608 77.8755 286.736 77.3459C285.865 76.8162 284.87 76.5255 283.85 76.503C280.861 76.426 277.711 79.079 275.527 75.894C275.128 75.313 273.168 75.999 273.651 76.699L273.616 76.664Z" fill="#221F1F"/>
<path d="M274.141 78.75C274.984 79.5476 276.057 80.0595 277.207 80.213C278.523 80.451 280.231 80.325 281.008 81.613C281.554 82.523 281.134 83.622 281.603 84.574C282.135 85.652 283.325 85.974 284.452 85.911C286.895 85.82 288.498 83.888 287.819 81.48C286.93 78.344 283.213 77.21 280.371 77.917C278.53 78.372 278.971 79.968 280.798 79.513C282.625 79.058 285.81 81.816 284.844 83.825C284.746 83.986 284.781 84.056 284.949 84.049L284.564 83.601C284.467 83.328 284.408 83.043 284.389 82.754C284.396 82.1837 284.333 81.6147 284.2 81.06C283.052 77.868 278.936 79.513 276.955 77.56C276.178 76.776 273.294 77.924 274.155 78.771L274.141 78.75Z" fill="#221F1F"/>
<path d="M274.4 79.583C276.171 82.019 279.006 83.496 282.03 82.81C283.297 82.516 282.919 81.137 281.659 81.41C279.503 81.907 277.459 80.332 276.255 78.673C275.716 77.973 273.784 78.722 274.4 79.569V79.583Z" fill="#221F1F"/>
<path d="M267.953 83.5661C265.853 82.8661 264.159 81.3401 264.397 78.9951C264.501 78.0012 264.922 77.0671 265.598 76.3309C266.273 75.5947 267.168 75.0955 268.149 74.9071C269.101 74.7041 268.849 73.7451 267.89 73.9411C266.672 74.1633 265.547 74.7434 264.659 75.6073C263.772 76.4713 263.161 77.58 262.906 78.7921C262.409 81.6901 264.495 83.6921 267.057 84.5321C267.659 84.7281 268.849 83.8321 267.953 83.5661Z" fill="#221F1F"/>
<path d="M275.863 80.381C276.976 82.215 278.726 85.442 281.078 85.799C282.562 86.023 284.235 85.519 285.278 86.926C285.491 87.2697 285.647 87.6455 285.74 88.039C285.887 88.431 285.425 88.858 285.964 88.529C284.795 89.229 285.866 90.398 286.874 89.782C288.722 88.648 287.574 86.044 286.132 85.099C284.69 84.154 282.709 84.784 281.281 84.035C279.853 83.286 278.551 80.885 277.697 79.471C277.2 78.659 275.275 79.471 275.842 80.381H275.863Z" fill="#221F1F"/>
<path d="M230.3 116.9C232.06 116.612 233.863 116.774 235.543 117.369C237.35 118.015 239.026 118.98 240.492 120.218C245.382 124.467 248.776 130.175 250.173 136.5C250.913 139.65 251.1 142.904 250.726 146.118C250.386 149.333 249.528 152.473 248.185 155.414C245.899 160.552 242.102 164.871 237.3 167.797C233.849 169.779 230.034 171.048 226.083 171.529C222.132 172.01 218.125 171.693 214.298 170.597C211.996 169.963 209.79 169.021 207.739 167.797C205.662 166.584 203.776 165.072 202.139 163.31C201.747 162.862 201.306 162.449 200.949 161.973L199.857 160.573C199.507 160.083 199.199 159.572 198.877 159.075C198.545 158.577 198.246 158.058 197.981 157.521C197.413 156.473 196.906 155.393 196.462 154.287C196.043 153.17 195.683 152.033 195.384 150.878C195.091 149.724 194.857 148.556 194.684 147.378C194.543 146.195 194.461 145.006 194.439 143.815C194.421 142.623 194.472 141.431 194.593 140.245L194.852 138.474C194.922 137.879 195.104 137.305 195.23 136.717C195.778 134.381 196.659 132.137 197.848 130.053C199.246 127.589 201.033 125.367 203.14 123.473C205.241 121.592 207.598 120.017 210.14 118.797C215.01 116.519 220.293 115.256 225.666 115.087C226.568 115.034 227.473 115.034 228.375 115.087C229.107 115.087 229.82 115.312 230.419 115.731C230.594 115.962 230.265 116.123 229.425 116.221C229.029 116.302 228.626 116.351 228.221 116.368C227.258 116.356 226.295 116.398 225.337 116.494C224.413 116.634 223.51 116.732 222.614 116.942L221.27 117.222L219.905 117.558C218.981 117.754 218.043 118.048 217.021 118.258C215.159 118.739 213.343 119.386 211.596 120.19C210.707 120.554 209.895 121.058 209.041 121.499L207.837 122.269L207.235 122.661L206.661 123.088L205.555 123.9L204.491 124.852C204.316 125.013 204.134 125.167 203.966 125.328L203.476 125.846C203.154 126.196 202.825 126.546 202.51 126.889C201.902 127.613 201.334 128.37 200.809 129.157L200.032 130.347L199.367 131.593C197.981 134.287 197.078 137.204 196.7 140.21C196.46 142.137 196.422 144.085 196.588 146.02C196.737 147.965 197.098 149.887 197.666 151.753C198.392 154.107 199.435 156.352 200.767 158.424C203.072 162.046 206.306 164.983 210.133 166.929C212.474 168.113 214.977 168.946 217.56 169.4C220.36 169.892 223.217 169.963 226.037 169.61C228.976 169.253 231.835 168.414 234.5 167.125C237.202 165.797 239.63 163.971 241.654 161.742C243.665 159.534 245.308 157.017 246.519 154.287C247.67 151.653 248.422 148.862 248.752 146.006C249.066 143.351 248.985 140.664 248.514 138.033C248.074 135.67 247.355 133.367 246.372 131.173C245.542 129.307 244.521 127.531 243.327 125.874C242.385 124.589 241.326 123.394 240.163 122.304C239.72 121.885 239.253 121.492 238.763 121.128L238.175 120.652L237.643 120.295C236.999 119.861 236.593 119.595 236.46 119.525L235.228 118.825L233.828 118.125C233.345 117.887 232.799 117.712 232.218 117.474C231.637 117.236 231.035 117.117 230.3 116.9Z" fill="#221F1F"/>
<path d="M218.4 142.723C217.545 142.982 216.665 143.149 215.775 143.22C215.333 143.26 214.889 143.271 214.445 143.255C214.359 143.261 214.272 143.261 214.186 143.255H214.137H214.025C214.019 143.311 214.019 143.367 214.025 143.423L213.99 144.417L213.934 146.517C213.925 147.602 213.984 148.687 214.109 149.765C214.253 151.616 214.889 153.394 215.95 154.917C216.216 155.289 216.514 155.638 216.839 155.96C217.007 156.114 217.161 156.289 217.336 156.429L217.882 156.821C218.625 157.318 219.483 157.614 220.374 157.682C221.178 157.703 221.978 157.558 222.722 157.254C223.467 156.95 224.14 156.495 224.7 155.918C225.46 155.187 226.084 154.327 226.541 153.377C227.052 152.439 227.318 151.473 227.906 150.339C228.116 149.968 228.438 149.863 228.508 149.996C228.572 150.225 228.614 150.459 228.634 150.696C228.705 151.119 228.72 151.55 228.676 151.977C228.669 152.055 228.655 152.132 228.634 152.208C228.634 152.208 228.634 152.257 228.634 152.264C228.634 152.229 228.634 152.271 228.634 152.264V152.369C228.634 152.516 228.571 152.663 228.536 152.817C228.465 153.145 228.352 153.463 228.2 153.762C227.669 154.898 226.944 155.933 226.058 156.821C225.155 157.758 224.035 158.458 222.796 158.858C221.522 159.275 220.15 159.288 218.869 158.893C217.634 158.491 216.53 157.766 215.67 156.793C214.666 155.678 213.884 154.38 213.367 152.971C212.879 151.575 212.598 150.115 212.534 148.638C212.478 147.56 212.485 146.489 212.534 145.425L212.646 141.617C213.059 141.687 213.472 141.75 213.871 141.799H214.389H214.739C215.207 141.806 215.675 141.778 216.139 141.715C217.037 141.61 217.917 141.386 218.757 141.05C219.174 140.881 219.581 140.687 219.975 140.469L220.542 140.112C220.745 139.972 220.857 139.874 221.186 139.636L221.515 139.44C221.633 139.395 221.762 139.383 221.886 139.405C222.139 139.464 222.377 139.573 222.586 139.727C222.757 139.848 222.92 139.979 223.076 140.119L223.489 140.49C224.028 140.994 224.539 141.491 225.064 141.967C225.577 142.436 226.125 142.867 226.702 143.255C227.221 143.635 227.828 143.876 228.466 143.955C228.576 143.962 228.685 143.962 228.795 143.955H228.963L229.208 143.913C229.524 143.871 229.844 143.871 230.16 143.913C230.806 143.992 231.416 144.249 231.924 144.655C232.429 145.086 232.792 145.66 232.967 146.3C233.144 146.932 233.163 147.598 233.023 148.239C232.938 148.562 232.788 148.865 232.582 149.128C232.368 149.38 232.106 149.587 231.812 149.737C231.429 149.923 231.025 150.062 230.608 150.15C230.3 150.22 230.069 150.262 229.908 150.29C229.625 150.348 229.332 150.336 229.054 150.255C228.931 150.239 228.81 150.216 228.69 150.185C228.522 150.122 228.536 149.919 228.802 149.611C229.22 149.232 229.721 148.956 230.265 148.806C230.652 148.701 231.017 148.528 231.343 148.295C231.441 148.207 231.518 148.099 231.569 147.978C231.619 147.857 231.643 147.726 231.637 147.595C231.657 147.223 231.599 146.852 231.469 146.503C231.354 146.196 231.149 145.93 230.881 145.74C230.605 145.542 230.281 145.421 229.943 145.39C229.773 145.369 229.602 145.369 229.432 145.39L229.089 145.453C228.902 145.487 228.712 145.504 228.522 145.502C227.846 145.471 227.185 145.287 226.59 144.963C226.078 144.691 225.591 144.375 225.134 144.018C224.343 143.409 223.643 142.744 222.964 142.107C222.628 141.792 222.264 141.477 221.977 141.218L221.865 141.127L221.655 141.288C221.522 141.393 221.375 141.477 221.235 141.568C220.955 141.754 220.666 141.925 220.367 142.079C219.772 142.398 219.149 142.66 218.505 142.863L218.4 142.723Z" fill="#221F1F"/>
<path d="M235.067 136.36C234.807 136.224 234.538 136.105 234.262 136.003L234.052 135.926H233.989H233.863L233.632 135.863C233.331 135.772 233.016 135.695 232.715 135.618L232.582 134.274C232.54 134.085 232.519 133.889 232.463 133.707C232.375 133.351 232.236 133.009 232.05 132.692C231.667 132.066 231.096 131.576 230.419 131.292C228.843 130.705 227.134 130.567 225.484 130.893C225.218 130.935 224.959 130.991 224.707 131.054C224.581 131.054 224.448 131.117 224.336 131.159L224.175 131.215C224.175 131.215 224.112 131.215 224.077 131.215L223.986 131.131L223.797 130.963L223.657 131.005L223.475 131.068C223.419 131.074 223.363 131.074 223.307 131.068C223.146 131.068 223.02 131.103 222.796 131.145L222.6 130.9L222.425 130.753L222.201 130.585C222.047 130.466 221.9 130.382 221.753 130.277L221.291 130.011L220.815 129.787C220.301 129.567 219.75 129.448 219.191 129.437C218.647 129.446 218.114 129.596 217.644 129.871L217.28 130.074L216.944 130.361L216.608 130.641L216.314 130.991C216.104 131.206 215.914 131.441 215.747 131.691L215.047 132.811L214.606 132.874L214.214 132.944L213.717 133.056C213.381 133.14 213.052 133.238 212.73 133.35C212.091 133.562 211.478 133.846 210.903 134.197C210.337 134.517 209.842 134.948 209.446 135.464C209.051 135.98 208.763 136.571 208.6 137.2C208.549 137.464 208.511 137.73 208.488 137.998V139.195L208.026 139.482C207.872 139.573 207.704 139.699 207.634 139.748C207.564 139.797 207.277 140.014 207.102 140.154C206.759 140.439 206.432 140.743 206.122 141.064C205.516 141.691 205.019 142.415 204.652 143.206C204.362 143.847 204.218 144.544 204.23 145.247C204.242 145.951 204.41 146.643 204.722 147.273C205.405 148.604 206.336 149.792 207.466 150.773C208.166 151.417 207.823 151.697 206.892 151.473C206.278 151.314 205.698 151.041 205.184 150.668C204.418 150.146 203.784 149.45 203.336 148.638C202.79 147.688 202.474 146.624 202.412 145.53C202.374 144.422 202.614 143.322 203.112 142.331C203.577 141.399 204.194 140.552 204.939 139.825C205.291 139.465 205.665 139.129 206.059 138.817C206.255 138.663 206.458 138.516 206.661 138.369C206.864 138.222 206.745 138.313 206.766 138.299C206.766 138.299 206.766 138.299 206.766 138.257V138.068C206.766 137.97 206.766 137.865 206.766 137.76C206.822 137.337 206.906 136.919 207.018 136.507C207.141 136.093 207.315 135.695 207.536 135.324C207.637 135.138 207.75 134.958 207.872 134.785L208.271 134.295C208.817 133.691 209.458 133.18 210.168 132.783C210.833 132.402 211.537 132.095 212.268 131.866C212.604 131.761 212.968 131.67 213.297 131.586C213.479 131.586 213.647 131.502 213.829 131.474C213.89 131.47 213.951 131.47 214.011 131.474C214.03 131.452 214.046 131.429 214.06 131.404L214.144 131.278L214.501 130.718C214.753 130.354 215.068 130.018 215.355 129.668C216.012 128.961 216.831 128.425 217.742 128.107C218.686 127.81 219.695 127.796 220.647 128.065C221.541 128.319 222.377 128.742 223.111 129.311L223.356 129.5L223.461 129.584C223.517 129.626 223.552 129.717 223.622 129.647L223.741 129.605C223.811 129.605 223.993 129.528 224.105 129.5C224.371 129.43 224.63 129.374 224.889 129.325C225.408 129.232 225.931 129.166 226.457 129.129C227.523 129.046 228.596 129.116 229.642 129.339C230.747 129.564 231.77 130.084 232.603 130.844C233.011 131.255 233.351 131.727 233.611 132.244C233.85 132.75 234.017 133.288 234.108 133.84C234.128 133.932 234.142 134.026 234.15 134.12C234.143 134.185 234.143 134.251 234.15 134.316L234.346 134.372L234.654 134.484C234.957 134.594 235.254 134.72 235.543 134.862C236.164 135.103 236.754 135.418 237.3 135.8C237.832 136.225 238.274 136.751 238.602 137.347C238.938 137.959 239.12 138.644 239.134 139.342C239.134 139.636 239.085 139.93 239.064 140.224C239.013 140.509 238.941 140.79 238.847 141.064L238.721 141.47L238.546 141.834C238.483 141.974 238.406 142.1 238.364 142.226C238.829 142.69 239.268 143.178 239.68 143.689C240.181 144.298 240.635 144.944 241.038 145.621C241.457 146.306 241.787 147.043 242.018 147.812C242.274 148.615 242.325 149.469 242.165 150.297C242.036 150.907 241.773 151.481 241.395 151.977C241.21 152.227 241.004 152.461 240.779 152.677C240.676 152.782 240.563 152.878 240.443 152.964L240.247 153.125L240.212 153.216L240.163 153.349L240.009 153.727C239.904 153.972 239.792 154.21 239.666 154.427C239.428 154.91 239.159 155.378 238.861 155.827C238.255 156.763 237.464 157.566 236.537 158.186C235.87 158.624 235.111 158.902 234.318 158.998C233.691 159.065 233.056 159.011 232.449 158.837C232.047 158.729 231.663 158.564 231.308 158.347C230.893 158.131 230.571 157.77 230.405 157.332C230.343 157.186 230.298 157.033 230.272 156.877C230.272 156.667 230.531 156.646 230.972 156.786C231.585 156.997 232.209 157.175 232.841 157.318C233.492 157.441 234.162 157.396 234.791 157.188C235.419 156.98 235.984 156.615 236.432 156.128C236.951 155.613 237.402 155.034 237.776 154.406C237.965 154.084 238.147 153.748 238.315 153.405C238.399 153.237 238.476 153.062 238.553 152.887L238.658 152.628C238.735 152.453 238.805 152.25 238.875 152.054L239.484 151.599C239.584 151.525 239.677 151.443 239.764 151.354C239.851 151.277 239.93 151.193 240.002 151.102C240.079 151.018 240.147 150.927 240.205 150.829C240.446 150.466 240.589 150.046 240.618 149.611C240.603 148.564 240.293 147.542 239.722 146.664C239.353 146.028 238.934 145.421 238.469 144.851C238.231 144.564 237.986 144.277 237.734 143.997L237.538 143.794L237.216 143.458C236.936 143.178 236.628 142.905 236.334 142.632L237.104 140.994C237.23 140.721 237.272 140.448 237.37 140.182C237.414 139.922 237.444 139.661 237.461 139.398C237.449 139.161 237.409 138.926 237.342 138.698C237.138 138.185 236.832 137.718 236.442 137.327C236.052 136.936 235.587 136.628 235.074 136.423L235.067 136.36Z" fill="#221F1F"/>
<path d="M231.483 153.699C233.674 156.499 237.839 152.341 234.759 150.703C234.093 150.403 233.356 150.298 232.632 150.4C231.909 150.501 231.229 150.805 230.671 151.277C229.32 152.467 229.859 154.28 230.825 155.554C232.701 158.025 235.725 157.486 237.426 155.176C239.652 152.173 237.517 147.721 233.569 148.939C232.659 149.226 232.869 150.136 233.807 149.849C237.538 148.694 237.629 155.043 234.696 156.149C233.296 156.653 231.896 154.875 231.539 153.706C231.182 152.537 231.798 151.207 233.31 151.445C233.479 151.484 233.638 151.557 233.778 151.659C233.918 151.762 234.035 151.892 234.123 152.041C234.211 152.19 234.267 152.356 234.288 152.528C234.31 152.7 234.296 152.875 234.248 153.041C233.996 153.65 233.275 153.58 232.883 153.083C232.491 152.586 231.049 153.167 231.483 153.72V153.699Z" fill="#221F1F"/>
<path d="M232.239 142.947C232.379 144.158 235.739 143.367 235.844 142.135C236.131 139.335 231.161 139.937 231.329 142.835C231.469 145.243 235.305 145.586 236.803 144.312C237.839 143.43 238.826 141.848 238.203 140.476C237.669 139.491 236.849 138.69 235.851 138.18C232.967 136.64 228.032 139.167 229.824 142.751C230.083 143.269 231.378 142.87 231.14 142.401C230.889 141.892 230.807 141.316 230.906 140.758C231.006 140.199 231.281 139.687 231.692 139.296C232.104 138.905 232.629 138.655 233.192 138.584C233.755 138.513 234.326 138.624 234.822 138.901C235.641 139.328 236.789 140.245 237.034 141.204C237.58 143.353 234.633 145.229 233.044 143.542C232.879 143.37 232.758 143.16 232.692 142.931C232.627 142.701 232.617 142.46 232.666 142.226C233.107 140.686 234.619 141.33 234.507 142.156C234.451 142.569 233.576 142.709 233.562 142.569C233.499 142.037 232.162 142.352 232.239 142.926V142.947Z" fill="#221F1F"/>
<path d="M221.977 134.603C222.089 135.576 224.679 134.946 224.777 133.994C224.987 131.978 221.277 132.426 221.389 134.533C221.487 136.304 224.308 136.423 225.358 135.506C226.058 134.897 226.716 133.847 226.303 132.902C225.952 132.235 225.401 131.694 224.728 131.355C222.768 130.298 219.128 131.992 220.416 134.505C220.668 135.016 221.963 134.617 221.732 134.148C221.56 133.87 221.485 133.542 221.518 133.217C221.551 132.891 221.689 132.585 221.913 132.346C222.137 132.108 222.433 131.949 222.756 131.895C223.078 131.841 223.41 131.895 223.699 132.048C224.321 132.329 224.818 132.826 225.099 133.448C225.4 134.645 223.895 135.765 222.957 134.799C222.858 134.7 222.785 134.577 222.746 134.443C222.707 134.308 222.703 134.166 222.733 134.029C222.999 133.329 223.531 133.707 223.433 134.064C223.391 134.281 223.433 134.029 223.433 134.127H223.244C223.153 134.127 223.181 134.127 223.314 134.225C223.251 133.693 221.914 134.001 221.991 134.575L221.977 134.603Z" fill="#221F1F"/>
<path d="M231.658 136.325C231.497 136.108 231.623 136.521 231.378 136.542C231.252 136.682 231.203 136.717 231.238 136.64C231.107 136.476 231.02 136.281 230.986 136.073C231.168 134.708 232.386 135.975 232.47 136.416C232.493 136.74 232.409 137.062 232.232 137.333C232.131 137.547 231.983 137.736 231.8 137.886C231.617 138.036 231.403 138.143 231.174 138.201C230.944 138.258 230.705 138.264 230.473 138.218C230.24 138.172 230.021 138.076 229.831 137.935C229.65 137.845 229.492 137.714 229.37 137.553C229.249 137.391 229.167 137.203 229.131 137.004C228.937 136.213 229.003 135.381 229.32 134.631C229.486 134.289 229.749 134.003 230.077 133.811C230.405 133.618 230.783 133.527 231.162 133.549C231.542 133.57 231.907 133.704 232.21 133.933C232.514 134.162 232.743 134.475 232.869 134.834C233.072 135.366 234.381 134.988 234.185 134.477C233.324 132.181 230.02 132.125 228.522 133.847C227.682 134.813 227.325 136.787 228.032 137.935C228.662 138.957 230.293 139.237 231.378 139.076C231.874 138.964 232.337 138.735 232.728 138.409C233.118 138.083 233.426 137.668 233.625 137.2C234.78 134.631 230.279 133.462 229.705 135.912C229.648 136.157 229.661 136.413 229.742 136.65C229.823 136.888 229.969 137.098 230.164 137.257C230.359 137.416 230.594 137.517 230.843 137.549C231.092 137.581 231.346 137.543 231.574 137.438C232.029 137.277 233.373 136.402 232.904 135.779C232.582 135.352 231.315 135.835 231.686 136.325H231.658Z" fill="#221F1F"/>
<path d="M214.711 137.242C214.011 137.396 214.676 137.466 214.767 138.054C214.942 139.202 212.667 138.229 213.591 137.039L215.481 136.402C215.735 136.468 215.97 136.593 216.165 136.769C216.36 136.944 216.509 137.164 216.601 137.41C216.732 137.868 216.732 138.352 216.601 138.81C216.349 139.909 215.488 141.505 214.179 141.512C213.574 141.446 212.992 141.238 212.482 140.906C211.971 140.574 211.546 140.127 211.239 139.601C210.252 137.928 211.008 134.652 213.458 135.016C214.046 135.1 214.823 134.281 213.941 134.148C213.235 134.063 212.519 134.167 211.867 134.451C211.214 134.735 210.65 135.188 210.231 135.763C209.812 136.338 209.554 137.014 209.484 137.722C209.414 138.43 209.534 139.144 209.832 139.79C210.875 141.925 213.738 143.129 215.831 141.792C218.407 140.154 219.093 135.156 214.984 135.457C213.633 135.562 212.079 136.395 212.135 137.928C212.184 139.265 213.199 139.713 214.403 139.538C215.341 139.398 216.279 138.838 216.097 137.774C215.964 136.997 215.327 136.234 214.487 136.43C213.647 136.626 213.892 137.417 214.704 137.228L214.711 137.242Z" fill="#221F1F"/>
<path d="M209.3 145.502C210.434 146.125 208.845 146.202 208.558 146.041C207.858 145.684 208.355 145.488 208.887 145.236C209.156 145.107 209.456 145.059 209.752 145.098C210.048 145.136 210.326 145.26 210.552 145.453C210.779 145.646 210.945 145.902 211.03 146.187C211.114 146.473 211.114 146.777 211.029 147.063C210.539 149.296 207.291 149.485 206.199 147.686C205.673 146.692 205.468 145.56 205.611 144.445C205.919 142.072 208.922 141.064 210.343 143.283C210.63 143.724 211.897 143.283 211.561 142.73C209.951 140.217 205.618 140.882 204.561 143.591C203.861 145.327 204.281 148.141 205.996 149.149C206.641 149.536 207.37 149.759 208.12 149.799C208.87 149.84 209.619 149.696 210.301 149.38C211.379 148.813 212.534 147.588 212.401 146.293C212.384 145.974 212.301 145.662 212.156 145.377C212.011 145.092 211.808 144.84 211.56 144.638C211.312 144.437 211.025 144.289 210.716 144.205C210.408 144.121 210.085 144.103 209.769 144.151C208.95 144.263 207.011 144.788 206.85 145.824C206.472 148.323 213.43 146.524 210.35 144.795C209.902 144.55 208.712 145.173 209.314 145.495L209.3 145.502Z" fill="#221F1F"/>
<path d="M216.076 137.984C215.852 138.796 217.056 139.762 217.805 139.748C218.298 139.713 218.761 139.495 219.102 139.136C219.442 138.777 219.637 138.304 219.646 137.809C219.38 135.1 215.481 135.478 215.138 138.019C214.739 140.924 218.729 141.561 220.619 140.518C223.685 138.817 222.628 134.918 220.164 133.189C217.203 131.089 213.759 133.658 213.927 136.976C213.927 137.494 215.278 137.207 215.25 136.626C215.194 135.583 215.579 134.085 216.58 133.56C217.581 133.035 218.729 133.518 219.499 134.19C220.738 135.282 221.858 137.41 220.899 139.013C219.772 140.882 216.216 140.259 216.468 137.886C216.594 136.71 217.658 136.654 218.141 137.606C218.904 139.111 217.175 138.719 217.406 137.858C217.56 137.291 216.223 137.466 216.083 137.984H216.076Z" fill="#221F1F"/>
<path d="M227.787 140.595C228.333 140.28 228.487 140.126 228.151 140.126C228.021 140.122 227.894 140.096 227.773 140.049C227.591 139.909 227.36 139.895 227.213 139.692C227.11 139.513 227.063 139.308 227.077 139.102C227.091 138.897 227.166 138.7 227.291 138.536C227.417 138.373 227.589 138.251 227.784 138.185C227.979 138.119 228.19 138.112 228.389 138.166C228.749 138.295 229.071 138.512 229.327 138.796C230.517 139.937 229.397 143.115 227.668 143.115C225.939 143.115 224.693 140.826 224.455 139.398C224.14 137.494 225.855 135.793 227.57 135.639C227.936 135.579 228.311 135.605 228.665 135.713C229.02 135.821 229.345 136.009 229.616 136.263C229.886 136.516 230.095 136.829 230.226 137.176C230.356 137.523 230.406 137.895 230.37 138.264C230.37 138.887 231.672 138.663 231.7 138.138C231.868 134.47 227.5 133.84 225.071 135.66C223.79 136.626 222.775 138.278 223.167 139.916C223.489 141.253 224.455 142.954 225.708 143.605C228.543 145.082 230.804 142.681 231.154 139.986C231.469 137.501 227.605 136.178 226.128 138.159C224.728 140.035 227.528 142.023 228.991 140.63C229.037 140.588 229.072 140.536 229.092 140.477C229.113 140.418 229.119 140.356 229.11 140.294V140.245C228.97 139.699 227.654 140.049 227.787 140.595Z" fill="#221F1F"/>
<path d="M238 147.238C236.11 145.621 233.051 147.609 233.849 150.038C234.647 152.467 237.783 152.061 239.358 150.675C241.227 149.037 241.507 146.419 239.274 144.998C238.173 144.315 236.863 144.053 235.584 144.26C234.305 144.467 233.145 145.129 232.316 146.125C232.83 146.229 233.365 146.128 233.807 145.845C235.207 143.99 238.161 144.991 239.134 146.818C239.321 147.221 239.407 147.663 239.387 148.107C239.366 148.55 239.238 148.982 239.015 149.366C238.504 150.479 237.489 151.802 236.18 150.829C235.895 150.591 235.664 150.296 235.5 149.964C235.336 149.631 235.243 149.268 235.228 148.897C235.193 148.064 235.634 146.979 236.565 147.777C236.859 148.029 238.196 147.434 237.965 147.266L238 147.238Z" fill="#221F1F"/>
</svg>
