<svg width="1074" height="246" viewBox="0 0 1074 246" fill="none" xmlns="http://www.w3.org/2000/svg">
<path d="M42.9679 39V22.2H46.6159L51.9679 32.856L57.2479 22.2H60.8959V39H57.8239V27.408L53.1439 36.6H50.7199L46.0399 27.408V39H42.9679ZM69.8674 39.288C68.6674 39.288 67.6034 39.032 66.6754 38.52C65.7474 38.008 65.0194 37.288 64.4914 36.36C63.9634 35.432 63.6994 34.36 63.6994 33.144C63.6994 31.912 63.9554 30.816 64.4674 29.856C64.9954 28.896 65.7154 28.152 66.6274 27.624C67.5554 27.08 68.6434 26.808 69.8914 26.808C71.0594 26.808 72.0914 27.064 72.9874 27.576C73.8834 28.088 74.5794 28.792 75.0754 29.688C75.5874 30.568 75.8434 31.552 75.8434 32.64C75.8434 32.816 75.8354 33 75.8194 33.192C75.8194 33.384 75.8114 33.584 75.7954 33.792H66.7474C66.8114 34.72 67.1314 35.448 67.7074 35.976C68.2994 36.504 69.0114 36.768 69.8434 36.768C70.4674 36.768 70.9874 36.632 71.4034 36.36C71.8354 36.072 72.1554 35.704 72.3634 35.256H75.4834C75.2594 36.008 74.8834 36.696 74.3554 37.32C73.8434 37.928 73.2034 38.408 72.4354 38.76C71.6834 39.112 70.8274 39.288 69.8674 39.288ZM69.8914 29.304C69.1394 29.304 68.4754 29.52 67.8994 29.952C67.3234 30.368 66.9554 31.008 66.7954 31.872H72.7234C72.6754 31.088 72.3874 30.464 71.8594 30C71.3314 29.536 70.6754 29.304 69.8914 29.304ZM83.8992 39.288C82.7792 39.288 81.7792 39.016 80.8992 38.472C80.0192 37.928 79.3232 37.184 78.8112 36.24C78.2992 35.296 78.0432 34.224 78.0432 33.024C78.0432 31.824 78.2992 30.76 78.8112 29.832C79.3232 28.888 80.0192 28.152 80.8992 27.624C81.7792 27.08 82.7792 26.808 83.8992 26.808C84.7952 26.808 85.5792 26.976 86.2512 27.312C86.9232 27.648 87.4672 28.12 87.8832 28.728V21.72H90.9552V39H88.2192L87.8832 37.296C87.4992 37.824 86.9872 38.288 86.3472 38.688C85.7232 39.088 84.9072 39.288 83.8992 39.288ZM84.5472 36.6C85.5392 36.6 86.3472 36.272 86.9712 35.616C87.6112 34.944 87.9312 34.088 87.9312 33.048C87.9312 32.008 87.6112 31.16 86.9712 30.504C86.3472 29.832 85.5392 29.496 84.5472 29.496C83.5712 29.496 82.7632 29.824 82.1232 30.48C81.4832 31.136 81.1632 31.984 81.1632 33.024C81.1632 34.064 81.4832 34.92 82.1232 35.592C82.7632 36.264 83.5712 36.6 84.5472 36.6ZM95.7394 25.248C95.1794 25.248 94.7154 25.08 94.3474 24.744C93.9954 24.408 93.8194 23.984 93.8194 23.472C93.8194 22.96 93.9954 22.544 94.3474 22.224C94.7154 21.888 95.1794 21.72 95.7394 21.72C96.2994 21.72 96.7554 21.888 97.1074 22.224C97.4754 22.544 97.6594 22.96 97.6594 23.472C97.6594 23.984 97.4754 24.408 97.1074 24.744C96.7554 25.08 96.2994 25.248 95.7394 25.248ZM94.2034 39V27.096H97.2754V39H94.2034ZM104.946 39.288C103.458 39.288 102.306 38.824 101.49 37.896C100.69 36.968 100.29 35.608 100.29 33.816V27.096H103.338V33.528C103.338 34.552 103.546 35.336 103.962 35.88C104.378 36.424 105.034 36.696 105.93 36.696C106.778 36.696 107.474 36.392 108.018 35.784C108.578 35.176 108.858 34.328 108.858 33.24V27.096H111.93V39H109.218L108.978 36.984C108.61 37.688 108.074 38.248 107.37 38.664C106.682 39.08 105.874 39.288 104.946 39.288ZM115.083 39V27.096H117.795L118.059 28.704C118.443 28.128 118.947 27.672 119.571 27.336C120.211 26.984 120.947 26.808 121.779 26.808C123.619 26.808 124.923 27.52 125.691 28.944C126.123 28.288 126.699 27.768 127.419 27.384C128.155 27 128.955 26.808 129.819 26.808C131.371 26.808 132.563 27.272 133.395 28.2C134.227 29.128 134.643 30.488 134.643 32.28V39H131.571V32.568C131.571 31.544 131.371 30.76 130.971 30.216C130.587 29.672 129.987 29.4 129.171 29.4C128.339 29.4 127.667 29.704 127.155 30.312C126.659 30.92 126.411 31.768 126.411 32.856V39H123.339V32.568C123.339 31.544 123.139 30.76 122.739 30.216C122.339 29.672 121.723 29.4 120.891 29.4C120.075 29.4 119.411 29.704 118.899 30.312C118.403 30.92 118.155 31.768 118.155 32.856V39H115.083Z" fill="black"/>
<rect x="187" y="1" width="884" height="60" rx="15" fill="#FCFCFC"/>
<rect x="187" y="1" width="884" height="60" rx="15" stroke="black" stroke-width="2"/>
<rect x="187" y="1" width="770" height="60" rx="15" fill="#FFE160"/>
<path d="M225.32 39.288C224.264 39.288 223.36 39.08 222.608 38.664C221.856 38.248 221.256 37.696 220.808 37.008C220.376 36.304 220.112 35.528 220.016 34.68H221.888C222.048 35.592 222.432 36.296 223.04 36.792C223.648 37.288 224.416 37.536 225.344 37.536C226.624 37.536 227.688 36.944 228.536 35.76C229.384 34.56 229.84 32.696 229.904 30.168C229.52 30.92 228.904 31.576 228.056 32.136C227.224 32.68 226.216 32.952 225.032 32.952C224.088 32.952 223.192 32.728 222.344 32.28C221.496 31.832 220.808 31.208 220.28 30.408C219.752 29.592 219.488 28.64 219.488 27.552C219.488 26.608 219.72 25.704 220.184 24.84C220.664 23.976 221.336 23.272 222.2 22.728C223.064 22.184 224.096 21.912 225.296 21.912C226.512 21.912 227.536 22.144 228.368 22.608C229.2 23.056 229.864 23.664 230.36 24.432C230.872 25.2 231.24 26.064 231.464 27.024C231.704 27.968 231.824 28.936 231.824 29.928C231.824 31.784 231.568 33.416 231.056 34.824C230.544 36.216 229.8 37.312 228.824 38.112C227.864 38.896 226.696 39.288 225.32 39.288ZM225.44 31.2C226.192 31.2 226.864 31.032 227.456 30.696C228.048 30.344 228.52 29.88 228.872 29.304C229.224 28.728 229.4 28.104 229.4 27.432C229.4 26.712 229.224 26.072 228.872 25.512C228.52 24.936 228.048 24.488 227.456 24.168C226.864 23.848 226.192 23.688 225.44 23.688C224.688 23.688 224.016 23.848 223.424 24.168C222.832 24.488 222.368 24.936 222.032 25.512C221.696 26.072 221.528 26.72 221.528 27.456C221.528 28.592 221.896 29.504 222.632 30.192C223.384 30.864 224.32 31.2 225.44 31.2ZM241.445 39.288C239.957 39.288 238.669 38.928 237.581 38.208C236.509 37.472 235.685 36.456 235.109 35.16C234.533 33.848 234.245 32.328 234.245 30.6C234.245 28.872 234.533 27.36 235.109 26.064C235.685 24.752 236.509 23.736 237.581 23.016C238.669 22.28 239.957 21.912 241.445 21.912C242.933 21.912 244.213 22.28 245.285 23.016C246.357 23.736 247.181 24.752 247.757 26.064C248.333 27.36 248.621 28.872 248.621 30.6C248.621 32.328 248.333 33.848 247.757 35.16C247.181 36.456 246.357 37.472 245.285 38.208C244.213 38.928 242.933 39.288 241.445 39.288ZM241.445 37.512C242.421 37.512 243.293 37.24 244.061 36.696C244.845 36.136 245.453 35.344 245.885 34.32C246.333 33.28 246.557 32.04 246.557 30.6C246.557 29.16 246.333 27.928 245.885 26.904C245.453 25.88 244.845 25.096 244.061 24.552C243.293 23.992 242.421 23.712 241.445 23.712C240.453 23.712 239.573 23.992 238.805 24.552C238.037 25.096 237.429 25.88 236.981 26.904C236.533 27.928 236.309 29.16 236.309 30.6C236.309 32.04 236.533 33.28 236.981 34.32C237.429 35.344 238.037 36.136 238.805 36.696C239.573 37.24 240.453 37.512 241.445 37.512ZM254.558 30C253.838 30 253.182 29.84 252.59 29.52C252.014 29.184 251.558 28.72 251.222 28.128C250.886 27.52 250.718 26.8 250.718 25.968C250.718 25.136 250.886 24.424 251.222 23.832C251.574 23.224 252.038 22.76 252.614 22.44C253.206 22.104 253.862 21.936 254.582 21.936C255.302 21.936 255.95 22.104 256.526 22.44C257.102 22.76 257.558 23.224 257.894 23.832C258.23 24.424 258.398 25.136 258.398 25.968C258.398 26.8 258.222 27.52 257.87 28.128C257.534 28.72 257.078 29.184 256.502 29.52C255.926 29.84 255.278 30 254.558 30ZM253.07 39L262.838 22.2H264.854L255.086 39H253.07ZM254.558 28.44C255.118 28.44 255.606 28.232 256.022 27.816C256.454 27.4 256.67 26.784 256.67 25.968C256.67 25.136 256.462 24.512 256.046 24.096C255.63 23.664 255.142 23.448 254.582 23.448C254.022 23.448 253.518 23.664 253.07 24.096C252.638 24.512 252.422 25.136 252.422 25.968C252.422 26.784 252.638 27.4 253.07 27.816C253.502 28.232 253.998 28.44 254.558 28.44ZM263.534 39.288C262.814 39.288 262.158 39.128 261.566 38.808C260.99 38.472 260.534 38.008 260.198 37.416C259.862 36.808 259.694 36.088 259.694 35.256C259.694 34.424 259.862 33.712 260.198 33.12C260.55 32.512 261.014 32.048 261.59 31.728C262.166 31.392 262.814 31.224 263.534 31.224C264.254 31.224 264.902 31.392 265.478 31.728C266.054 32.048 266.51 32.512 266.846 33.12C267.182 33.712 267.35 34.424 267.35 35.256C267.35 36.088 267.182 36.808 266.846 37.416C266.51 38.008 266.054 38.472 265.478 38.808C264.902 39.128 264.254 39.288 263.534 39.288ZM263.51 37.728C264.086 37.728 264.582 37.52 264.998 37.104C265.43 36.688 265.646 36.072 265.646 35.256C265.646 34.424 265.438 33.8 265.022 33.384C264.606 32.968 264.11 32.76 263.534 32.76C262.974 32.76 262.478 32.968 262.046 33.384C261.614 33.8 261.398 34.424 261.398 35.256C261.398 36.072 261.606 36.688 262.022 37.104C262.454 37.52 262.95 37.728 263.51 37.728Z" fill="black"/>
<rect x="187" y="1" width="770" height="60" rx="15" stroke="black" stroke-width="2"/>
<path d="M79.6476 131V114.2H82.7196V128.6H90.1596V131H79.6476ZM94.4504 117.248C93.8904 117.248 93.4264 117.08 93.0584 116.744C92.7064 116.408 92.5304 115.984 92.5304 115.472C92.5304 114.96 92.7064 114.544 93.0584 114.224C93.4264 113.888 93.8904 113.72 94.4504 113.72C95.0104 113.72 95.4664 113.888 95.8184 114.224C96.1864 114.544 96.3704 114.96 96.3704 115.472C96.3704 115.984 96.1864 116.408 95.8184 116.744C95.4664 117.08 95.0104 117.248 94.4504 117.248ZM92.9144 131V119.096H95.9864V131H92.9144ZM104.233 127.448C103.657 127.448 103.121 127.384 102.625 127.256L101.737 128.144C102.009 128.288 102.377 128.408 102.841 128.504C103.305 128.6 104.057 128.696 105.097 128.792C106.681 128.936 107.833 129.312 108.553 129.92C109.273 130.528 109.633 131.368 109.633 132.44C109.633 133.144 109.441 133.808 109.057 134.432C108.673 135.072 108.081 135.584 107.281 135.968C106.481 136.368 105.457 136.568 104.209 136.568C102.513 136.568 101.145 136.248 100.105 135.608C99.0648 134.984 98.5448 134.04 98.5448 132.776C98.5448 131.704 99.0648 130.776 100.105 129.992C99.7848 129.848 99.5048 129.696 99.2648 129.536C99.0408 129.376 98.8408 129.208 98.6648 129.032V128.48L100.753 126.272C99.8248 125.456 99.3608 124.408 99.3608 123.128C99.3608 122.328 99.5528 121.6 99.9368 120.944C100.337 120.288 100.897 119.768 101.617 119.384C102.337 119 103.209 118.808 104.233 118.808C104.905 118.808 105.529 118.904 106.105 119.096H110.617V120.968L108.577 121.112C108.897 121.72 109.057 122.392 109.057 123.128C109.057 123.928 108.865 124.656 108.481 125.312C108.097 125.968 107.537 126.488 106.801 126.872C106.081 127.256 105.225 127.448 104.233 127.448ZM104.233 125.096C104.857 125.096 105.369 124.928 105.769 124.592C106.185 124.256 106.393 123.776 106.393 123.152C106.393 122.528 106.185 122.048 105.769 121.712C105.369 121.376 104.857 121.208 104.233 121.208C103.577 121.208 103.049 121.376 102.649 121.712C102.249 122.048 102.049 122.528 102.049 123.152C102.049 123.776 102.249 124.256 102.649 124.592C103.049 124.928 103.577 125.096 104.233 125.096ZM101.353 132.464C101.353 133.056 101.625 133.496 102.169 133.784C102.729 134.088 103.409 134.24 104.209 134.24C104.977 134.24 105.601 134.08 106.081 133.76C106.561 133.456 106.801 133.04 106.801 132.512C106.801 132.08 106.641 131.72 106.321 131.432C106.017 131.144 105.401 130.968 104.473 130.904C103.817 130.856 103.209 130.784 102.649 130.688C102.185 130.944 101.849 131.224 101.641 131.528C101.449 131.832 101.353 132.144 101.353 132.464ZM112.857 131V113.72H115.929V120.92C116.329 120.264 116.865 119.752 117.537 119.384C118.225 119 119.009 118.808 119.889 118.808C121.361 118.808 122.497 119.272 123.297 120.2C124.113 121.128 124.521 122.488 124.521 124.28V131H121.473V124.568C121.473 123.544 121.265 122.76 120.849 122.216C120.449 121.672 119.809 121.4 118.929 121.4C118.065 121.4 117.345 121.704 116.769 122.312C116.209 122.92 115.929 123.768 115.929 124.856V131H112.857ZM132.762 131C131.514 131 130.514 130.696 129.762 130.088C129.01 129.48 128.634 128.4 128.634 126.848V121.664H126.594V119.096H128.634L128.994 115.904H131.706V119.096H134.922V121.664H131.706V126.872C131.706 127.448 131.826 127.848 132.066 128.072C132.322 128.28 132.754 128.384 133.362 128.384H134.85V131H132.762Z" fill="black"/>
<rect x="187" y="93" width="884" height="60" rx="15" fill="#FCFCFC"/>
<rect x="187" y="93" width="884" height="60" rx="15" stroke="black" stroke-width="2"/>
<rect x="187" y="93" width="139" height="60" rx="15" fill="#FFCF00" fill-opacity="0.37"/>
<path d="M221.432 131V116.456L218.72 117.056V115.664L222.104 114.2H223.472V131H221.432ZM233.57 131.288C232.082 131.288 230.794 130.928 229.706 130.208C228.634 129.472 227.81 128.456 227.234 127.16C226.658 125.848 226.37 124.328 226.37 122.6C226.37 120.872 226.658 119.36 227.234 118.064C227.81 116.752 228.634 115.736 229.706 115.016C230.794 114.28 232.082 113.912 233.57 113.912C235.058 113.912 236.338 114.28 237.41 115.016C238.482 115.736 239.306 116.752 239.882 118.064C240.458 119.36 240.746 120.872 240.746 122.6C240.746 124.328 240.458 125.848 239.882 127.16C239.306 128.456 238.482 129.472 237.41 130.208C236.338 130.928 235.058 131.288 233.57 131.288ZM233.57 129.512C234.546 129.512 235.418 129.24 236.186 128.696C236.97 128.136 237.578 127.344 238.01 126.32C238.458 125.28 238.682 124.04 238.682 122.6C238.682 121.16 238.458 119.928 238.01 118.904C237.578 117.88 236.97 117.096 236.186 116.552C235.418 115.992 234.546 115.712 233.57 115.712C232.578 115.712 231.698 115.992 230.93 116.552C230.162 117.096 229.554 117.88 229.106 118.904C228.658 119.928 228.434 121.16 228.434 122.6C228.434 124.04 228.658 125.28 229.106 126.32C229.554 127.344 230.162 128.136 230.93 128.696C231.698 129.24 232.578 129.512 233.57 129.512ZM246.683 122C245.963 122 245.307 121.84 244.715 121.52C244.139 121.184 243.683 120.72 243.347 120.128C243.011 119.52 242.843 118.8 242.843 117.968C242.843 117.136 243.011 116.424 243.347 115.832C243.699 115.224 244.163 114.76 244.739 114.44C245.331 114.104 245.987 113.936 246.707 113.936C247.427 113.936 248.075 114.104 248.651 114.44C249.227 114.76 249.683 115.224 250.019 115.832C250.355 116.424 250.523 117.136 250.523 117.968C250.523 118.8 250.347 119.52 249.995 120.128C249.659 120.72 249.203 121.184 248.627 121.52C248.051 121.84 247.403 122 246.683 122ZM245.195 131L254.963 114.2H256.979L247.211 131H245.195ZM246.683 120.44C247.243 120.44 247.731 120.232 248.147 119.816C248.579 119.4 248.795 118.784 248.795 117.968C248.795 117.136 248.587 116.512 248.171 116.096C247.755 115.664 247.267 115.448 246.707 115.448C246.147 115.448 245.643 115.664 245.195 116.096C244.763 116.512 244.547 117.136 244.547 117.968C244.547 118.784 244.763 119.4 245.195 119.816C245.627 120.232 246.123 120.44 246.683 120.44ZM255.659 131.288C254.939 131.288 254.283 131.128 253.691 130.808C253.115 130.472 252.659 130.008 252.323 129.416C251.987 128.808 251.819 128.088 251.819 127.256C251.819 126.424 251.987 125.712 252.323 125.12C252.675 124.512 253.139 124.048 253.715 123.728C254.291 123.392 254.939 123.224 255.659 123.224C256.379 123.224 257.027 123.392 257.603 123.728C258.179 124.048 258.635 124.512 258.971 125.12C259.307 125.712 259.475 126.424 259.475 127.256C259.475 128.088 259.307 128.808 258.971 129.416C258.635 130.008 258.179 130.472 257.603 130.808C257.027 131.128 256.379 131.288 255.659 131.288ZM255.635 129.728C256.211 129.728 256.707 129.52 257.123 129.104C257.555 128.688 257.771 128.072 257.771 127.256C257.771 126.424 257.563 125.8 257.147 125.384C256.731 124.968 256.235 124.76 255.659 124.76C255.099 124.76 254.603 124.968 254.171 125.384C253.739 125.8 253.523 126.424 253.523 127.256C253.523 128.072 253.731 128.688 254.147 129.104C254.579 129.52 255.075 129.728 255.635 129.728Z" fill="black"/>
<rect x="187" y="93" width="139" height="60" rx="15" stroke="black" stroke-width="2"/>
<path d="M67.257 223V206.2H70.329V213.184H77.865V206.2H80.937V223H77.865V215.68H70.329V223H67.257ZM89.9143 223.288C88.7143 223.288 87.6503 223.032 86.7223 222.52C85.7943 222.008 85.0663 221.288 84.5383 220.36C84.0103 219.432 83.7463 218.36 83.7463 217.144C83.7463 215.912 84.0023 214.816 84.5143 213.856C85.0423 212.896 85.7623 212.152 86.6743 211.624C87.6023 211.08 88.6903 210.808 89.9383 210.808C91.1063 210.808 92.1383 211.064 93.0343 211.576C93.9303 212.088 94.6263 212.792 95.1223 213.688C95.6343 214.568 95.8903 215.552 95.8903 216.64C95.8903 216.816 95.8823 217 95.8663 217.192C95.8663 217.384 95.8583 217.584 95.8423 217.792H86.7943C86.8583 218.72 87.1783 219.448 87.7543 219.976C88.3463 220.504 89.0583 220.768 89.8903 220.768C90.5143 220.768 91.0343 220.632 91.4503 220.36C91.8823 220.072 92.2023 219.704 92.4103 219.256H95.5303C95.3063 220.008 94.9303 220.696 94.4023 221.32C93.8903 221.928 93.2503 222.408 92.4823 222.76C91.7303 223.112 90.8743 223.288 89.9143 223.288ZM89.9383 213.304C89.1863 213.304 88.5223 213.52 87.9463 213.952C87.3703 214.368 87.0023 215.008 86.8423 215.872H92.7703C92.7223 215.088 92.4343 214.464 91.9063 214C91.3783 213.536 90.7223 213.304 89.9383 213.304ZM102.578 223.288C101.554 223.288 100.714 223.128 100.058 222.808C99.4021 222.472 98.9141 222.032 98.5941 221.488C98.2741 220.944 98.1141 220.344 98.1141 219.688C98.1141 218.584 98.5461 217.688 99.4101 217C100.274 216.312 101.57 215.968 103.298 215.968H106.322V215.68C106.322 214.864 106.09 214.264 105.626 213.88C105.162 213.496 104.586 213.304 103.898 213.304C103.274 213.304 102.73 213.456 102.266 213.76C101.802 214.048 101.514 214.48 101.402 215.056H98.4021C98.4821 214.192 98.7701 213.44 99.2661 212.8C99.7781 212.16 100.434 211.672 101.234 211.336C102.034 210.984 102.93 210.808 103.922 210.808C105.618 210.808 106.954 211.232 107.93 212.08C108.906 212.928 109.394 214.128 109.394 215.68V223H106.778L106.49 221.08C106.138 221.72 105.642 222.248 105.002 222.664C104.378 223.08 103.57 223.288 102.578 223.288ZM103.274 220.888C104.154 220.888 104.834 220.6 105.314 220.024C105.81 219.448 106.122 218.736 106.25 217.888H103.634C102.818 217.888 102.234 218.04 101.882 218.344C101.53 218.632 101.354 218.992 101.354 219.424C101.354 219.888 101.53 220.248 101.882 220.504C102.234 220.76 102.698 220.888 103.274 220.888ZM115.19 223L110.822 211.096H114.038L117.062 220.096L120.086 211.096H123.302L118.91 223H115.19ZM126.728 228.28L129.488 222.208H128.768L124.136 211.096H127.472L130.808 219.472L134.288 211.096H137.552L129.992 228.28H126.728Z" fill="black"/>
<rect x="189" y="185" width="884" height="60" rx="15" fill="#FCFCFC"/>
<path d="M228.328 223.288C226.84 223.288 225.552 222.928 224.464 222.208C223.392 221.472 222.568 220.456 221.992 219.16C221.416 217.848 221.128 216.328 221.128 214.6C221.128 212.872 221.416 211.36 221.992 210.064C222.568 208.752 223.392 207.736 224.464 207.016C225.552 206.28 226.84 205.912 228.328 205.912C229.816 205.912 231.096 206.28 232.168 207.016C233.24 207.736 234.064 208.752 234.64 210.064C235.216 211.36 235.504 212.872 235.504 214.6C235.504 216.328 235.216 217.848 234.64 219.16C234.064 220.456 233.24 221.472 232.168 222.208C231.096 222.928 229.816 223.288 228.328 223.288ZM228.328 221.512C229.304 221.512 230.176 221.24 230.944 220.696C231.728 220.136 232.336 219.344 232.768 218.32C233.216 217.28 233.44 216.04 233.44 214.6C233.44 213.16 233.216 211.928 232.768 210.904C232.336 209.88 231.728 209.096 230.944 208.552C230.176 207.992 229.304 207.712 228.328 207.712C227.336 207.712 226.456 207.992 225.688 208.552C224.92 209.096 224.312 209.88 223.864 210.904C223.416 211.928 223.192 213.16 223.192 214.6C223.192 216.04 223.416 217.28 223.864 218.32C224.312 219.344 224.92 220.136 225.688 220.696C226.456 221.24 227.336 221.512 228.328 221.512ZM241.441 214C240.721 214 240.065 213.84 239.473 213.52C238.897 213.184 238.441 212.72 238.105 212.128C237.769 211.52 237.601 210.8 237.601 209.968C237.601 209.136 237.769 208.424 238.105 207.832C238.457 207.224 238.921 206.76 239.497 206.44C240.089 206.104 240.745 205.936 241.465 205.936C242.185 205.936 242.833 206.104 243.409 206.44C243.985 206.76 244.441 207.224 244.777 207.832C245.113 208.424 245.281 209.136 245.281 209.968C245.281 210.8 245.105 211.52 244.753 212.128C244.417 212.72 243.961 213.184 243.385 213.52C242.809 213.84 242.161 214 241.441 214ZM239.953 223L249.721 206.2H251.737L241.969 223H239.953ZM241.441 212.44C242.001 212.44 242.489 212.232 242.905 211.816C243.337 211.4 243.553 210.784 243.553 209.968C243.553 209.136 243.345 208.512 242.929 208.096C242.513 207.664 242.025 207.448 241.465 207.448C240.905 207.448 240.401 207.664 239.953 208.096C239.521 208.512 239.305 209.136 239.305 209.968C239.305 210.784 239.521 211.4 239.953 211.816C240.385 212.232 240.881 212.44 241.441 212.44ZM250.417 223.288C249.697 223.288 249.041 223.128 248.449 222.808C247.873 222.472 247.417 222.008 247.081 221.416C246.745 220.808 246.577 220.088 246.577 219.256C246.577 218.424 246.745 217.712 247.081 217.12C247.433 216.512 247.897 216.048 248.473 215.728C249.049 215.392 249.697 215.224 250.417 215.224C251.137 215.224 251.785 215.392 252.361 215.728C252.937 216.048 253.393 216.512 253.729 217.12C254.065 217.712 254.233 218.424 254.233 219.256C254.233 220.088 254.065 220.808 253.729 221.416C253.393 222.008 252.937 222.472 252.361 222.808C251.785 223.128 251.137 223.288 250.417 223.288ZM250.393 221.728C250.969 221.728 251.465 221.52 251.881 221.104C252.313 220.688 252.529 220.072 252.529 219.256C252.529 218.424 252.321 217.8 251.905 217.384C251.489 216.968 250.993 216.76 250.417 216.76C249.857 216.76 249.361 216.968 248.929 217.384C248.497 217.8 248.281 218.424 248.281 219.256C248.281 220.072 248.489 220.688 248.905 221.104C249.337 221.52 249.833 221.728 250.393 221.728Z" fill="black"/>
<rect x="189" y="185" width="884" height="60" rx="15" stroke="black" stroke-width="2"/>
</svg>
