<svg width="1104" height="508" viewBox="0 0 1104 508" fill="none" xmlns="http://www.w3.org/2000/svg">
<path d="M57.704 26V9.2H68.384V11.264H60.248V16.496H67.664V18.512H60.248V23.936H68.384V26H57.704ZM70.1669 26L74.3909 20.048L70.1669 14.096H72.8789L76.0709 18.656L79.2389 14.096H81.9749L77.7509 20.048L81.9749 26H79.2389L76.0709 21.44L72.8789 26H70.1669ZM87.9134 26.288C86.9054 26.288 86.0734 26.12 85.4174 25.784C84.7614 25.448 84.2734 25.008 83.9534 24.464C83.6334 23.904 83.4734 23.296 83.4734 22.64C83.4734 21.488 83.9214 20.576 84.8174 19.904C85.7134 19.232 86.9934 18.896 88.6574 18.896H91.7774V18.68C91.7774 17.752 91.5214 17.056 91.0094 16.592C90.5134 16.128 89.8654 15.896 89.0654 15.896C88.3614 15.896 87.7454 16.072 87.2174 16.424C86.7054 16.76 86.3934 17.264 86.2814 17.936H83.7374C83.8174 17.072 84.1054 16.336 84.6014 15.728C85.1134 15.104 85.7534 14.632 86.5214 14.312C87.3054 13.976 88.1614 13.808 89.0894 13.808C90.7534 13.808 92.0414 14.248 92.9534 15.128C93.8654 15.992 94.3214 17.176 94.3214 18.68V26H92.1134L91.8974 23.96C91.5614 24.616 91.0734 25.168 90.4334 25.616C89.7934 26.064 88.9534 26.288 87.9134 26.288ZM88.4174 24.224C89.1054 24.224 89.6814 24.064 90.1454 23.744C90.6254 23.408 90.9934 22.968 91.2494 22.424C91.5214 21.88 91.6894 21.28 91.7534 20.624H88.9214C87.9134 20.624 87.1934 20.8 86.7614 21.152C86.3454 21.504 86.1374 21.944 86.1374 22.472C86.1374 23.016 86.3374 23.448 86.7374 23.768C87.1534 24.072 87.7134 24.224 88.4174 24.224ZM97.2877 26V14.096H99.5437L99.7597 15.776C100.144 15.168 100.648 14.688 101.272 14.336C101.912 13.984 102.648 13.808 103.48 13.808C105.368 13.808 106.68 14.552 107.416 16.04C107.848 15.352 108.424 14.808 109.144 14.408C109.88 14.008 110.672 13.808 111.52 13.808C113.008 13.808 114.176 14.256 115.024 15.152C115.872 16.048 116.296 17.384 116.296 19.16V26H113.752V19.424C113.752 17.12 112.872 15.968 111.112 15.968C110.216 15.968 109.48 16.304 108.904 16.976C108.344 17.648 108.064 18.608 108.064 19.856V26H105.52V19.424C105.52 17.12 104.632 15.968 102.856 15.968C101.976 15.968 101.248 16.304 100.672 16.976C100.112 17.648 99.8317 18.608 99.8317 19.856V26H97.2877ZM119.272 31.28V14.096H121.552L121.816 15.944C122.2 15.384 122.728 14.888 123.4 14.456C124.072 14.024 124.936 13.808 125.992 13.808C127.144 13.808 128.16 14.08 129.04 14.624C129.92 15.168 130.608 15.912 131.104 16.856C131.616 17.8 131.872 18.872 131.872 20.072C131.872 21.272 131.616 22.344 131.104 23.288C130.608 24.216 129.92 24.952 129.04 25.496C128.16 26.024 127.136 26.288 125.968 26.288C125.04 26.288 124.216 26.104 123.496 25.736C122.792 25.368 122.232 24.848 121.816 24.176V31.28H119.272ZM125.536 24.08C126.624 24.08 127.52 23.712 128.224 22.976C128.928 22.224 129.28 21.248 129.28 20.048C129.28 19.264 129.12 18.568 128.8 17.96C128.48 17.352 128.04 16.88 127.48 16.544C126.92 16.192 126.272 16.016 125.536 16.016C124.448 16.016 123.552 16.392 122.848 17.144C122.16 17.896 121.816 18.864 121.816 20.048C121.816 21.248 122.16 22.224 122.848 22.976C123.552 23.712 124.448 24.08 125.536 24.08ZM134.624 26V8.72H137.168V26H134.624ZM145.957 26.288C144.789 26.288 143.749 26.032 142.837 25.52C141.941 24.992 141.237 24.264 140.725 23.336C140.213 22.408 139.957 21.328 139.957 20.096C139.957 18.848 140.205 17.752 140.701 16.808C141.213 15.864 141.917 15.128 142.813 14.6C143.725 14.072 144.781 13.808 145.981 13.808C147.149 13.808 148.165 14.072 149.029 14.6C149.893 15.112 150.565 15.8 151.045 16.664C151.525 17.528 151.765 18.48 151.765 19.52C151.765 19.68 151.757 19.856 151.741 20.048C151.741 20.224 151.733 20.424 151.717 20.648H142.453C142.533 21.8 142.909 22.68 143.581 23.288C144.269 23.88 145.061 24.176 145.957 24.176C146.677 24.176 147.277 24.016 147.757 23.696C148.253 23.36 148.621 22.912 148.861 22.352H151.405C151.085 23.472 150.445 24.408 149.485 25.16C148.541 25.912 147.365 26.288 145.957 26.288ZM145.957 15.896C145.109 15.896 144.357 16.152 143.701 16.664C143.045 17.16 142.645 17.912 142.501 18.92H149.221C149.173 17.992 148.845 17.256 148.237 16.712C147.629 16.168 146.869 15.896 145.957 15.896ZM159.157 26.288C157.653 26.288 156.413 25.92 155.437 25.184C154.461 24.448 153.901 23.472 153.757 22.256H156.325C156.453 22.8 156.757 23.272 157.237 23.672C157.717 24.056 158.349 24.248 159.133 24.248C159.901 24.248 160.461 24.088 160.813 23.768C161.165 23.448 161.341 23.08 161.341 22.664C161.341 22.056 161.093 21.648 160.597 21.44C160.117 21.216 159.445 21.016 158.581 20.84C157.909 20.696 157.237 20.504 156.565 20.264C155.909 20.024 155.357 19.688 154.909 19.256C154.477 18.808 154.261 18.208 154.261 17.456C154.261 16.416 154.661 15.552 155.461 14.864C156.261 14.16 157.381 13.808 158.821 13.808C160.149 13.808 161.221 14.128 162.037 14.768C162.869 15.408 163.357 16.312 163.501 17.48H161.053C160.973 16.968 160.733 16.568 160.333 16.28C159.949 15.992 159.429 15.848 158.773 15.848C158.133 15.848 157.637 15.984 157.285 16.256C156.933 16.512 156.757 16.848 156.757 17.264C156.757 17.68 156.997 18.008 157.477 18.248C157.973 18.488 158.621 18.704 159.421 18.896C160.221 19.072 160.957 19.28 161.629 19.52C162.317 19.744 162.869 20.08 163.285 20.528C163.701 20.976 163.909 21.632 163.909 22.496C163.925 23.584 163.501 24.488 162.637 25.208C161.789 25.928 160.629 26.288 159.157 26.288Z" fill="black"/>
<path d="M17.2563 24.5766C16.1146 26.5841 13.2279 26.6027 12.0603 24.6103L4.61671 11.9082C3.44909 9.91568 4.87626 7.40639 7.18561 7.39145L21.9077 7.29617C24.2171 7.28122 25.6766 9.77183 24.5349 11.7793L17.2563 24.5766Z" fill="black"/>
<rect x="58" y="74" width="1046" height="434" fill="#F3F3F3"/>
<path d="M133.632 146V129.2H139.848C141.192 129.2 142.304 129.424 143.184 129.872C144.064 130.32 144.72 130.936 145.152 131.72C145.584 132.504 145.8 133.384 145.8 134.36C145.8 135.288 145.592 136.144 145.176 136.928C144.76 137.696 144.112 138.32 143.232 138.8C142.352 139.264 141.224 139.496 139.848 139.496H136.704V146H133.632ZM136.704 137H139.656C140.728 137 141.496 136.768 141.96 136.304C142.44 135.824 142.68 135.176 142.68 134.36C142.68 133.528 142.44 132.88 141.96 132.416C141.496 131.936 140.728 131.696 139.656 131.696H136.704V137ZM148.138 146V134.096H150.874L151.162 136.328C151.594 135.56 152.178 134.952 152.914 134.504C153.666 134.04 154.546 133.808 155.554 133.808V137.048H154.69C154.018 137.048 153.418 137.152 152.89 137.36C152.362 137.568 151.946 137.928 151.642 138.44C151.354 138.952 151.21 139.664 151.21 140.576V146H148.138ZM163.155 146.288C162.003 146.288 160.963 146.024 160.035 145.496C159.123 144.968 158.395 144.24 157.851 143.312C157.323 142.368 157.059 141.28 157.059 140.048C157.059 138.816 157.331 137.736 157.875 136.808C158.419 135.864 159.147 135.128 160.059 134.6C160.987 134.072 162.027 133.808 163.179 133.808C164.315 133.808 165.339 134.072 166.251 134.6C167.179 135.128 167.907 135.864 168.435 136.808C168.979 137.736 169.251 138.816 169.251 140.048C169.251 141.28 168.979 142.368 168.435 143.312C167.907 144.24 167.179 144.968 166.251 145.496C165.323 146.024 164.291 146.288 163.155 146.288ZM163.155 143.624C163.955 143.624 164.651 143.328 165.243 142.736C165.835 142.128 166.131 141.232 166.131 140.048C166.131 138.864 165.835 137.976 165.243 137.384C164.651 136.776 163.963 136.472 163.179 136.472C162.363 136.472 161.659 136.776 161.067 137.384C160.491 137.976 160.203 138.864 160.203 140.048C160.203 141.232 160.491 142.128 161.067 142.736C161.659 143.328 162.355 143.624 163.155 143.624ZM171.998 146V134.096H174.71L174.974 135.704C175.358 135.128 175.862 134.672 176.486 134.336C177.126 133.984 177.862 133.808 178.694 133.808C180.534 133.808 181.838 134.52 182.606 135.944C183.038 135.288 183.614 134.768 184.334 134.384C185.07 134 185.87 133.808 186.734 133.808C188.286 133.808 189.478 134.272 190.31 135.2C191.142 136.128 191.558 137.488 191.558 139.28V146H188.486V139.568C188.486 138.544 188.286 137.76 187.886 137.216C187.502 136.672 186.902 136.4 186.086 136.4C185.254 136.4 184.582 136.704 184.07 137.312C183.574 137.92 183.326 138.768 183.326 139.856V146H180.254V139.568C180.254 138.544 180.054 137.76 179.654 137.216C179.254 136.672 178.638 136.4 177.806 136.4C176.99 136.4 176.326 136.704 175.814 137.312C175.318 137.92 175.07 138.768 175.07 139.856V146H171.998ZM194.474 151.28V134.096H197.21L197.546 135.8C197.93 135.272 198.434 134.808 199.058 134.408C199.698 134.008 200.522 133.808 201.53 133.808C202.65 133.808 203.65 134.08 204.53 134.624C205.41 135.168 206.106 135.912 206.618 136.856C207.13 137.8 207.386 138.872 207.386 140.072C207.386 141.272 207.13 142.344 206.618 143.288C206.106 144.216 205.41 144.952 204.53 145.496C203.65 146.024 202.65 146.288 201.53 146.288C200.634 146.288 199.85 146.12 199.178 145.784C198.506 145.448 197.962 144.976 197.546 144.368V151.28H194.474ZM200.882 143.6C201.858 143.6 202.666 143.272 203.306 142.616C203.946 141.96 204.266 141.112 204.266 140.072C204.266 139.032 203.946 138.176 203.306 137.504C202.666 136.832 201.858 136.496 200.882 136.496C199.89 136.496 199.074 136.832 198.434 137.504C197.81 138.16 197.498 139.008 197.498 140.048C197.498 141.088 197.81 141.944 198.434 142.616C199.074 143.272 199.89 143.6 200.882 143.6ZM214.966 146C213.718 146 212.718 145.696 211.966 145.088C211.214 144.48 210.838 143.4 210.838 141.848V136.664H208.798V134.096H210.838L211.198 130.904H213.91V134.096H217.126V136.664H213.91V141.872C213.91 142.448 214.03 142.848 214.27 143.072C214.526 143.28 214.958 143.384 215.566 143.384H217.054V146H214.966Z" fill="black"/>
<path d="M642.656 146V128.72H644.672V146H642.656ZM649.2 131.456C648.8 131.456 648.464 131.328 648.192 131.072C647.936 130.8 647.808 130.464 647.808 130.064C647.808 129.68 647.936 129.36 648.192 129.104C648.464 128.848 648.8 128.72 649.2 128.72C649.584 128.72 649.912 128.848 650.184 129.104C650.456 129.36 650.592 129.68 650.592 130.064C650.592 130.464 650.456 130.8 650.184 131.072C649.912 131.328 649.584 131.456 649.2 131.456ZM648.192 146V134.096H650.208V146H648.192ZM658.423 142.256C657.751 142.256 657.135 142.168 656.575 141.992L655.375 143.12C655.551 143.248 655.767 143.36 656.023 143.456C656.295 143.536 656.679 143.616 657.175 143.696C657.671 143.76 658.367 143.832 659.263 143.912C660.863 144.024 662.007 144.392 662.695 145.016C663.383 145.64 663.727 146.456 663.727 147.464C663.727 148.152 663.535 148.808 663.151 149.432C662.783 150.056 662.207 150.568 661.423 150.968C660.655 151.368 659.663 151.568 658.447 151.568C657.375 151.568 656.423 151.424 655.59 151.136C654.759 150.864 654.111 150.44 653.646 149.864C653.183 149.304 652.951 148.592 652.951 147.728C652.951 147.28 653.071 146.792 653.311 146.264C653.551 145.752 653.999 145.264 654.655 144.8C654.303 144.656 653.999 144.504 653.743 144.344C653.503 144.168 653.279 143.976 653.071 143.768V143.216L655.111 141.2C654.167 140.4 653.695 139.344 653.695 138.032C653.695 137.248 653.879 136.536 654.247 135.896C654.615 135.256 655.151 134.752 655.855 134.384C656.559 134 657.415 133.808 658.423 133.808C659.111 133.808 659.735 133.904 660.295 134.096H664.687V135.608L662.455 135.704C662.919 136.376 663.151 137.152 663.151 138.032C663.151 138.816 662.959 139.528 662.575 140.168C662.207 140.808 661.671 141.32 660.967 141.704C660.279 142.072 659.431 142.256 658.423 142.256ZM658.423 140.6C659.271 140.6 659.943 140.384 660.439 139.952C660.951 139.504 661.207 138.864 661.207 138.032C661.207 137.216 660.951 136.592 660.439 136.16C659.943 135.712 659.271 135.488 658.423 135.488C657.559 135.488 656.871 135.712 656.359 136.16C655.863 136.592 655.615 137.216 655.615 138.032C655.615 138.864 655.863 139.504 656.359 139.952C656.871 140.384 657.559 140.6 658.423 140.6ZM654.919 147.536C654.919 148.336 655.255 148.928 655.927 149.312C656.599 149.712 657.439 149.912 658.447 149.912C659.439 149.912 660.231 149.696 660.823 149.264C661.431 148.832 661.735 148.256 661.735 147.536C661.735 147.024 661.527 146.576 661.111 146.192C660.695 145.824 659.927 145.608 658.807 145.544C657.927 145.48 657.167 145.4 656.527 145.304C655.871 145.656 655.439 146.032 655.23 146.432C655.023 146.848 654.919 147.216 654.919 147.536ZM666.961 146V128.72H668.977V136.136C669.377 135.4 669.945 134.832 670.681 134.432C671.417 134.016 672.217 133.808 673.081 133.808C674.457 133.808 675.561 134.24 676.393 135.104C677.225 135.952 677.641 137.264 677.641 139.04V146H675.649V139.256C675.649 136.776 674.649 135.536 672.649 135.536C671.609 135.536 670.737 135.912 670.033 136.664C669.329 137.4 668.977 138.456 668.977 139.832V146H666.961ZM685.399 146C684.311 146 683.455 145.736 682.831 145.208C682.207 144.68 681.895 143.728 681.895 142.352V135.8H679.831V134.096H681.895L682.159 131.24H683.911V134.096H687.415V135.8H683.911V142.352C683.911 143.104 684.063 143.616 684.367 143.888C684.671 144.144 685.207 144.272 685.975 144.272H687.223V146H685.399Z" fill="black"/>
<path d="M141.144 219.288C139.496 219.288 138.072 218.928 136.872 218.208C135.688 217.472 134.768 216.456 134.112 215.16C133.456 213.848 133.128 212.328 133.128 210.6C133.128 208.888 133.456 207.384 134.112 206.088C134.768 204.776 135.688 203.752 136.872 203.016C138.072 202.28 139.496 201.912 141.144 201.912C143.064 201.912 144.624 202.376 145.824 203.304C147.04 204.216 147.816 205.496 148.152 207.144H145.92C145.664 206.104 145.136 205.272 144.336 204.648C143.552 204.008 142.488 203.688 141.144 203.688C139.944 203.688 138.896 203.968 138 204.528C137.104 205.072 136.408 205.864 135.912 206.904C135.432 207.928 135.192 209.16 135.192 210.6C135.192 212.04 135.432 213.28 135.912 214.32C136.408 215.344 137.104 216.136 138 216.696C138.896 217.24 139.944 217.512 141.144 217.512C142.488 217.512 143.552 217.208 144.336 216.6C145.136 215.976 145.664 215.152 145.92 214.128H148.152C147.816 215.744 147.04 217.008 145.824 217.92C144.624 218.832 143.064 219.288 141.144 219.288ZM156.353 219.288C155.233 219.288 154.225 219.032 153.329 218.52C152.433 218.008 151.721 217.288 151.193 216.36C150.681 215.416 150.425 214.312 150.425 213.048C150.425 211.784 150.689 210.688 151.217 209.76C151.745 208.816 152.457 208.088 153.353 207.576C154.265 207.064 155.281 206.808 156.401 206.808C157.521 206.808 158.529 207.064 159.425 207.576C160.321 208.088 161.025 208.816 161.537 209.76C162.065 210.688 162.329 211.784 162.329 213.048C162.329 214.312 162.065 215.416 161.537 216.36C161.009 217.288 160.289 218.008 159.377 218.52C158.481 219.032 157.473 219.288 156.353 219.288ZM156.353 217.56C157.041 217.56 157.681 217.392 158.273 217.056C158.865 216.72 159.345 216.216 159.713 215.544C160.081 214.872 160.265 214.04 160.265 213.048C160.265 212.056 160.081 211.224 159.713 210.552C159.361 209.88 158.889 209.376 158.297 209.04C157.705 208.704 157.073 208.536 156.401 208.536C155.713 208.536 155.073 208.704 154.481 209.04C153.889 209.376 153.409 209.88 153.041 210.552C152.673 211.224 152.489 212.056 152.489 213.048C152.489 214.04 152.673 214.872 153.041 215.544C153.409 216.216 153.881 216.72 154.457 217.056C155.049 217.392 155.681 217.56 156.353 217.56ZM165.133 219V207.096H166.957L167.077 209.232C167.461 208.48 168.013 207.888 168.733 207.456C169.453 207.024 170.269 206.808 171.181 206.808C172.589 206.808 173.709 207.24 174.541 208.104C175.389 208.952 175.813 210.264 175.813 212.04V219H173.797V212.256C173.797 209.776 172.773 208.536 170.725 208.536C169.701 208.536 168.845 208.912 168.157 209.664C167.485 210.4 167.149 211.456 167.149 212.832V219H165.133ZM183.571 219C182.483 219 181.627 218.736 181.003 218.208C180.379 217.68 180.067 216.728 180.067 215.352V208.8H178.003V207.096H180.067L180.331 204.24H182.083V207.096H185.587V208.8H182.083V215.352C182.083 216.104 182.235 216.616 182.539 216.888C182.843 217.144 183.379 217.272 184.147 217.272H185.395V219H183.571ZM193.244 219.288C192.124 219.288 191.116 219.032 190.22 218.52C189.324 218.008 188.612 217.288 188.084 216.36C187.572 215.416 187.316 214.312 187.316 213.048C187.316 211.784 187.58 210.688 188.108 209.76C188.636 208.816 189.348 208.088 190.244 207.576C191.156 207.064 192.172 206.808 193.292 206.808C194.412 206.808 195.42 207.064 196.316 207.576C197.212 208.088 197.916 208.816 198.428 209.76C198.956 210.688 199.22 211.784 199.22 213.048C199.22 214.312 198.956 215.416 198.428 216.36C197.9 217.288 197.18 218.008 196.268 218.52C195.372 219.032 194.364 219.288 193.244 219.288ZM193.244 217.56C193.932 217.56 194.572 217.392 195.164 217.056C195.756 216.72 196.236 216.216 196.604 215.544C196.972 214.872 197.156 214.04 197.156 213.048C197.156 212.056 196.972 211.224 196.604 210.552C196.252 209.88 195.78 209.376 195.188 209.04C194.596 208.704 193.964 208.536 193.292 208.536C192.604 208.536 191.964 208.704 191.372 209.04C190.78 209.376 190.3 209.88 189.932 210.552C189.564 211.224 189.38 212.056 189.38 213.048C189.38 214.04 189.564 214.872 189.932 215.544C190.3 216.216 190.772 216.72 191.348 217.056C191.94 217.392 192.572 217.56 193.244 217.56ZM206.367 219.288C204.959 219.288 203.839 218.864 203.007 218.016C202.175 217.152 201.759 215.832 201.759 214.056V207.096H203.775V213.84C203.775 216.32 204.791 217.56 206.823 217.56C207.863 217.56 208.719 217.192 209.391 216.456C210.079 215.704 210.423 214.64 210.423 213.264V207.096H212.439V219H210.615L210.471 216.864C210.103 217.616 209.551 218.208 208.815 218.64C208.095 219.072 207.279 219.288 206.367 219.288ZM215.758 219V207.096H217.582L217.75 209.376C218.118 208.592 218.678 207.968 219.43 207.504C220.182 207.04 221.11 206.808 222.214 206.808V208.92H221.662C220.958 208.92 220.31 209.048 219.718 209.304C219.126 209.544 218.654 209.96 218.302 210.552C217.95 211.144 217.774 211.96 217.774 213V219H215.758ZM230.828 219V207.096H232.652L232.796 208.824C233.18 208.184 233.692 207.688 234.332 207.336C234.972 206.984 235.692 206.808 236.492 206.808C237.436 206.808 238.244 207 238.916 207.384C239.604 207.768 240.132 208.352 240.5 209.136C240.916 208.416 241.484 207.848 242.204 207.432C242.94 207.016 243.732 206.808 244.58 206.808C246.004 206.808 247.14 207.24 247.988 208.104C248.836 208.952 249.26 210.264 249.26 212.04V219H247.268V212.256C247.268 211.024 247.02 210.096 246.524 209.472C246.028 208.848 245.316 208.536 244.388 208.536C243.428 208.536 242.628 208.912 241.988 209.664C241.364 210.4 241.052 211.456 241.052 212.832V219H239.036V212.256C239.036 211.024 238.788 210.096 238.292 209.472C237.796 208.848 237.084 208.536 236.156 208.536C235.212 208.536 234.42 208.912 233.78 209.664C233.156 210.4 232.844 211.456 232.844 212.832V219H230.828ZM256.257 219.288C255.265 219.288 254.441 219.12 253.785 218.784C253.129 218.448 252.641 218 252.321 217.44C252.001 216.88 251.841 216.272 251.841 215.616C251.841 214.4 252.305 213.464 253.233 212.808C254.161 212.152 255.425 211.824 257.025 211.824H260.241V211.68C260.241 210.64 259.969 209.856 259.425 209.328C258.881 208.784 258.153 208.512 257.241 208.512C256.457 208.512 255.777 208.712 255.201 209.112C254.641 209.496 254.289 210.064 254.145 210.816H252.081C252.161 209.952 252.449 209.224 252.945 208.632C253.457 208.04 254.089 207.592 254.841 207.288C255.593 206.968 256.393 206.808 257.241 206.808C258.905 206.808 260.153 207.256 260.985 208.152C261.833 209.032 262.257 210.208 262.257 211.68V219H260.457L260.337 216.864C260.001 217.536 259.505 218.112 258.849 218.592C258.209 219.056 257.345 219.288 256.257 219.288ZM256.569 217.584C257.337 217.584 257.993 217.384 258.537 216.984C259.097 216.584 259.521 216.064 259.809 215.424C260.097 214.784 260.241 214.112 260.241 213.408V213.384H257.193C256.009 213.384 255.169 213.592 254.673 214.008C254.193 214.408 253.953 214.912 253.953 215.52C253.953 216.144 254.177 216.648 254.625 217.032C255.089 217.4 255.737 217.584 256.569 217.584ZM265.281 219V201.72H267.297V212.112L272.169 207.096H274.641L269.361 212.472L275.313 219H272.745L267.297 212.832V219H265.281ZM281.86 219.288C280.724 219.288 279.716 219.032 278.836 218.52C277.956 217.992 277.26 217.264 276.748 216.336C276.252 215.408 276.004 214.312 276.004 213.048C276.004 211.8 276.252 210.712 276.748 209.784C277.244 208.84 277.932 208.112 278.812 207.6C279.708 207.072 280.74 206.808 281.908 206.808C283.06 206.808 284.052 207.072 284.884 207.6C285.732 208.112 286.38 208.792 286.828 209.64C287.276 210.488 287.5 211.4 287.5 212.376C287.5 212.552 287.492 212.728 287.476 212.904C287.476 213.08 287.476 213.28 287.476 213.504H277.996C278.044 214.416 278.252 215.176 278.62 215.784C279.004 216.376 279.476 216.824 280.036 217.128C280.612 217.432 281.22 217.584 281.86 217.584C282.692 217.584 283.388 217.392 283.948 217.008C284.508 216.624 284.916 216.104 285.172 215.448H287.164C286.844 216.552 286.228 217.472 285.316 218.208C284.42 218.928 283.268 219.288 281.86 219.288ZM281.86 208.512C280.9 208.512 280.044 208.808 279.292 209.4C278.556 209.976 278.132 210.824 278.02 211.944H285.508C285.46 210.872 285.092 210.032 284.404 209.424C283.716 208.816 282.868 208.512 281.86 208.512ZM294.516 219.288C293.108 219.288 291.988 218.864 291.156 218.016C290.324 217.152 289.908 215.832 289.908 214.056V207.096H291.924V213.84C291.924 216.32 292.94 217.56 294.972 217.56C296.012 217.56 296.868 217.192 297.54 216.456C298.228 215.704 298.572 214.64 298.572 213.264V207.096H300.588V219H298.764L298.62 216.864C298.252 217.616 297.7 218.208 296.964 218.64C296.244 219.072 295.428 219.288 294.516 219.288ZM303.906 224.28V207.096H305.73L305.922 209.064C306.306 208.488 306.85 207.968 307.554 207.504C308.274 207.04 309.186 206.808 310.29 206.808C311.474 206.808 312.506 207.08 313.386 207.624C314.266 208.168 314.946 208.912 315.426 209.856C315.922 210.8 316.17 211.872 316.17 213.072C316.17 214.272 315.922 215.344 315.426 216.288C314.946 217.216 314.258 217.952 313.362 218.496C312.482 219.024 311.45 219.288 310.266 219.288C309.29 219.288 308.418 219.088 307.65 218.688C306.898 218.288 306.322 217.728 305.922 217.008V224.28H303.906ZM310.05 217.536C310.85 217.536 311.554 217.352 312.162 216.984C312.77 216.6 313.25 216.072 313.602 215.4C313.954 214.728 314.13 213.944 314.13 213.048C314.13 212.152 313.954 211.368 313.602 210.696C313.25 210.024 312.77 209.504 312.162 209.136C311.554 208.752 310.85 208.56 310.05 208.56C309.25 208.56 308.546 208.752 307.938 209.136C307.33 209.504 306.85 210.024 306.498 210.696C306.146 211.368 305.97 212.152 305.97 213.048C305.97 213.944 306.146 214.728 306.498 215.4C306.85 216.072 307.33 216.6 307.938 216.984C308.546 217.352 309.25 217.536 310.05 217.536ZM329.888 219.288C328.464 219.288 327.28 218.928 326.336 218.208C325.392 217.488 324.84 216.512 324.68 215.28H326.744C326.872 215.904 327.2 216.448 327.728 216.912C328.272 217.36 329 217.584 329.912 217.584C330.76 217.584 331.384 217.408 331.784 217.056C332.184 216.688 332.384 216.256 332.384 215.76C332.384 215.04 332.12 214.56 331.592 214.32C331.08 214.08 330.352 213.864 329.408 213.672C328.768 213.544 328.128 213.36 327.488 213.12C326.848 212.88 326.312 212.544 325.88 212.112C325.448 211.664 325.232 211.08 325.232 210.36C325.232 209.32 325.616 208.472 326.384 207.816C327.168 207.144 328.224 206.808 329.552 206.808C330.816 206.808 331.848 207.128 332.648 207.768C333.464 208.392 333.936 209.288 334.064 210.456H332.072C331.992 209.848 331.728 209.376 331.28 209.04C330.848 208.688 330.264 208.512 329.528 208.512C328.808 208.512 328.248 208.664 327.848 208.968C327.464 209.272 327.272 209.672 327.272 210.168C327.272 210.648 327.52 211.024 328.016 211.296C328.528 211.568 329.216 211.8 330.08 211.992C330.816 212.152 331.512 212.352 332.168 212.592C332.84 212.816 333.384 213.16 333.8 213.624C334.232 214.072 334.448 214.728 334.448 215.592C334.464 216.664 334.056 217.552 333.224 218.256C332.408 218.944 331.296 219.288 329.888 219.288ZM342.8 219.288C341.664 219.288 340.64 219.032 339.728 218.52C338.832 217.992 338.12 217.264 337.592 216.336C337.08 215.392 336.824 214.296 336.824 213.048C336.824 211.8 337.08 210.712 337.592 209.784C338.12 208.84 338.832 208.112 339.728 207.6C340.64 207.072 341.664 206.808 342.8 206.808C344.208 206.808 345.392 207.176 346.352 207.912C347.328 208.648 347.944 209.632 348.2 210.864H346.136C345.976 210.128 345.584 209.56 344.96 209.16C344.336 208.744 343.608 208.536 342.776 208.536C342.104 208.536 341.472 208.704 340.88 209.04C340.288 209.376 339.808 209.88 339.44 210.552C339.072 211.224 338.888 212.056 338.888 213.048C338.888 214.04 339.072 214.872 339.44 215.544C339.808 216.216 340.288 216.728 340.88 217.08C341.472 217.416 342.104 217.584 342.776 217.584C343.608 217.584 344.336 217.384 344.96 216.984C345.584 216.568 345.976 215.984 346.136 215.232H348.2C347.96 216.432 347.352 217.408 346.376 218.16C345.4 218.912 344.208 219.288 342.8 219.288ZM354.975 219.288C353.983 219.288 353.159 219.12 352.503 218.784C351.847 218.448 351.359 218 351.039 217.44C350.719 216.88 350.559 216.272 350.559 215.616C350.559 214.4 351.023 213.464 351.951 212.808C352.879 212.152 354.143 211.824 355.743 211.824H358.959V211.68C358.959 210.64 358.687 209.856 358.143 209.328C357.599 208.784 356.871 208.512 355.959 208.512C355.175 208.512 354.495 208.712 353.919 209.112C353.359 209.496 353.007 210.064 352.863 210.816H350.799C350.879 209.952 351.167 209.224 351.663 208.632C352.175 208.04 352.807 207.592 353.559 207.288C354.311 206.968 355.111 206.808 355.959 206.808C357.623 206.808 358.871 207.256 359.703 208.152C360.551 209.032 360.975 210.208 360.975 211.68V219H359.175L359.055 216.864C358.719 217.536 358.223 218.112 357.567 218.592C356.927 219.056 356.063 219.288 354.975 219.288ZM355.287 217.584C356.055 217.584 356.711 217.384 357.255 216.984C357.815 216.584 358.239 216.064 358.527 215.424C358.815 214.784 358.959 214.112 358.959 213.408V213.384H355.911C354.727 213.384 353.887 213.592 353.391 214.008C352.911 214.408 352.671 214.912 352.671 215.52C352.671 216.144 352.895 216.648 353.343 217.032C353.807 217.4 354.455 217.584 355.287 217.584ZM364 219V207.096H365.824L365.992 209.376C366.36 208.592 366.92 207.968 367.672 207.504C368.424 207.04 369.352 206.808 370.456 206.808V208.92H369.904C369.2 208.92 368.552 209.048 367.96 209.304C367.368 209.544 366.896 209.96 366.544 210.552C366.192 211.144 366.016 211.96 366.016 213V219H364ZM377.625 219.288C376.489 219.288 375.481 219.032 374.601 218.52C373.721 217.992 373.025 217.264 372.513 216.336C372.017 215.408 371.769 214.312 371.769 213.048C371.769 211.8 372.017 210.712 372.513 209.784C373.009 208.84 373.697 208.112 374.577 207.6C375.473 207.072 376.505 206.808 377.673 206.808C378.825 206.808 379.817 207.072 380.649 207.6C381.497 208.112 382.145 208.792 382.593 209.64C383.041 210.488 383.265 211.4 383.265 212.376C383.265 212.552 383.257 212.728 383.241 212.904C383.241 213.08 383.241 213.28 383.241 213.504H373.761C373.809 214.416 374.017 215.176 374.385 215.784C374.769 216.376 375.241 216.824 375.801 217.128C376.377 217.432 376.985 217.584 377.625 217.584C378.457 217.584 379.153 217.392 379.713 217.008C380.273 216.624 380.681 216.104 380.937 215.448H382.929C382.609 216.552 381.993 217.472 381.081 218.208C380.185 218.928 379.033 219.288 377.625 219.288ZM377.625 208.512C376.665 208.512 375.809 208.808 375.057 209.4C374.321 209.976 373.897 210.824 373.785 211.944H381.273C381.225 210.872 380.857 210.032 380.169 209.424C379.481 208.816 378.633 208.512 377.625 208.512ZM390.497 219.288C389.073 219.288 387.889 218.928 386.945 218.208C386.001 217.488 385.449 216.512 385.289 215.28H387.353C387.481 215.904 387.809 216.448 388.337 216.912C388.881 217.36 389.609 217.584 390.521 217.584C391.369 217.584 391.993 217.408 392.393 217.056C392.793 216.688 392.993 216.256 392.993 215.76C392.993 215.04 392.729 214.56 392.201 214.32C391.689 214.08 390.961 213.864 390.017 213.672C389.377 213.544 388.737 213.36 388.097 213.12C387.457 212.88 386.921 212.544 386.489 212.112C386.057 211.664 385.841 211.08 385.841 210.36C385.841 209.32 386.225 208.472 386.993 207.816C387.777 207.144 388.833 206.808 390.161 206.808C391.425 206.808 392.457 207.128 393.257 207.768C394.073 208.392 394.545 209.288 394.673 210.456H392.681C392.601 209.848 392.337 209.376 391.889 209.04C391.457 208.688 390.873 208.512 390.137 208.512C389.417 208.512 388.857 208.664 388.457 208.968C388.073 209.272 387.881 209.672 387.881 210.168C387.881 210.648 388.129 211.024 388.625 211.296C389.137 211.568 389.825 211.8 390.689 211.992C391.425 212.152 392.121 212.352 392.777 212.592C393.449 212.816 393.993 213.16 394.409 213.624C394.841 214.072 395.057 214.728 395.057 215.592C395.073 216.664 394.665 217.552 393.833 218.256C393.017 218.944 391.905 219.288 390.497 219.288ZM404.289 219V207.096H406.113L406.257 208.824C406.641 208.184 407.153 207.688 407.793 207.336C408.433 206.984 409.153 206.808 409.953 206.808C410.897 206.808 411.705 207 412.377 207.384C413.065 207.768 413.593 208.352 413.961 209.136C414.377 208.416 414.945 207.848 415.665 207.432C416.401 207.016 417.193 206.808 418.041 206.808C419.465 206.808 420.601 207.24 421.449 208.104C422.297 208.952 422.721 210.264 422.721 212.04V219H420.729V212.256C420.729 211.024 420.481 210.096 419.985 209.472C419.489 208.848 418.777 208.536 417.849 208.536C416.889 208.536 416.089 208.912 415.449 209.664C414.825 210.4 414.513 211.456 414.513 212.832V219H412.497V212.256C412.497 211.024 412.249 210.096 411.753 209.472C411.257 208.848 410.545 208.536 409.617 208.536C408.673 208.536 407.881 208.912 407.241 209.664C406.617 210.4 406.305 211.456 406.305 212.832V219H404.289ZM431.11 219.288C429.974 219.288 428.966 219.032 428.086 218.52C427.206 217.992 426.51 217.264 425.998 216.336C425.502 215.408 425.254 214.312 425.254 213.048C425.254 211.8 425.502 210.712 425.998 209.784C426.494 208.84 427.182 208.112 428.062 207.6C428.958 207.072 429.99 206.808 431.158 206.808C432.31 206.808 433.302 207.072 434.134 207.6C434.982 208.112 435.63 208.792 436.078 209.64C436.526 210.488 436.75 211.4 436.75 212.376C436.75 212.552 436.742 212.728 436.726 212.904C436.726 213.08 436.726 213.28 436.726 213.504H427.246C427.294 214.416 427.502 215.176 427.87 215.784C428.254 216.376 428.726 216.824 429.286 217.128C429.862 217.432 430.47 217.584 431.11 217.584C431.942 217.584 432.638 217.392 433.198 217.008C433.758 216.624 434.166 216.104 434.422 215.448H436.414C436.094 216.552 435.478 217.472 434.566 218.208C433.67 218.928 432.518 219.288 431.11 219.288ZM431.11 208.512C430.15 208.512 429.294 208.808 428.542 209.4C427.806 209.976 427.382 210.824 427.27 211.944H434.758C434.71 210.872 434.342 210.032 433.654 209.424C432.966 208.816 432.118 208.512 431.11 208.512ZM440.118 219.12C439.718 219.12 439.382 218.992 439.11 218.736C438.854 218.464 438.726 218.136 438.726 217.752C438.726 217.368 438.854 217.048 439.11 216.792C439.382 216.52 439.718 216.384 440.118 216.384C440.502 216.384 440.822 216.52 441.078 216.792C441.35 217.048 441.486 217.368 441.486 217.752C441.486 218.136 441.35 218.464 441.078 218.736C440.822 218.992 440.502 219.12 440.118 219.12Z" fill="black"/>
<path d="M133.776 296V279.2H135.792V296H133.776ZM145.586 296V278.72H147.602V296H145.586ZM152.13 281.456C151.73 281.456 151.394 281.328 151.122 281.072C150.866 280.8 150.738 280.464 150.738 280.064C150.738 279.68 150.866 279.36 151.122 279.104C151.394 278.848 151.73 278.72 152.13 278.72C152.514 278.72 152.842 278.848 153.114 279.104C153.386 279.36 153.522 279.68 153.522 280.064C153.522 280.464 153.386 280.8 153.114 281.072C152.842 281.328 152.514 281.456 152.13 281.456ZM151.122 296V284.096H153.138V296H151.122ZM156.648 296V278.72H158.664V289.112L163.536 284.096H166.008L160.728 289.472L166.68 296H164.112L158.664 289.832V296H156.648ZM173.227 296.288C172.091 296.288 171.083 296.032 170.203 295.52C169.323 294.992 168.627 294.264 168.115 293.336C167.619 292.408 167.371 291.312 167.371 290.048C167.371 288.8 167.619 287.712 168.115 286.784C168.611 285.84 169.299 285.112 170.179 284.6C171.075 284.072 172.107 283.808 173.275 283.808C174.427 283.808 175.419 284.072 176.251 284.6C177.099 285.112 177.747 285.792 178.195 286.64C178.643 287.488 178.867 288.4 178.867 289.376C178.867 289.552 178.859 289.728 178.843 289.904C178.843 290.08 178.843 290.28 178.843 290.504H169.363C169.411 291.416 169.619 292.176 169.987 292.784C170.371 293.376 170.843 293.824 171.403 294.128C171.979 294.432 172.587 294.584 173.227 294.584C174.059 294.584 174.755 294.392 175.315 294.008C175.875 293.624 176.283 293.104 176.539 292.448H178.531C178.211 293.552 177.595 294.472 176.683 295.208C175.787 295.928 174.635 296.288 173.227 296.288ZM173.227 285.512C172.267 285.512 171.411 285.808 170.659 286.4C169.923 286.976 169.499 287.824 169.387 288.944H176.875C176.827 287.872 176.459 287.032 175.771 286.424C175.083 285.816 174.235 285.512 173.227 285.512ZM187.89 296V284.096H189.714L189.858 285.824C190.242 285.184 190.754 284.688 191.394 284.336C192.034 283.984 192.754 283.808 193.554 283.808C194.498 283.808 195.306 284 195.978 284.384C196.666 284.768 197.194 285.352 197.562 286.136C197.978 285.416 198.546 284.848 199.266 284.432C200.002 284.016 200.794 283.808 201.642 283.808C203.066 283.808 204.202 284.24 205.05 285.104C205.898 285.952 206.322 287.264 206.322 289.04V296H204.33V289.256C204.33 288.024 204.082 287.096 203.586 286.472C203.09 285.848 202.378 285.536 201.45 285.536C200.49 285.536 199.69 285.912 199.05 286.664C198.426 287.4 198.114 288.456 198.114 289.832V296H196.098V289.256C196.098 288.024 195.85 287.096 195.354 286.472C194.858 285.848 194.146 285.536 193.218 285.536C192.274 285.536 191.482 285.912 190.842 286.664C190.218 287.4 189.906 288.456 189.906 289.832V296H187.89ZM213.319 296.288C212.327 296.288 211.503 296.12 210.847 295.784C210.191 295.448 209.703 295 209.383 294.44C209.063 293.88 208.903 293.272 208.903 292.616C208.903 291.4 209.367 290.464 210.295 289.808C211.223 289.152 212.487 288.824 214.087 288.824H217.303V288.68C217.303 287.64 217.031 286.856 216.487 286.328C215.943 285.784 215.215 285.512 214.303 285.512C213.519 285.512 212.839 285.712 212.263 286.112C211.703 286.496 211.351 287.064 211.207 287.816H209.143C209.223 286.952 209.511 286.224 210.007 285.632C210.519 285.04 211.151 284.592 211.903 284.288C212.655 283.968 213.455 283.808 214.303 283.808C215.967 283.808 217.215 284.256 218.047 285.152C218.895 286.032 219.319 287.208 219.319 288.68V296H217.519L217.399 293.864C217.063 294.536 216.567 295.112 215.911 295.592C215.271 296.056 214.407 296.288 213.319 296.288ZM213.631 294.584C214.399 294.584 215.055 294.384 215.599 293.984C216.159 293.584 216.583 293.064 216.871 292.424C217.159 291.784 217.303 291.112 217.303 290.408V290.384H214.255C213.071 290.384 212.231 290.592 211.735 291.008C211.255 291.408 211.015 291.912 211.015 292.52C211.015 293.144 211.239 293.648 211.687 294.032C212.151 294.4 212.799 294.584 213.631 294.584ZM222.344 296V278.72H224.36V289.112L229.232 284.096H231.704L226.424 289.472L232.376 296H229.808L224.36 289.832V296H222.344ZM238.922 296.288C237.786 296.288 236.778 296.032 235.898 295.52C235.018 294.992 234.322 294.264 233.81 293.336C233.314 292.408 233.066 291.312 233.066 290.048C233.066 288.8 233.314 287.712 233.81 286.784C234.306 285.84 234.994 285.112 235.874 284.6C236.77 284.072 237.802 283.808 238.97 283.808C240.122 283.808 241.114 284.072 241.946 284.6C242.794 285.112 243.442 285.792 243.89 286.64C244.338 287.488 244.562 288.4 244.562 289.376C244.562 289.552 244.554 289.728 244.538 289.904C244.538 290.08 244.538 290.28 244.538 290.504H235.058C235.106 291.416 235.314 292.176 235.682 292.784C236.066 293.376 236.538 293.824 237.098 294.128C237.674 294.432 238.282 294.584 238.922 294.584C239.754 294.584 240.45 294.392 241.01 294.008C241.57 293.624 241.978 293.104 242.234 292.448H244.226C243.906 293.552 243.29 294.472 242.378 295.208C241.482 295.928 240.33 296.288 238.922 296.288ZM238.922 285.512C237.962 285.512 237.106 285.808 236.354 286.4C235.618 286.976 235.194 287.824 235.082 288.944H242.57C242.522 287.872 242.154 287.032 241.466 286.424C240.778 285.816 239.93 285.512 238.922 285.512ZM251.578 296.288C250.17 296.288 249.05 295.864 248.218 295.016C247.386 294.152 246.97 292.832 246.97 291.056V284.096H248.986V290.84C248.986 293.32 250.002 294.56 252.034 294.56C253.074 294.56 253.93 294.192 254.602 293.456C255.29 292.704 255.634 291.64 255.634 290.264V284.096H257.65V296H255.826L255.682 293.864C255.314 294.616 254.762 295.208 254.026 295.64C253.306 296.072 252.49 296.288 251.578 296.288ZM260.969 301.28V284.096H262.793L262.985 286.064C263.369 285.488 263.913 284.968 264.617 284.504C265.337 284.04 266.249 283.808 267.353 283.808C268.537 283.808 269.569 284.08 270.449 284.624C271.329 285.168 272.009 285.912 272.489 286.856C272.985 287.8 273.233 288.872 273.233 290.072C273.233 291.272 272.985 292.344 272.489 293.288C272.009 294.216 271.321 294.952 270.425 295.496C269.545 296.024 268.513 296.288 267.329 296.288C266.353 296.288 265.481 296.088 264.713 295.688C263.961 295.288 263.385 294.728 262.985 294.008V301.28H260.969ZM267.113 294.536C267.913 294.536 268.617 294.352 269.225 293.984C269.833 293.6 270.313 293.072 270.665 292.4C271.017 291.728 271.193 290.944 271.193 290.048C271.193 289.152 271.017 288.368 270.665 287.696C270.313 287.024 269.833 286.504 269.225 286.136C268.617 285.752 267.913 285.56 267.113 285.56C266.313 285.56 265.609 285.752 265.001 286.136C264.393 286.504 263.913 287.024 263.561 287.696C263.209 288.368 263.033 289.152 263.033 290.048C263.033 290.944 263.209 291.728 263.561 292.4C263.913 293.072 264.393 293.6 265.001 293.984C265.609 294.352 266.313 294.536 267.113 294.536ZM274.431 298.856L275.823 293.552H277.911L275.823 298.856H274.431ZM293.016 296.288C292.04 296.288 291.168 296.088 290.4 295.688C289.648 295.288 289.072 294.728 288.672 294.008L288.48 296H286.656V278.72H288.672V286.064C289.056 285.488 289.6 284.968 290.304 284.504C291.024 284.04 291.936 283.808 293.04 283.808C294.224 283.808 295.256 284.08 296.136 284.624C297.016 285.168 297.696 285.912 298.176 286.856C298.672 287.8 298.92 288.872 298.92 290.072C298.92 291.272 298.672 292.344 298.176 293.288C297.696 294.216 297.008 294.952 296.112 295.496C295.232 296.024 294.2 296.288 293.016 296.288ZM292.8 294.536C293.6 294.536 294.304 294.352 294.912 293.984C295.52 293.6 296 293.072 296.352 292.4C296.704 291.728 296.88 290.944 296.88 290.048C296.88 289.152 296.704 288.368 296.352 287.696C296 287.024 295.52 286.504 294.912 286.136C294.304 285.752 293.6 285.56 292.8 285.56C292 285.56 291.296 285.752 290.688 286.136C290.08 286.504 289.6 287.024 289.248 287.696C288.896 288.368 288.72 289.152 288.72 290.048C288.72 290.944 288.896 291.728 289.248 292.4C289.6 293.072 290.08 293.6 290.688 293.984C291.296 294.352 292 294.536 292.8 294.536ZM306.07 296.288C304.662 296.288 303.542 295.864 302.71 295.016C301.878 294.152 301.462 292.832 301.462 291.056V284.096H303.478V290.84C303.478 293.32 304.494 294.56 306.526 294.56C307.566 294.56 308.422 294.192 309.094 293.456C309.782 292.704 310.126 291.64 310.126 290.264V284.096H312.142V296H310.318L310.174 293.864C309.806 294.616 309.254 295.208 308.518 295.64C307.798 296.072 306.982 296.288 306.07 296.288ZM320.165 296C319.077 296 318.221 295.736 317.597 295.208C316.973 294.68 316.661 293.728 316.661 292.352V285.8H314.597V284.096H316.661L316.925 281.24H318.677V284.096H322.181V285.8H318.677V292.352C318.677 293.104 318.829 293.616 319.133 293.888C319.437 294.144 319.973 294.272 320.741 294.272H321.989V296H320.165ZM331.214 296V279.2H333.23V296H331.214ZM346.983 296.288C345.991 296.288 345.167 296.12 344.511 295.784C343.855 295.448 343.367 295 343.047 294.44C342.727 293.88 342.567 293.272 342.567 292.616C342.567 291.4 343.031 290.464 343.959 289.808C344.887 289.152 346.151 288.824 347.751 288.824H350.967V288.68C350.967 287.64 350.695 286.856 350.151 286.328C349.607 285.784 348.879 285.512 347.967 285.512C347.183 285.512 346.503 285.712 345.927 286.112C345.367 286.496 345.015 287.064 344.871 287.816H342.807C342.887 286.952 343.175 286.224 343.671 285.632C344.183 285.04 344.815 284.592 345.567 284.288C346.319 283.968 347.119 283.808 347.967 283.808C349.631 283.808 350.879 284.256 351.711 285.152C352.559 286.032 352.983 287.208 352.983 288.68V296H351.183L351.063 293.864C350.727 294.536 350.231 295.112 349.575 295.592C348.935 296.056 348.071 296.288 346.983 296.288ZM347.295 294.584C348.063 294.584 348.719 294.384 349.263 293.984C349.823 293.584 350.247 293.064 350.535 292.424C350.823 291.784 350.967 291.112 350.967 290.408V290.384H347.919C346.735 290.384 345.895 290.592 345.399 291.008C344.919 291.408 344.679 291.912 344.679 292.52C344.679 293.144 344.903 293.648 345.351 294.032C345.815 294.4 346.463 294.584 347.295 294.584ZM356.008 296V284.096H357.832L357.976 285.824C358.36 285.184 358.872 284.688 359.512 284.336C360.152 283.984 360.872 283.808 361.672 283.808C362.616 283.808 363.424 284 364.096 284.384C364.784 284.768 365.312 285.352 365.68 286.136C366.096 285.416 366.664 284.848 367.384 284.432C368.12 284.016 368.912 283.808 369.76 283.808C371.184 283.808 372.32 284.24 373.168 285.104C374.016 285.952 374.44 287.264 374.44 289.04V296H372.448V289.256C372.448 288.024 372.2 287.096 371.704 286.472C371.208 285.848 370.496 285.536 369.568 285.536C368.608 285.536 367.808 285.912 367.168 286.664C366.544 287.4 366.232 288.456 366.232 289.832V296H364.216V289.256C364.216 288.024 363.968 287.096 363.472 286.472C362.976 285.848 362.264 285.536 361.336 285.536C360.392 285.536 359.6 285.912 358.96 286.664C358.336 287.4 358.024 288.456 358.024 289.832V296H356.008ZM383.828 296V278.72H385.844V296H383.828ZM394.572 296.288C393.452 296.288 392.444 296.032 391.548 295.52C390.652 295.008 389.94 294.288 389.412 293.36C388.9 292.416 388.644 291.312 388.644 290.048C388.644 288.784 388.908 287.688 389.436 286.76C389.964 285.816 390.676 285.088 391.572 284.576C392.484 284.064 393.5 283.808 394.62 283.808C395.74 283.808 396.748 284.064 397.644 284.576C398.54 285.088 399.244 285.816 399.756 286.76C400.284 287.688 400.548 288.784 400.548 290.048C400.548 291.312 400.284 292.416 399.756 293.36C399.228 294.288 398.508 295.008 397.596 295.52C396.7 296.032 395.692 296.288 394.572 296.288ZM394.572 294.56C395.26 294.56 395.9 294.392 396.492 294.056C397.084 293.72 397.564 293.216 397.932 292.544C398.3 291.872 398.484 291.04 398.484 290.048C398.484 289.056 398.3 288.224 397.932 287.552C397.58 286.88 397.108 286.376 396.516 286.04C395.924 285.704 395.292 285.536 394.62 285.536C393.932 285.536 393.292 285.704 392.7 286.04C392.108 286.376 391.628 286.88 391.26 287.552C390.892 288.224 390.708 289.056 390.708 290.048C390.708 291.04 390.892 291.872 391.26 292.544C391.628 293.216 392.1 293.72 392.676 294.056C393.268 294.392 393.9 294.56 394.572 294.56ZM408.775 296.288C407.655 296.288 406.647 296.032 405.751 295.52C404.855 295.008 404.143 294.288 403.615 293.36C403.103 292.416 402.847 291.312 402.847 290.048C402.847 288.784 403.111 287.688 403.639 286.76C404.167 285.816 404.879 285.088 405.775 284.576C406.687 284.064 407.703 283.808 408.823 283.808C409.943 283.808 410.951 284.064 411.847 284.576C412.743 285.088 413.447 285.816 413.959 286.76C414.487 287.688 414.751 288.784 414.751 290.048C414.751 291.312 414.487 292.416 413.959 293.36C413.431 294.288 412.711 295.008 411.799 295.52C410.903 296.032 409.895 296.288 408.775 296.288ZM408.775 294.56C409.463 294.56 410.103 294.392 410.695 294.056C411.287 293.72 411.767 293.216 412.135 292.544C412.503 291.872 412.687 291.04 412.687 290.048C412.687 289.056 412.503 288.224 412.135 287.552C411.783 286.88 411.311 286.376 410.719 286.04C410.127 285.704 409.495 285.536 408.823 285.536C408.135 285.536 407.495 285.704 406.903 286.04C406.311 286.376 405.831 286.88 405.463 287.552C405.095 288.224 404.911 289.056 404.911 290.048C404.911 291.04 405.095 291.872 405.463 292.544C405.831 293.216 406.303 293.72 406.879 294.056C407.471 294.392 408.103 294.56 408.775 294.56ZM417.554 296V278.72H419.57V289.112L424.442 284.096H426.914L421.634 289.472L427.586 296H425.018L419.57 289.832V296H417.554ZM430.872 281.456C430.472 281.456 430.136 281.328 429.864 281.072C429.608 280.8 429.48 280.464 429.48 280.064C429.48 279.68 429.608 279.36 429.864 279.104C430.136 278.848 430.472 278.72 430.872 278.72C431.256 278.72 431.584 278.848 431.856 279.104C432.128 279.36 432.264 279.68 432.264 280.064C432.264 280.464 432.128 280.8 431.856 281.072C431.584 281.328 431.256 281.456 430.872 281.456ZM429.864 296V284.096H431.88V296H429.864ZM435.39 296V284.096H437.214L437.334 286.232C437.718 285.48 438.27 284.888 438.99 284.456C439.71 284.024 440.526 283.808 441.438 283.808C442.846 283.808 443.966 284.24 444.798 285.104C445.646 285.952 446.07 287.264 446.07 289.04V296H444.054V289.256C444.054 286.776 443.03 285.536 440.982 285.536C439.958 285.536 439.102 285.912 438.414 286.664C437.742 287.4 437.406 288.456 437.406 289.832V296H435.39ZM453.829 292.256C453.157 292.256 452.541 292.168 451.981 291.992L450.781 293.12C450.957 293.248 451.173 293.36 451.429 293.456C451.701 293.536 452.085 293.616 452.581 293.696C453.077 293.76 453.773 293.832 454.669 293.912C456.269 294.024 457.413 294.392 458.101 295.016C458.789 295.64 459.133 296.456 459.133 297.464C459.133 298.152 458.941 298.808 458.557 299.432C458.189 300.056 457.613 300.568 456.829 300.968C456.061 301.368 455.069 301.568 453.853 301.568C452.781 301.568 451.829 301.424 450.997 301.136C450.165 300.864 449.517 300.44 449.053 299.864C448.589 299.304 448.357 298.592 448.357 297.728C448.357 297.28 448.477 296.792 448.717 296.264C448.957 295.752 449.405 295.264 450.061 294.8C449.709 294.656 449.405 294.504 449.149 294.344C448.909 294.168 448.685 293.976 448.477 293.768V293.216L450.517 291.2C449.573 290.4 449.101 289.344 449.101 288.032C449.101 287.248 449.285 286.536 449.653 285.896C450.021 285.256 450.557 284.752 451.261 284.384C451.965 284 452.821 283.808 453.829 283.808C454.517 283.808 455.141 283.904 455.701 284.096H460.093V285.608L457.861 285.704C458.325 286.376 458.557 287.152 458.557 288.032C458.557 288.816 458.365 289.528 457.981 290.168C457.613 290.808 457.077 291.32 456.373 291.704C455.685 292.072 454.837 292.256 453.829 292.256ZM453.829 290.6C454.677 290.6 455.349 290.384 455.845 289.952C456.357 289.504 456.613 288.864 456.613 288.032C456.613 287.216 456.357 286.592 455.845 286.16C455.349 285.712 454.677 285.488 453.829 285.488C452.965 285.488 452.277 285.712 451.765 286.16C451.269 286.592 451.021 287.216 451.021 288.032C451.021 288.864 451.269 289.504 451.765 289.952C452.277 290.384 452.965 290.6 453.829 290.6ZM450.325 297.536C450.325 298.336 450.661 298.928 451.333 299.312C452.005 299.712 452.845 299.912 453.853 299.912C454.845 299.912 455.637 299.696 456.229 299.264C456.837 298.832 457.141 298.256 457.141 297.536C457.141 297.024 456.933 296.576 456.517 296.192C456.101 295.824 455.333 295.608 454.213 295.544C453.333 295.48 452.573 295.4 451.933 295.304C451.277 295.656 450.845 296.032 450.637 296.432C450.429 296.848 450.325 297.216 450.325 297.536ZM473.423 296C472.335 296 471.479 295.736 470.855 295.208C470.231 294.68 469.919 293.728 469.919 292.352V285.8H467.854V284.096H469.919L470.183 281.24H471.935V284.096H475.439V285.8H471.935V292.352C471.935 293.104 472.087 293.616 472.391 293.888C472.695 294.144 473.231 294.272 473.999 294.272H475.247V296H473.423ZM483.096 296.288C481.976 296.288 480.968 296.032 480.072 295.52C479.176 295.008 478.464 294.288 477.936 293.36C477.424 292.416 477.168 291.312 477.168 290.048C477.168 288.784 477.432 287.688 477.96 286.76C478.488 285.816 479.2 285.088 480.096 284.576C481.008 284.064 482.024 283.808 483.144 283.808C484.264 283.808 485.272 284.064 486.168 284.576C487.064 285.088 487.768 285.816 488.28 286.76C488.808 287.688 489.072 288.784 489.072 290.048C489.072 291.312 488.808 292.416 488.28 293.36C487.752 294.288 487.032 295.008 486.12 295.52C485.224 296.032 484.216 296.288 483.096 296.288ZM483.096 294.56C483.784 294.56 484.424 294.392 485.016 294.056C485.608 293.72 486.088 293.216 486.456 292.544C486.824 291.872 487.008 291.04 487.008 290.048C487.008 289.056 486.824 288.224 486.456 287.552C486.104 286.88 485.632 286.376 485.04 286.04C484.448 285.704 483.816 285.536 483.144 285.536C482.456 285.536 481.816 285.704 481.224 286.04C480.632 286.376 480.152 286.88 479.784 287.552C479.416 288.224 479.232 289.056 479.232 290.048C479.232 291.04 479.416 291.872 479.784 292.544C480.152 293.216 480.624 293.72 481.2 294.056C481.792 294.392 482.424 294.56 483.096 294.56ZM498.226 296V278.72H500.242V296H498.226ZM508.899 296.288C507.763 296.288 506.755 296.032 505.875 295.52C504.995 294.992 504.299 294.264 503.787 293.336C503.291 292.408 503.043 291.312 503.043 290.048C503.043 288.8 503.291 287.712 503.787 286.784C504.283 285.84 504.971 285.112 505.851 284.6C506.747 284.072 507.779 283.808 508.947 283.808C510.099 283.808 511.091 284.072 511.923 284.6C512.771 285.112 513.419 285.792 513.867 286.64C514.315 287.488 514.539 288.4 514.539 289.376C514.539 289.552 514.531 289.728 514.515 289.904C514.515 290.08 514.515 290.28 514.515 290.504H505.035C505.083 291.416 505.291 292.176 505.659 292.784C506.043 293.376 506.515 293.824 507.075 294.128C507.651 294.432 508.259 294.584 508.899 294.584C509.731 294.584 510.427 294.392 510.987 294.008C511.547 293.624 511.955 293.104 512.211 292.448H514.203C513.883 293.552 513.267 294.472 512.355 295.208C511.459 295.928 510.307 296.288 508.899 296.288ZM508.899 285.512C507.939 285.512 507.083 285.808 506.331 286.4C505.595 286.976 505.171 287.824 505.059 288.944H512.547C512.499 287.872 512.131 287.032 511.443 286.424C510.755 285.816 509.907 285.512 508.899 285.512ZM521.171 296.288C520.179 296.288 519.355 296.12 518.699 295.784C518.043 295.448 517.555 295 517.235 294.44C516.915 293.88 516.755 293.272 516.755 292.616C516.755 291.4 517.219 290.464 518.147 289.808C519.075 289.152 520.339 288.824 521.939 288.824H525.155V288.68C525.155 287.64 524.883 286.856 524.339 286.328C523.795 285.784 523.067 285.512 522.155 285.512C521.371 285.512 520.691 285.712 520.115 286.112C519.555 286.496 519.203 287.064 519.059 287.816H516.995C517.075 286.952 517.363 286.224 517.859 285.632C518.371 285.04 519.003 284.592 519.755 284.288C520.507 283.968 521.307 283.808 522.155 283.808C523.819 283.808 525.067 284.256 525.899 285.152C526.747 286.032 527.171 287.208 527.171 288.68V296H525.371L525.251 293.864C524.915 294.536 524.419 295.112 523.763 295.592C523.123 296.056 522.259 296.288 521.171 296.288ZM521.483 294.584C522.251 294.584 522.907 294.384 523.451 293.984C524.011 293.584 524.435 293.064 524.723 292.424C525.011 291.784 525.155 291.112 525.155 290.408V290.384H522.107C520.923 290.384 520.083 290.592 519.587 291.008C519.107 291.408 518.867 291.912 518.867 292.52C518.867 293.144 519.091 293.648 519.539 294.032C520.003 294.4 520.651 294.584 521.483 294.584ZM530.195 296V284.096H532.019L532.187 286.376C532.555 285.592 533.115 284.968 533.867 284.504C534.619 284.04 535.547 283.808 536.651 283.808V285.92H536.099C535.395 285.92 534.747 286.048 534.155 286.304C533.563 286.544 533.091 286.96 532.739 287.552C532.387 288.144 532.211 288.96 532.211 290V296H530.195ZM538.914 296V284.096H540.738L540.858 286.232C541.242 285.48 541.794 284.888 542.514 284.456C543.234 284.024 544.05 283.808 544.962 283.808C546.37 283.808 547.49 284.24 548.322 285.104C549.17 285.952 549.594 287.264 549.594 289.04V296H547.578V289.256C547.578 286.776 546.554 285.536 544.506 285.536C543.482 285.536 542.626 285.912 541.938 286.664C541.266 287.4 540.93 288.456 540.93 289.832V296H538.914ZM133.656 327V315.096H135.48L135.624 316.824C136.008 316.184 136.52 315.688 137.16 315.336C137.8 314.984 138.52 314.808 139.32 314.808C140.264 314.808 141.072 315 141.744 315.384C142.432 315.768 142.96 316.352 143.328 317.136C143.744 316.416 144.312 315.848 145.032 315.432C145.768 315.016 146.56 314.808 147.408 314.808C148.832 314.808 149.968 315.24 150.816 316.104C151.664 316.952 152.088 318.264 152.088 320.04V327H150.096V320.256C150.096 319.024 149.848 318.096 149.352 317.472C148.856 316.848 148.144 316.536 147.216 316.536C146.256 316.536 145.456 316.912 144.816 317.664C144.192 318.4 143.88 319.456 143.88 320.832V327H141.864V320.256C141.864 319.024 141.616 318.096 141.12 317.472C140.624 316.848 139.912 316.536 138.984 316.536C138.04 316.536 137.248 316.912 136.608 317.664C135.984 318.4 135.672 319.456 135.672 320.832V327H133.656ZM160.549 327.288C159.429 327.288 158.421 327.032 157.525 326.52C156.629 326.008 155.917 325.288 155.389 324.36C154.877 323.416 154.621 322.312 154.621 321.048C154.621 319.784 154.885 318.688 155.413 317.76C155.941 316.816 156.653 316.088 157.549 315.576C158.461 315.064 159.477 314.808 160.597 314.808C161.717 314.808 162.725 315.064 163.621 315.576C164.517 316.088 165.221 316.816 165.733 317.76C166.261 318.688 166.525 319.784 166.525 321.048C166.525 322.312 166.261 323.416 165.733 324.36C165.205 325.288 164.485 326.008 163.573 326.52C162.677 327.032 161.669 327.288 160.549 327.288ZM160.549 325.56C161.237 325.56 161.877 325.392 162.469 325.056C163.061 324.72 163.541 324.216 163.909 323.544C164.277 322.872 164.461 322.04 164.461 321.048C164.461 320.056 164.277 319.224 163.909 318.552C163.557 317.88 163.085 317.376 162.493 317.04C161.901 316.704 161.269 316.536 160.597 316.536C159.909 316.536 159.269 316.704 158.677 317.04C158.085 317.376 157.605 317.88 157.237 318.552C156.869 319.224 156.685 320.056 156.685 321.048C156.685 322.04 156.869 322.872 157.237 323.544C157.605 324.216 158.077 324.72 158.653 325.056C159.245 325.392 159.877 325.56 160.549 325.56ZM169.328 327V315.096H171.152L171.32 317.376C171.688 316.592 172.248 315.968 173 315.504C173.752 315.04 174.68 314.808 175.784 314.808V316.92H175.232C174.528 316.92 173.88 317.048 173.288 317.304C172.696 317.544 172.224 317.96 171.872 318.552C171.52 319.144 171.344 319.96 171.344 321V327H169.328ZM182.953 327.288C181.817 327.288 180.809 327.032 179.929 326.52C179.049 325.992 178.353 325.264 177.841 324.336C177.345 323.408 177.097 322.312 177.097 321.048C177.097 319.8 177.345 318.712 177.841 317.784C178.337 316.84 179.025 316.112 179.905 315.6C180.801 315.072 181.833 314.808 183.001 314.808C184.153 314.808 185.145 315.072 185.977 315.6C186.825 316.112 187.473 316.792 187.921 317.64C188.369 318.488 188.593 319.4 188.593 320.376C188.593 320.552 188.585 320.728 188.569 320.904C188.569 321.08 188.569 321.28 188.569 321.504H179.089C179.137 322.416 179.345 323.176 179.713 323.784C180.097 324.376 180.569 324.824 181.129 325.128C181.705 325.432 182.313 325.584 182.953 325.584C183.785 325.584 184.481 325.392 185.041 325.008C185.601 324.624 186.009 324.104 186.265 323.448H188.257C187.937 324.552 187.321 325.472 186.409 326.208C185.513 326.928 184.361 327.288 182.953 327.288ZM182.953 316.512C181.993 316.512 181.137 316.808 180.385 317.4C179.649 317.976 179.225 318.824 179.113 319.944H186.601C186.553 318.872 186.185 318.032 185.497 317.424C184.809 316.816 183.961 316.512 182.953 316.512ZM201.577 327.288C200.585 327.288 199.761 327.12 199.105 326.784C198.449 326.448 197.961 326 197.641 325.44C197.321 324.88 197.161 324.272 197.161 323.616C197.161 322.4 197.625 321.464 198.553 320.808C199.481 320.152 200.745 319.824 202.345 319.824H205.561V319.68C205.561 318.64 205.289 317.856 204.745 317.328C204.201 316.784 203.473 316.512 202.561 316.512C201.777 316.512 201.097 316.712 200.521 317.112C199.961 317.496 199.609 318.064 199.465 318.816H197.401C197.481 317.952 197.769 317.224 198.265 316.632C198.777 316.04 199.409 315.592 200.161 315.288C200.913 314.968 201.713 314.808 202.561 314.808C204.225 314.808 205.473 315.256 206.305 316.152C207.153 317.032 207.577 318.208 207.577 319.68V327H205.777L205.657 324.864C205.321 325.536 204.825 326.112 204.169 326.592C203.529 327.056 202.665 327.288 201.577 327.288ZM201.889 325.584C202.657 325.584 203.313 325.384 203.857 324.984C204.417 324.584 204.841 324.064 205.129 323.424C205.417 322.784 205.561 322.112 205.561 321.408V321.384H202.513C201.329 321.384 200.489 321.592 199.993 322.008C199.513 322.408 199.273 322.912 199.273 323.52C199.273 324.144 199.497 324.648 199.945 325.032C200.409 325.4 201.057 325.584 201.889 325.584ZM216.961 327.288C215.985 327.288 215.113 327.088 214.345 326.688C213.593 326.288 213.017 325.728 212.617 325.008L212.425 327H210.601V309.72H212.617V317.064C213.001 316.488 213.545 315.968 214.249 315.504C214.969 315.04 215.881 314.808 216.985 314.808C218.169 314.808 219.201 315.08 220.081 315.624C220.961 316.168 221.641 316.912 222.121 317.856C222.617 318.8 222.865 319.872 222.865 321.072C222.865 322.272 222.617 323.344 222.121 324.288C221.641 325.216 220.953 325.952 220.057 326.496C219.177 327.024 218.145 327.288 216.961 327.288ZM216.745 325.536C217.545 325.536 218.249 325.352 218.857 324.984C219.465 324.6 219.945 324.072 220.297 323.4C220.649 322.728 220.825 321.944 220.825 321.048C220.825 320.152 220.649 319.368 220.297 318.696C219.945 318.024 219.465 317.504 218.857 317.136C218.249 316.752 217.545 316.56 216.745 316.56C215.945 316.56 215.241 316.752 214.633 317.136C214.025 317.504 213.545 318.024 213.193 318.696C212.841 319.368 212.665 320.152 212.665 321.048C212.665 321.944 212.841 322.728 213.193 323.4C213.545 324.072 214.025 324.6 214.633 324.984C215.241 325.352 215.945 325.536 216.745 325.536ZM231.096 327.288C229.976 327.288 228.968 327.032 228.072 326.52C227.176 326.008 226.464 325.288 225.936 324.36C225.424 323.416 225.168 322.312 225.168 321.048C225.168 319.784 225.432 318.688 225.96 317.76C226.488 316.816 227.2 316.088 228.096 315.576C229.008 315.064 230.024 314.808 231.144 314.808C232.264 314.808 233.272 315.064 234.168 315.576C235.064 316.088 235.768 316.816 236.28 317.76C236.808 318.688 237.072 319.784 237.072 321.048C237.072 322.312 236.808 323.416 236.28 324.36C235.752 325.288 235.032 326.008 234.12 326.52C233.224 327.032 232.216 327.288 231.096 327.288ZM231.096 325.56C231.784 325.56 232.424 325.392 233.016 325.056C233.608 324.72 234.088 324.216 234.456 323.544C234.824 322.872 235.008 322.04 235.008 321.048C235.008 320.056 234.824 319.224 234.456 318.552C234.104 317.88 233.632 317.376 233.04 317.04C232.448 316.704 231.816 316.536 231.144 316.536C230.456 316.536 229.816 316.704 229.224 317.04C228.632 317.376 228.152 317.88 227.784 318.552C227.416 319.224 227.232 320.056 227.232 321.048C227.232 322.04 227.416 322.872 227.784 323.544C228.152 324.216 228.624 324.72 229.2 325.056C229.792 325.392 230.424 325.56 231.096 325.56ZM244.219 327.288C242.811 327.288 241.691 326.864 240.859 326.016C240.027 325.152 239.611 323.832 239.611 322.056V315.096H241.627V321.84C241.627 324.32 242.643 325.56 244.675 325.56C245.715 325.56 246.571 325.192 247.243 324.456C247.931 323.704 248.275 322.64 248.275 321.264V315.096H250.291V327H248.467L248.323 324.864C247.955 325.616 247.403 326.208 246.667 326.64C245.947 327.072 245.131 327.288 244.219 327.288ZM258.313 327C257.225 327 256.369 326.736 255.745 326.208C255.121 325.68 254.809 324.728 254.809 323.352V316.8H252.745V315.096H254.809L255.073 312.24H256.825V315.096H260.329V316.8H256.825V323.352C256.825 324.104 256.977 324.616 257.281 324.888C257.585 325.144 258.121 325.272 258.889 325.272H260.137V327H258.313ZM271.642 327L268.162 315.096H270.178L272.698 324.432L275.482 315.096H277.762L280.57 324.432L283.066 315.096H285.106L281.626 327H279.562L276.634 317.184L273.706 327H271.642ZM287.336 327V309.72H289.352V317.136C289.752 316.4 290.32 315.832 291.056 315.432C291.792 315.016 292.592 314.808 293.456 314.808C294.832 314.808 295.936 315.24 296.768 316.104C297.6 316.952 298.016 318.264 298.016 320.04V327H296.024V320.256C296.024 317.776 295.024 316.536 293.024 316.536C291.984 316.536 291.112 316.912 290.408 317.664C289.704 318.4 289.352 319.456 289.352 320.832V327H287.336ZM305.03 327.288C304.038 327.288 303.214 327.12 302.558 326.784C301.902 326.448 301.414 326 301.094 325.44C300.774 324.88 300.614 324.272 300.614 323.616C300.614 322.4 301.078 321.464 302.006 320.808C302.934 320.152 304.198 319.824 305.798 319.824H309.014V319.68C309.014 318.64 308.742 317.856 308.198 317.328C307.654 316.784 306.926 316.512 306.014 316.512C305.23 316.512 304.55 316.712 303.974 317.112C303.414 317.496 303.062 318.064 302.918 318.816H300.854C300.934 317.952 301.222 317.224 301.718 316.632C302.23 316.04 302.862 315.592 303.614 315.288C304.366 314.968 305.166 314.808 306.014 314.808C307.678 314.808 308.926 315.256 309.758 316.152C310.606 317.032 311.03 318.208 311.03 319.68V327H309.23L309.11 324.864C308.774 325.536 308.278 326.112 307.622 326.592C306.982 327.056 306.118 327.288 305.03 327.288ZM305.342 325.584C306.11 325.584 306.766 325.384 307.31 324.984C307.87 324.584 308.294 324.064 308.582 323.424C308.87 322.784 309.014 322.112 309.014 321.408V321.384H305.966C304.782 321.384 303.942 321.592 303.446 322.008C302.966 322.408 302.726 322.912 302.726 323.52C302.726 324.144 302.95 324.648 303.398 325.032C303.862 325.4 304.51 325.584 305.342 325.584ZM318.43 327C317.342 327 316.486 326.736 315.862 326.208C315.238 325.68 314.926 324.728 314.926 323.352V316.8H312.862V315.096H314.926L315.19 312.24H316.942V315.096H320.446V316.8H316.942V323.352C316.942 324.104 317.094 324.616 317.398 324.888C317.702 325.144 318.238 325.272 319.006 325.272H320.254V327H318.43ZM334.063 327C332.975 327 332.119 326.736 331.495 326.208C330.871 325.68 330.559 324.728 330.559 323.352V316.8H328.495V315.096H330.559L330.823 312.24H332.575V315.096H336.079V316.8H332.575V323.352C332.575 324.104 332.727 324.616 333.031 324.888C333.335 325.144 333.871 325.272 334.639 325.272H335.887V327H334.063ZM343.736 327.288C342.616 327.288 341.608 327.032 340.712 326.52C339.816 326.008 339.104 325.288 338.576 324.36C338.064 323.416 337.808 322.312 337.808 321.048C337.808 319.784 338.072 318.688 338.6 317.76C339.128 316.816 339.84 316.088 340.736 315.576C341.648 315.064 342.664 314.808 343.784 314.808C344.904 314.808 345.912 315.064 346.808 315.576C347.704 316.088 348.408 316.816 348.92 317.76C349.448 318.688 349.712 319.784 349.712 321.048C349.712 322.312 349.448 323.416 348.92 324.36C348.392 325.288 347.672 326.008 346.76 326.52C345.864 327.032 344.856 327.288 343.736 327.288ZM343.736 325.56C344.424 325.56 345.064 325.392 345.656 325.056C346.248 324.72 346.728 324.216 347.096 323.544C347.464 322.872 347.648 322.04 347.648 321.048C347.648 320.056 347.464 319.224 347.096 318.552C346.744 317.88 346.272 317.376 345.68 317.04C345.088 316.704 344.456 316.536 343.784 316.536C343.096 316.536 342.456 316.704 341.864 317.04C341.272 317.376 340.792 317.88 340.424 318.552C340.056 319.224 339.872 320.056 339.872 321.048C339.872 322.04 340.056 322.872 340.424 323.544C340.792 324.216 341.264 324.72 341.84 325.056C342.432 325.392 343.064 325.56 343.736 325.56ZM361.267 327L357.787 315.096H359.803L362.323 324.432L365.107 315.096H367.387L370.195 324.432L372.691 315.096H374.731L371.251 327H369.187L366.259 317.184L363.331 327H361.267ZM381.867 327.288C380.731 327.288 379.723 327.032 378.843 326.52C377.963 325.992 377.267 325.264 376.755 324.336C376.259 323.408 376.011 322.312 376.011 321.048C376.011 319.8 376.259 318.712 376.755 317.784C377.251 316.84 377.939 316.112 378.819 315.6C379.715 315.072 380.747 314.808 381.915 314.808C383.067 314.808 384.059 315.072 384.891 315.6C385.739 316.112 386.387 316.792 386.835 317.64C387.283 318.488 387.507 319.4 387.507 320.376C387.507 320.552 387.499 320.728 387.483 320.904C387.483 321.08 387.483 321.28 387.483 321.504H378.003C378.051 322.416 378.259 323.176 378.627 323.784C379.011 324.376 379.483 324.824 380.043 325.128C380.619 325.432 381.227 325.584 381.867 325.584C382.699 325.584 383.395 325.392 383.955 325.008C384.515 324.624 384.923 324.104 385.179 323.448H387.171C386.851 324.552 386.235 325.472 385.323 326.208C384.427 326.928 383.275 327.288 381.867 327.288ZM381.867 316.512C380.907 316.512 380.051 316.808 379.299 317.4C378.563 317.976 378.139 318.824 378.027 319.944H385.515C385.467 318.872 385.099 318.032 384.411 317.424C383.723 316.816 382.875 316.512 381.867 316.512ZM394.139 327.288C393.147 327.288 392.323 327.12 391.667 326.784C391.011 326.448 390.523 326 390.203 325.44C389.883 324.88 389.723 324.272 389.723 323.616C389.723 322.4 390.187 321.464 391.115 320.808C392.043 320.152 393.307 319.824 394.907 319.824H398.123V319.68C398.123 318.64 397.851 317.856 397.307 317.328C396.763 316.784 396.035 316.512 395.123 316.512C394.339 316.512 393.659 316.712 393.083 317.112C392.523 317.496 392.171 318.064 392.027 318.816H389.963C390.043 317.952 390.331 317.224 390.827 316.632C391.339 316.04 391.971 315.592 392.723 315.288C393.475 314.968 394.275 314.808 395.123 314.808C396.787 314.808 398.035 315.256 398.867 316.152C399.715 317.032 400.139 318.208 400.139 319.68V327H398.339L398.219 324.864C397.883 325.536 397.387 326.112 396.731 326.592C396.091 327.056 395.227 327.288 394.139 327.288ZM394.451 325.584C395.219 325.584 395.875 325.384 396.419 324.984C396.979 324.584 397.403 324.064 397.691 323.424C397.979 322.784 398.123 322.112 398.123 321.408V321.384H395.075C393.891 321.384 393.051 321.592 392.555 322.008C392.075 322.408 391.835 322.912 391.835 323.52C391.835 324.144 392.059 324.648 392.507 325.032C392.971 325.4 393.619 325.584 394.451 325.584ZM403.164 327V315.096H404.988L405.156 317.376C405.524 316.592 406.084 315.968 406.836 315.504C407.588 315.04 408.516 314.808 409.62 314.808V316.92H409.068C408.364 316.92 407.716 317.048 407.124 317.304C406.532 317.544 406.06 317.96 405.708 318.552C405.356 319.144 405.18 319.96 405.18 321V327H403.164ZM422.194 327.288C421.202 327.288 420.378 327.12 419.722 326.784C419.066 326.448 418.578 326 418.258 325.44C417.938 324.88 417.778 324.272 417.778 323.616C417.778 322.4 418.242 321.464 419.17 320.808C420.098 320.152 421.362 319.824 422.962 319.824H426.178V319.68C426.178 318.64 425.906 317.856 425.362 317.328C424.818 316.784 424.09 316.512 423.178 316.512C422.394 316.512 421.714 316.712 421.138 317.112C420.578 317.496 420.226 318.064 420.082 318.816H418.018C418.098 317.952 418.386 317.224 418.882 316.632C419.394 316.04 420.026 315.592 420.778 315.288C421.53 314.968 422.33 314.808 423.178 314.808C424.842 314.808 426.09 315.256 426.922 316.152C427.77 317.032 428.194 318.208 428.194 319.68V327H426.394L426.274 324.864C425.938 325.536 425.442 326.112 424.786 326.592C424.146 327.056 423.282 327.288 422.194 327.288ZM422.506 325.584C423.274 325.584 423.93 325.384 424.474 324.984C425.034 324.584 425.458 324.064 425.746 323.424C426.034 322.784 426.178 322.112 426.178 321.408V321.384H423.13C421.946 321.384 421.106 321.592 420.61 322.008C420.13 322.408 419.89 322.912 419.89 323.52C419.89 324.144 420.114 324.648 420.562 325.032C421.026 325.4 421.674 325.584 422.506 325.584ZM431.219 327V315.096H433.043L433.163 317.232C433.547 316.48 434.099 315.888 434.819 315.456C435.539 315.024 436.355 314.808 437.267 314.808C438.675 314.808 439.795 315.24 440.627 316.104C441.475 316.952 441.898 318.264 441.898 320.04V327H439.883V320.256C439.883 317.776 438.859 316.536 436.811 316.536C435.787 316.536 434.931 316.912 434.243 317.664C433.571 318.4 433.235 319.456 433.235 320.832V327H431.219ZM450.353 327.288C449.169 327.288 448.129 327.016 447.233 326.472C446.353 325.928 445.665 325.184 445.169 324.24C444.689 323.296 444.449 322.224 444.449 321.024C444.449 319.824 444.697 318.76 445.193 317.832C445.689 316.888 446.377 316.152 447.257 315.624C448.137 315.08 449.177 314.808 450.377 314.808C451.353 314.808 452.217 315.008 452.969 315.408C453.721 315.808 454.305 316.368 454.721 317.088V309.72H456.737V327H454.913L454.721 325.032C454.337 325.608 453.785 326.128 453.065 326.592C452.345 327.056 451.441 327.288 450.353 327.288ZM450.569 325.536C451.369 325.536 452.073 325.352 452.681 324.984C453.305 324.6 453.785 324.072 454.121 323.4C454.473 322.728 454.649 321.944 454.649 321.048C454.649 320.152 454.473 319.368 454.121 318.696C453.785 318.024 453.305 317.504 452.681 317.136C452.073 316.752 451.369 316.56 450.569 316.56C449.785 316.56 449.081 316.752 448.457 317.136C447.849 317.504 447.369 318.024 447.017 318.696C446.681 319.368 446.513 320.152 446.513 321.048C446.513 321.944 446.681 322.728 447.017 323.4C447.369 324.072 447.849 324.6 448.457 324.984C449.081 325.352 449.785 325.536 450.569 325.536ZM466.375 327V309.72H468.391V317.136C468.791 316.4 469.359 315.832 470.095 315.432C470.831 315.016 471.631 314.808 472.495 314.808C473.871 314.808 474.975 315.24 475.807 316.104C476.639 316.952 477.055 318.264 477.055 320.04V327H475.063V320.256C475.063 317.776 474.063 316.536 472.063 316.536C471.023 316.536 470.151 316.912 469.447 317.664C468.743 318.4 468.391 319.456 468.391 320.832V327H466.375ZM485.533 327.288C484.413 327.288 483.405 327.032 482.509 326.52C481.613 326.008 480.901 325.288 480.373 324.36C479.861 323.416 479.605 322.312 479.605 321.048C479.605 319.784 479.869 318.688 480.397 317.76C480.925 316.816 481.637 316.088 482.533 315.576C483.445 315.064 484.461 314.808 485.581 314.808C486.701 314.808 487.709 315.064 488.605 315.576C489.501 316.088 490.205 316.816 490.717 317.76C491.245 318.688 491.509 319.784 491.509 321.048C491.509 322.312 491.245 323.416 490.717 324.36C490.189 325.288 489.469 326.008 488.557 326.52C487.661 327.032 486.653 327.288 485.533 327.288ZM485.533 325.56C486.221 325.56 486.861 325.392 487.453 325.056C488.045 324.72 488.525 324.216 488.893 323.544C489.261 322.872 489.445 322.04 489.445 321.048C489.445 320.056 489.261 319.224 488.893 318.552C488.541 317.88 488.069 317.376 487.477 317.04C486.885 316.704 486.253 316.536 485.581 316.536C484.893 316.536 484.253 316.704 483.661 317.04C483.069 317.376 482.589 317.88 482.221 318.552C481.853 319.224 481.669 320.056 481.669 321.048C481.669 322.04 481.853 322.872 482.221 323.544C482.589 324.216 483.061 324.72 483.637 325.056C484.229 325.392 484.861 325.56 485.533 325.56ZM496.267 327L492.787 315.096H494.803L497.323 324.432L500.107 315.096H502.387L505.195 324.432L507.691 315.096H509.731L506.251 327H504.187L501.259 317.184L498.331 327H496.267ZM523.016 327C521.928 327 521.072 326.736 520.448 326.208C519.824 325.68 519.512 324.728 519.512 323.352V316.8H517.448V315.096H519.512L519.776 312.24H521.528V315.096H525.032V316.8H521.528V323.352C521.528 324.104 521.68 324.616 521.984 324.888C522.288 325.144 522.824 325.272 523.592 325.272H524.84V327H523.016ZM532.689 327.288C531.569 327.288 530.561 327.032 529.665 326.52C528.769 326.008 528.057 325.288 527.529 324.36C527.017 323.416 526.761 322.312 526.761 321.048C526.761 319.784 527.025 318.688 527.553 317.76C528.081 316.816 528.793 316.088 529.689 315.576C530.601 315.064 531.617 314.808 532.737 314.808C533.857 314.808 534.865 315.064 535.761 315.576C536.657 316.088 537.361 316.816 537.873 317.76C538.401 318.688 538.665 319.784 538.665 321.048C538.665 322.312 538.401 323.416 537.873 324.36C537.345 325.288 536.625 326.008 535.713 326.52C534.817 327.032 533.809 327.288 532.689 327.288ZM532.689 325.56C533.377 325.56 534.017 325.392 534.609 325.056C535.201 324.72 535.681 324.216 536.049 323.544C536.417 322.872 536.601 322.04 536.601 321.048C536.601 320.056 536.417 319.224 536.049 318.552C535.697 317.88 535.225 317.376 534.633 317.04C534.041 316.704 533.409 316.536 532.737 316.536C532.049 316.536 531.409 316.704 530.817 317.04C530.225 317.376 529.745 317.88 529.377 318.552C529.009 319.224 528.825 320.056 528.825 321.048C528.825 322.04 529.009 322.872 529.377 323.544C529.745 324.216 530.217 324.72 530.793 325.056C531.385 325.392 532.017 325.56 532.689 325.56ZM136.056 358L132.576 346.096H134.592L137.112 355.432L139.896 346.096H142.176L144.984 355.432L147.48 346.096H149.52L146.04 358H143.976L141.048 348.184L138.12 358H136.056ZM156.656 358.288C155.52 358.288 154.512 358.032 153.632 357.52C152.752 356.992 152.056 356.264 151.544 355.336C151.048 354.408 150.8 353.312 150.8 352.048C150.8 350.8 151.048 349.712 151.544 348.784C152.04 347.84 152.728 347.112 153.608 346.6C154.504 346.072 155.536 345.808 156.704 345.808C157.856 345.808 158.848 346.072 159.68 346.6C160.528 347.112 161.176 347.792 161.624 348.64C162.072 349.488 162.296 350.4 162.296 351.376C162.296 351.552 162.288 351.728 162.272 351.904C162.272 352.08 162.272 352.28 162.272 352.504H152.792C152.84 353.416 153.048 354.176 153.416 354.784C153.8 355.376 154.272 355.824 154.832 356.128C155.408 356.432 156.016 356.584 156.656 356.584C157.488 356.584 158.184 356.392 158.744 356.008C159.304 355.624 159.712 355.104 159.968 354.448H161.96C161.64 355.552 161.024 356.472 160.112 357.208C159.216 357.928 158.064 358.288 156.656 358.288ZM156.656 347.512C155.696 347.512 154.84 347.808 154.088 348.4C153.352 348.976 152.928 349.824 152.816 350.944H160.304C160.256 349.872 159.888 349.032 159.2 348.424C158.512 347.816 157.664 347.512 156.656 347.512ZM168.929 358.288C167.937 358.288 167.113 358.12 166.457 357.784C165.801 357.448 165.313 357 164.993 356.44C164.673 355.88 164.513 355.272 164.513 354.616C164.513 353.4 164.977 352.464 165.905 351.808C166.833 351.152 168.097 350.824 169.697 350.824H172.913V350.68C172.913 349.64 172.641 348.856 172.097 348.328C171.553 347.784 170.825 347.512 169.913 347.512C169.129 347.512 168.449 347.712 167.873 348.112C167.313 348.496 166.961 349.064 166.817 349.816H164.753C164.833 348.952 165.121 348.224 165.617 347.632C166.129 347.04 166.761 346.592 167.513 346.288C168.265 345.968 169.065 345.808 169.913 345.808C171.577 345.808 172.825 346.256 173.657 347.152C174.505 348.032 174.929 349.208 174.929 350.68V358H173.129L173.009 355.864C172.673 356.536 172.177 357.112 171.521 357.592C170.881 358.056 170.017 358.288 168.929 358.288ZM169.241 356.584C170.009 356.584 170.665 356.384 171.209 355.984C171.769 355.584 172.193 355.064 172.481 354.424C172.769 353.784 172.913 353.112 172.913 352.408V352.384H169.865C168.681 352.384 167.841 352.592 167.345 353.008C166.865 353.408 166.625 353.912 166.625 354.52C166.625 355.144 166.849 355.648 167.297 356.032C167.761 356.4 168.409 356.584 169.241 356.584ZM177.953 358V346.096H179.777L179.945 348.376C180.313 347.592 180.873 346.968 181.625 346.504C182.377 346.04 183.305 345.808 184.409 345.808V347.92H183.857C183.153 347.92 182.505 348.048 181.913 348.304C181.321 348.544 180.849 348.96 180.497 349.552C180.145 350.144 179.969 350.96 179.969 352V358H177.953ZM194.247 343.456C193.847 343.456 193.511 343.328 193.239 343.072C192.983 342.8 192.855 342.464 192.855 342.064C192.855 341.68 192.983 341.36 193.239 341.104C193.511 340.848 193.847 340.72 194.247 340.72C194.631 340.72 194.959 340.848 195.231 341.104C195.503 341.36 195.639 341.68 195.639 342.064C195.639 342.464 195.503 342.8 195.231 343.072C194.959 343.328 194.631 343.456 194.247 343.456ZM193.239 358V346.096H195.255V358H193.239ZM203.469 358C202.381 358 201.525 357.736 200.901 357.208C200.277 356.68 199.965 355.728 199.965 354.352V347.8H197.901V346.096H199.965L200.229 343.24H201.981V346.096H205.485V347.8H201.981V354.352C201.981 355.104 202.133 355.616 202.437 355.888C202.741 356.144 203.277 356.272 204.045 356.272H205.293V358H203.469ZM208.743 358.12C208.343 358.12 208.007 357.992 207.735 357.736C207.479 357.464 207.351 357.136 207.351 356.752C207.351 356.368 207.479 356.048 207.735 355.792C208.007 355.52 208.343 355.384 208.743 355.384C209.127 355.384 209.447 355.52 209.703 355.792C209.975 356.048 210.111 356.368 210.111 356.752C210.111 357.136 209.975 357.464 209.703 357.736C209.447 357.992 209.127 358.12 208.743 358.12Z" fill="black"/>
<path d="M133.776 427V410.2H135.792V427H133.776ZM145.586 427V409.72H147.602V427H145.586ZM156.33 427.288C155.21 427.288 154.202 427.032 153.306 426.52C152.41 426.008 151.698 425.288 151.17 424.36C150.658 423.416 150.402 422.312 150.402 421.048C150.402 419.784 150.666 418.688 151.194 417.76C151.722 416.816 152.434 416.088 153.33 415.576C154.242 415.064 155.258 414.808 156.378 414.808C157.498 414.808 158.506 415.064 159.402 415.576C160.298 416.088 161.002 416.816 161.514 417.76C162.042 418.688 162.306 419.784 162.306 421.048C162.306 422.312 162.042 423.416 161.514 424.36C160.986 425.288 160.266 426.008 159.354 426.52C158.458 427.032 157.45 427.288 156.33 427.288ZM156.33 425.56C157.018 425.56 157.658 425.392 158.25 425.056C158.842 424.72 159.322 424.216 159.69 423.544C160.058 422.872 160.242 422.04 160.242 421.048C160.242 420.056 160.058 419.224 159.69 418.552C159.338 417.88 158.866 417.376 158.274 417.04C157.682 416.704 157.05 416.536 156.378 416.536C155.69 416.536 155.05 416.704 154.458 417.04C153.866 417.376 153.386 417.88 153.018 418.552C152.65 419.224 152.466 420.056 152.466 421.048C152.466 422.04 152.65 422.872 153.018 423.544C153.386 424.216 153.858 424.72 154.434 425.056C155.026 425.392 155.658 425.56 156.33 425.56ZM167.932 427L163.42 415.096H165.532L169.108 425.056L172.708 415.096H174.772L170.26 427H167.932ZM181.758 427.288C180.622 427.288 179.614 427.032 178.734 426.52C177.854 425.992 177.158 425.264 176.646 424.336C176.15 423.408 175.902 422.312 175.902 421.048C175.902 419.8 176.15 418.712 176.646 417.784C177.142 416.84 177.83 416.112 178.71 415.6C179.606 415.072 180.638 414.808 181.806 414.808C182.958 414.808 183.95 415.072 184.782 415.6C185.63 416.112 186.278 416.792 186.726 417.64C187.174 418.488 187.398 419.4 187.398 420.376C187.398 420.552 187.39 420.728 187.374 420.904C187.374 421.08 187.374 421.28 187.374 421.504H177.894C177.942 422.416 178.15 423.176 178.518 423.784C178.902 424.376 179.374 424.824 179.934 425.128C180.51 425.432 181.118 425.584 181.758 425.584C182.59 425.584 183.286 425.392 183.846 425.008C184.406 424.624 184.814 424.104 185.07 423.448H187.062C186.742 424.552 186.126 425.472 185.214 426.208C184.318 426.928 183.166 427.288 181.758 427.288ZM181.758 416.512C180.798 416.512 179.942 416.808 179.19 417.4C178.454 417.976 178.03 418.824 177.918 419.944H185.406C185.358 418.872 184.99 418.032 184.302 417.424C183.614 416.816 182.766 416.512 181.758 416.512ZM196.422 427V415.096H198.246L198.39 416.824C198.774 416.184 199.286 415.688 199.926 415.336C200.566 414.984 201.286 414.808 202.086 414.808C203.03 414.808 203.838 415 204.51 415.384C205.198 415.768 205.726 416.352 206.094 417.136C206.51 416.416 207.078 415.848 207.798 415.432C208.534 415.016 209.326 414.808 210.174 414.808C211.598 414.808 212.734 415.24 213.582 416.104C214.43 416.952 214.854 418.264 214.854 420.04V427H212.862V420.256C212.862 419.024 212.614 418.096 212.118 417.472C211.622 416.848 210.91 416.536 209.982 416.536C209.022 416.536 208.222 416.912 207.582 417.664C206.958 418.4 206.646 419.456 206.646 420.832V427H204.63V420.256C204.63 419.024 204.382 418.096 203.886 417.472C203.39 416.848 202.678 416.536 201.75 416.536C200.806 416.536 200.014 416.912 199.374 417.664C198.75 418.4 198.438 419.456 198.438 420.832V427H196.422ZM223.242 427.288C222.106 427.288 221.098 427.032 220.218 426.52C219.338 425.992 218.642 425.264 218.13 424.336C217.634 423.408 217.386 422.312 217.386 421.048C217.386 419.8 217.634 418.712 218.13 417.784C218.626 416.84 219.314 416.112 220.194 415.6C221.09 415.072 222.122 414.808 223.29 414.808C224.442 414.808 225.434 415.072 226.266 415.6C227.114 416.112 227.762 416.792 228.21 417.64C228.658 418.488 228.882 419.4 228.882 420.376C228.882 420.552 228.874 420.728 228.858 420.904C228.858 421.08 228.858 421.28 228.858 421.504H219.378C219.426 422.416 219.634 423.176 220.002 423.784C220.386 424.376 220.858 424.824 221.418 425.128C221.994 425.432 222.602 425.584 223.242 425.584C224.074 425.584 224.77 425.392 225.33 425.008C225.89 424.624 226.298 424.104 226.554 423.448H228.546C228.226 424.552 227.61 425.472 226.698 426.208C225.802 426.928 224.65 427.288 223.242 427.288ZM223.242 416.512C222.282 416.512 221.426 416.808 220.674 417.4C219.938 417.976 219.514 418.824 219.402 419.944H226.89C226.842 418.872 226.474 418.032 225.786 417.424C225.098 416.816 224.25 416.512 223.242 416.512ZM241.866 427.288C240.874 427.288 240.05 427.12 239.394 426.784C238.738 426.448 238.25 426 237.93 425.44C237.61 424.88 237.45 424.272 237.45 423.616C237.45 422.4 237.914 421.464 238.842 420.808C239.77 420.152 241.034 419.824 242.634 419.824H245.85V419.68C245.85 418.64 245.578 417.856 245.034 417.328C244.49 416.784 243.762 416.512 242.85 416.512C242.066 416.512 241.386 416.712 240.81 417.112C240.25 417.496 239.898 418.064 239.754 418.816H237.69C237.77 417.952 238.058 417.224 238.554 416.632C239.066 416.04 239.698 415.592 240.45 415.288C241.202 414.968 242.002 414.808 242.85 414.808C244.514 414.808 245.762 415.256 246.594 416.152C247.442 417.032 247.866 418.208 247.866 419.68V427H246.066L245.946 424.864C245.61 425.536 245.114 426.112 244.458 426.592C243.818 427.056 242.954 427.288 241.866 427.288ZM242.178 425.584C242.946 425.584 243.602 425.384 244.146 424.984C244.706 424.584 245.13 424.064 245.418 423.424C245.706 422.784 245.85 422.112 245.85 421.408V421.384H242.802C241.618 421.384 240.778 421.592 240.282 422.008C239.802 422.408 239.562 422.912 239.562 423.52C239.562 424.144 239.786 424.648 240.234 425.032C240.698 425.4 241.346 425.584 242.178 425.584ZM261.802 427.288C260.378 427.288 259.194 426.928 258.25 426.208C257.306 425.488 256.754 424.512 256.594 423.28H258.658C258.786 423.904 259.114 424.448 259.642 424.912C260.186 425.36 260.914 425.584 261.826 425.584C262.674 425.584 263.298 425.408 263.698 425.056C264.098 424.688 264.298 424.256 264.298 423.76C264.298 423.04 264.034 422.56 263.506 422.32C262.994 422.08 262.266 421.864 261.322 421.672C260.682 421.544 260.042 421.36 259.402 421.12C258.762 420.88 258.226 420.544 257.794 420.112C257.362 419.664 257.146 419.08 257.146 418.36C257.146 417.32 257.53 416.472 258.298 415.816C259.082 415.144 260.138 414.808 261.466 414.808C262.73 414.808 263.762 415.128 264.562 415.768C265.378 416.392 265.85 417.288 265.978 418.456H263.986C263.906 417.848 263.642 417.376 263.194 417.04C262.762 416.688 262.178 416.512 261.442 416.512C260.722 416.512 260.162 416.664 259.762 416.968C259.378 417.272 259.186 417.672 259.186 418.168C259.186 418.648 259.434 419.024 259.93 419.296C260.442 419.568 261.13 419.8 261.994 419.992C262.73 420.152 263.426 420.352 264.082 420.592C264.754 420.816 265.298 421.16 265.714 421.624C266.146 422.072 266.362 422.728 266.362 423.592C266.378 424.664 265.97 425.552 265.138 426.256C264.322 426.944 263.21 427.288 261.802 427.288ZM269.242 427V415.096H271.066L271.21 416.824C271.594 416.184 272.106 415.688 272.746 415.336C273.386 414.984 274.106 414.808 274.906 414.808C275.85 414.808 276.658 415 277.33 415.384C278.018 415.768 278.546 416.352 278.914 417.136C279.33 416.416 279.898 415.848 280.618 415.432C281.354 415.016 282.146 414.808 282.994 414.808C284.418 414.808 285.554 415.24 286.402 416.104C287.25 416.952 287.674 418.264 287.674 420.04V427H285.682V420.256C285.682 419.024 285.434 418.096 284.938 417.472C284.442 416.848 283.73 416.536 282.802 416.536C281.842 416.536 281.042 416.912 280.402 417.664C279.778 418.4 279.466 419.456 279.466 420.832V427H277.45V420.256C277.45 419.024 277.202 418.096 276.706 417.472C276.21 416.848 275.498 416.536 274.57 416.536C273.626 416.536 272.834 416.912 272.194 417.664C271.57 418.4 271.258 419.456 271.258 420.832V427H269.242ZM296.135 427.288C295.015 427.288 294.007 427.032 293.111 426.52C292.215 426.008 291.503 425.288 290.975 424.36C290.463 423.416 290.207 422.312 290.207 421.048C290.207 419.784 290.471 418.688 290.999 417.76C291.527 416.816 292.239 416.088 293.135 415.576C294.047 415.064 295.063 414.808 296.183 414.808C297.303 414.808 298.311 415.064 299.207 415.576C300.103 416.088 300.807 416.816 301.319 417.76C301.847 418.688 302.111 419.784 302.111 421.048C302.111 422.312 301.847 423.416 301.319 424.36C300.791 425.288 300.071 426.008 299.159 426.52C298.263 427.032 297.255 427.288 296.135 427.288ZM296.135 425.56C296.823 425.56 297.463 425.392 298.055 425.056C298.647 424.72 299.127 424.216 299.495 423.544C299.863 422.872 300.047 422.04 300.047 421.048C300.047 420.056 299.863 419.224 299.495 418.552C299.143 417.88 298.671 417.376 298.079 417.04C297.487 416.704 296.855 416.536 296.183 416.536C295.495 416.536 294.855 416.704 294.263 417.04C293.671 417.376 293.191 417.88 292.823 418.552C292.455 419.224 292.271 420.056 292.271 421.048C292.271 422.04 292.455 422.872 292.823 423.544C293.191 424.216 293.663 424.72 294.239 425.056C294.831 425.392 295.463 425.56 296.135 425.56ZM304.914 427V409.72H306.93V420.112L311.802 415.096H314.274L308.994 420.472L314.946 427H312.378L306.93 420.832V427H304.914ZM321.492 427.288C320.356 427.288 319.348 427.032 318.468 426.52C317.588 425.992 316.892 425.264 316.38 424.336C315.884 423.408 315.636 422.312 315.636 421.048C315.636 419.8 315.884 418.712 316.38 417.784C316.876 416.84 317.564 416.112 318.444 415.6C319.34 415.072 320.372 414.808 321.54 414.808C322.692 414.808 323.684 415.072 324.516 415.6C325.364 416.112 326.012 416.792 326.46 417.64C326.908 418.488 327.132 419.4 327.132 420.376C327.132 420.552 327.124 420.728 327.108 420.904C327.108 421.08 327.108 421.28 327.108 421.504H317.628C317.676 422.416 317.884 423.176 318.252 423.784C318.636 424.376 319.108 424.824 319.668 425.128C320.244 425.432 320.852 425.584 321.492 425.584C322.324 425.584 323.02 425.392 323.58 425.008C324.14 424.624 324.548 424.104 324.804 423.448H326.796C326.476 424.552 325.86 425.472 324.948 426.208C324.052 426.928 322.9 427.288 321.492 427.288ZM321.492 416.512C320.532 416.512 319.676 416.808 318.924 417.4C318.188 417.976 317.764 418.824 317.652 419.944H325.14C325.092 418.872 324.724 418.032 324.036 417.424C323.348 416.816 322.5 416.512 321.492 416.512ZM330.632 432.28L333.584 425.848H332.888L328.16 415.096H330.344L334.28 424.36L338.456 415.096H340.544L332.744 432.28H330.632ZM354.375 427.288C353.239 427.288 352.231 427.032 351.351 426.52C350.471 425.992 349.775 425.264 349.263 424.336C348.767 423.408 348.519 422.312 348.519 421.048C348.519 419.8 348.767 418.712 349.263 417.784C349.759 416.84 350.447 416.112 351.327 415.6C352.223 415.072 353.255 414.808 354.423 414.808C355.575 414.808 356.567 415.072 357.399 415.6C358.247 416.112 358.895 416.792 359.343 417.64C359.791 418.488 360.015 419.4 360.015 420.376C360.015 420.552 360.007 420.728 359.991 420.904C359.991 421.08 359.991 421.28 359.991 421.504H350.511C350.559 422.416 350.767 423.176 351.135 423.784C351.519 424.376 351.991 424.824 352.551 425.128C353.127 425.432 353.735 425.584 354.375 425.584C355.207 425.584 355.903 425.392 356.463 425.008C357.023 424.624 357.431 424.104 357.687 423.448H359.679C359.359 424.552 358.743 425.472 357.831 426.208C356.935 426.928 355.783 427.288 354.375 427.288ZM354.375 416.512C353.415 416.512 352.559 416.808 351.807 417.4C351.071 417.976 350.647 418.824 350.535 419.944H358.023C357.975 418.872 357.607 418.032 356.919 417.424C356.231 416.816 355.383 416.512 354.375 416.512ZM363.515 432.28L366.467 425.848H365.771L361.043 415.096H363.227L367.163 424.36L371.339 415.096H373.427L365.627 432.28H363.515ZM379.781 427.288C378.645 427.288 377.637 427.032 376.757 426.52C375.877 425.992 375.181 425.264 374.669 424.336C374.173 423.408 373.925 422.312 373.925 421.048C373.925 419.8 374.173 418.712 374.669 417.784C375.165 416.84 375.853 416.112 376.733 415.6C377.629 415.072 378.661 414.808 379.829 414.808C380.981 414.808 381.973 415.072 382.805 415.6C383.653 416.112 384.301 416.792 384.749 417.64C385.197 418.488 385.421 419.4 385.421 420.376C385.421 420.552 385.413 420.728 385.397 420.904C385.397 421.08 385.397 421.28 385.397 421.504H375.917C375.965 422.416 376.173 423.176 376.541 423.784C376.925 424.376 377.397 424.824 377.957 425.128C378.533 425.432 379.141 425.584 379.781 425.584C380.613 425.584 381.309 425.392 381.869 425.008C382.429 424.624 382.837 424.104 383.093 423.448H385.085C384.765 424.552 384.149 425.472 383.237 426.208C382.341 426.928 381.189 427.288 379.781 427.288ZM379.781 416.512C378.821 416.512 377.965 416.808 377.213 417.4C376.477 417.976 376.053 418.824 375.941 419.944H383.429C383.381 418.872 383.013 418.032 382.325 417.424C381.637 416.816 380.789 416.512 379.781 416.512ZM388.79 427.12C388.39 427.12 388.054 426.992 387.782 426.736C387.526 426.464 387.398 426.136 387.398 425.752C387.398 425.368 387.526 425.048 387.782 424.792C388.054 424.52 388.39 424.384 388.79 424.384C389.174 424.384 389.494 424.52 389.75 424.792C390.022 425.048 390.158 425.368 390.158 425.752C390.158 426.136 390.022 426.464 389.75 426.736C389.494 426.992 389.174 427.12 388.79 427.12Z" fill="black"/>
<path d="M770.656 146V134.096H772.48L772.624 135.824C773.008 135.184 773.52 134.688 774.16 134.336C774.8 133.984 775.52 133.808 776.32 133.808C777.264 133.808 778.072 134 778.744 134.384C779.432 134.768 779.96 135.352 780.328 136.136C780.744 135.416 781.312 134.848 782.032 134.432C782.768 134.016 783.56 133.808 784.408 133.808C785.832 133.808 786.968 134.24 787.816 135.104C788.664 135.952 789.088 137.264 789.088 139.04V146H787.096V139.256C787.096 138.024 786.848 137.096 786.352 136.472C785.856 135.848 785.144 135.536 784.216 135.536C783.256 135.536 782.456 135.912 781.816 136.664C781.192 137.4 780.88 138.456 780.88 139.832V146H778.864V139.256C778.864 138.024 778.616 137.096 778.12 136.472C777.624 135.848 776.912 135.536 775.984 135.536C775.04 135.536 774.248 135.912 773.608 136.664C772.984 137.4 772.672 138.456 772.672 139.832V146H770.656ZM797.477 146.288C796.341 146.288 795.333 146.032 794.453 145.52C793.573 144.992 792.877 144.264 792.365 143.336C791.869 142.408 791.621 141.312 791.621 140.048C791.621 138.8 791.869 137.712 792.365 136.784C792.861 135.84 793.549 135.112 794.429 134.6C795.325 134.072 796.357 133.808 797.525 133.808C798.677 133.808 799.669 134.072 800.501 134.6C801.349 135.112 801.997 135.792 802.445 136.64C802.893 137.488 803.117 138.4 803.117 139.376C803.117 139.552 803.109 139.728 803.093 139.904C803.093 140.08 803.093 140.28 803.093 140.504H793.613C793.661 141.416 793.869 142.176 794.237 142.784C794.621 143.376 795.093 143.824 795.653 144.128C796.229 144.432 796.837 144.584 797.477 144.584C798.309 144.584 799.005 144.392 799.565 144.008C800.125 143.624 800.533 143.104 800.789 142.448H802.781C802.461 143.552 801.845 144.472 800.933 145.208C800.037 145.928 798.885 146.288 797.477 146.288ZM797.477 135.512C796.517 135.512 795.661 135.808 794.909 136.4C794.173 136.976 793.749 137.824 793.637 138.944H801.125C801.077 137.872 800.709 137.032 800.021 136.424C799.333 135.816 798.485 135.512 797.477 135.512ZM811.189 146.288C810.005 146.288 808.965 146.016 808.069 145.472C807.189 144.928 806.501 144.184 806.005 143.24C805.525 142.296 805.285 141.224 805.285 140.024C805.285 138.824 805.533 137.76 806.029 136.832C806.525 135.888 807.213 135.152 808.093 134.624C808.973 134.08 810.013 133.808 811.213 133.808C812.189 133.808 813.053 134.008 813.805 134.408C814.557 134.808 815.141 135.368 815.557 136.088V128.72H817.573V146H815.749L815.557 144.032C815.173 144.608 814.621 145.128 813.901 145.592C813.181 146.056 812.277 146.288 811.189 146.288ZM811.405 144.536C812.205 144.536 812.909 144.352 813.517 143.984C814.141 143.6 814.621 143.072 814.957 142.4C815.309 141.728 815.485 140.944 815.485 140.048C815.485 139.152 815.309 138.368 814.957 137.696C814.621 137.024 814.141 136.504 813.517 136.136C812.909 135.752 812.205 135.56 811.405 135.56C810.621 135.56 809.917 135.752 809.293 136.136C808.685 136.504 808.205 137.024 807.853 137.696C807.517 138.368 807.349 139.152 807.349 140.048C807.349 140.944 807.517 141.728 807.853 142.4C808.205 143.072 808.685 143.6 809.293 143.984C809.917 144.352 810.621 144.536 811.405 144.536ZM822.083 131.456C821.683 131.456 821.347 131.328 821.075 131.072C820.819 130.8 820.691 130.464 820.691 130.064C820.691 129.68 820.819 129.36 821.075 129.104C821.347 128.848 821.683 128.72 822.083 128.72C822.467 128.72 822.795 128.848 823.067 129.104C823.339 129.36 823.475 129.68 823.475 130.064C823.475 130.464 823.339 130.8 823.067 131.072C822.795 131.328 822.467 131.456 822.083 131.456ZM821.075 146V134.096H823.091V146H821.075ZM830.945 146.288C829.537 146.288 828.417 145.864 827.585 145.016C826.753 144.152 826.337 142.832 826.337 141.056V134.096H828.353V140.84C828.353 143.32 829.369 144.56 831.401 144.56C832.441 144.56 833.297 144.192 833.969 143.456C834.657 142.704 835.001 141.64 835.001 140.264V134.096H837.017V146H835.193L835.049 143.864C834.681 144.616 834.129 145.208 833.393 145.64C832.673 146.072 831.857 146.288 830.945 146.288ZM840.336 146V134.096H842.16L842.304 135.824C842.688 135.184 843.2 134.688 843.84 134.336C844.48 133.984 845.2 133.808 846 133.808C846.944 133.808 847.752 134 848.424 134.384C849.112 134.768 849.64 135.352 850.008 136.136C850.424 135.416 850.992 134.848 851.712 134.432C852.448 134.016 853.24 133.808 854.088 133.808C855.512 133.808 856.648 134.24 857.496 135.104C858.344 135.952 858.768 137.264 858.768 139.04V146H856.776V139.256C856.776 138.024 856.528 137.096 856.032 136.472C855.536 135.848 854.824 135.536 853.896 135.536C852.936 135.536 852.136 135.912 851.496 136.664C850.872 137.4 850.56 138.456 850.56 139.832V146H848.544V139.256C848.544 138.024 848.296 137.096 847.8 136.472C847.304 135.848 846.592 135.536 845.664 135.536C844.72 135.536 843.928 135.912 843.288 136.664C842.664 137.4 842.352 138.456 842.352 139.832V146H840.336Z" fill="black"/>
<path d="M942.656 146V128.72H944.672V136.136C945.072 135.4 945.64 134.832 946.376 134.432C947.112 134.016 947.912 133.808 948.776 133.808C950.152 133.808 951.256 134.24 952.088 135.104C952.92 135.952 953.336 137.264 953.336 139.04V146H951.344V139.256C951.344 136.776 950.344 135.536 948.344 135.536C947.304 135.536 946.432 135.912 945.728 136.664C945.024 137.4 944.672 138.456 944.672 139.832V146H942.656ZM961.742 146.288C960.606 146.288 959.598 146.032 958.718 145.52C957.838 144.992 957.142 144.264 956.63 143.336C956.134 142.408 955.886 141.312 955.886 140.048C955.886 138.8 956.134 137.712 956.63 136.784C957.126 135.84 957.814 135.112 958.694 134.6C959.59 134.072 960.622 133.808 961.79 133.808C962.942 133.808 963.934 134.072 964.766 134.6C965.614 135.112 966.262 135.792 966.71 136.64C967.158 137.488 967.382 138.4 967.382 139.376C967.382 139.552 967.374 139.728 967.358 139.904C967.358 140.08 967.358 140.28 967.358 140.504H957.878C957.926 141.416 958.134 142.176 958.502 142.784C958.886 143.376 959.358 143.824 959.918 144.128C960.494 144.432 961.102 144.584 961.742 144.584C962.574 144.584 963.27 144.392 963.83 144.008C964.39 143.624 964.798 143.104 965.054 142.448H967.046C966.726 143.552 966.11 144.472 965.198 145.208C964.302 145.928 963.15 146.288 961.742 146.288ZM961.742 135.512C960.782 135.512 959.926 135.808 959.174 136.4C958.438 136.976 958.014 137.824 957.902 138.944H965.39C965.342 137.872 964.974 137.032 964.286 136.424C963.598 135.816 962.75 135.512 961.742 135.512ZM974.014 146.288C973.022 146.288 972.198 146.12 971.542 145.784C970.886 145.448 970.398 145 970.078 144.44C969.758 143.88 969.598 143.272 969.598 142.616C969.598 141.4 970.062 140.464 970.99 139.808C971.918 139.152 973.182 138.824 974.782 138.824H977.998V138.68C977.998 137.64 977.726 136.856 977.182 136.328C976.638 135.784 975.91 135.512 974.998 135.512C974.214 135.512 973.534 135.712 972.958 136.112C972.398 136.496 972.046 137.064 971.902 137.816H969.838C969.918 136.952 970.206 136.224 970.702 135.632C971.214 135.04 971.846 134.592 972.598 134.288C973.35 133.968 974.15 133.808 974.998 133.808C976.662 133.808 977.91 134.256 978.742 135.152C979.59 136.032 980.014 137.208 980.014 138.68V146H978.214L978.094 143.864C977.758 144.536 977.262 145.112 976.606 145.592C975.966 146.056 975.102 146.288 974.014 146.288ZM974.326 144.584C975.094 144.584 975.75 144.384 976.294 143.984C976.854 143.584 977.278 143.064 977.566 142.424C977.854 141.784 977.998 141.112 977.998 140.408V140.384H974.95C973.766 140.384 972.926 140.592 972.43 141.008C971.95 141.408 971.71 141.912 971.71 142.52C971.71 143.144 971.934 143.648 972.382 144.032C972.846 144.4 973.494 144.584 974.326 144.584ZM986.026 146L981.514 134.096H983.626L987.202 144.056L990.802 134.096H992.866L988.354 146H986.026ZM996.405 151.28L999.357 144.848H998.661L993.933 134.096H996.117L1000.05 143.36L1004.23 134.096H1006.32L998.517 151.28H996.405Z" fill="black"/>
<line x1="597.5" y1="115" x2="597.5" y2="468" stroke="black"/>
<line x1="130" y1="168.5" x2="1042" y2="168.5" stroke="black"/>
<line x1="739.5" y1="114" x2="739.5" y2="467" stroke="black"/>
<line x1="905.5" y1="114" x2="905.5" y2="467" stroke="black"/>
<circle cx="667.5" cy="212.5" r="17.5" fill="black"/>
<circle cx="821.5" cy="295.5" r="17.5" fill="black"/>
<circle cx="819.5" cy="420.5" r="17" fill="white" stroke="black"/>
<circle cx="974.5" cy="295.5" r="17" fill="white" stroke="black"/>
<circle cx="974.5" cy="212.5" r="17" fill="white" stroke="black"/>
<circle cx="667.5" cy="420.5" r="17" fill="white" stroke="black"/>
<circle cx="667.5" cy="295.5" r="17" fill="white" stroke="black"/>
<circle cx="819.5" cy="212.5" r="17" fill="white" stroke="black"/>
<circle cx="974.5" cy="420.5" r="17.5" fill="black"/>
</svg>
